<?xml version="1.0" standalone="no"?>
<!DOCTYPE svg PUBLIC "-//W3C//DTD SVG 1.1//EN" "http://www.w3.org/Graphics/SVG/1.1/DTD/svg11.dtd" >
<svg>
<metadata>
Created by FontForge 20090914 at Fri Apr 21 12:34:17 2017
 By www-data
Copyright (c) 2010 by Open Window. All rights reserved.
</metadata>
<defs>
<font id="Calligraffitti-Regular" horiz-adv-x="701" >
  <font-face 
    font-family="Calligraffitti"
    font-weight="400"
    font-stretch="normal"
    units-per-em="1024"
    panose-1="2 0 0 0 0 0 0 0 0 0"
    ascent="819"
    descent="-205"
    x-height="471.001"
    cap-height="774"
    bbox="-572.999 -607.006 1288 986.008"
    underline-thickness="51"
    underline-position="-52"
    unicode-range="U+0020-U+FB02"
  />
<missing-glyph horiz-adv-x="297" 
 />
    <glyph glyph-name=".notdef" horiz-adv-x="297" 
 />
    <glyph glyph-name="space" unicode=" " horiz-adv-x="297" 
 />
    <glyph glyph-name="exclam" unicode="!" horiz-adv-x="236" 
d="M256 754c0 -13.333 -0.500977 -26.3359 -1.50098 -39.0029s-2.16699 -25.667 -3.5 -39c-4.66699 -44.667 -10.5 -89 -17.5 -133l-21.5 -132c-5.33301 -33.333 -10 -66.333 -14 -99s-8.33301 -65.667 -13 -99l-2.5 -20l-3 -24.5
c-1 -8.33301 -2.16699 -16.166 -3.5 -23.499s-2.66602 -13.333 -3.99902 -18c-1.33301 -3.33301 -3.66602 -5.83301 -6.99902 -7.5s-6.66602 -2.5 -9.99902 -2.5c-7.33301 0 -12 3 -14 9c-3.33301 12.667 -5.5 26.334 -6.5 41.001s-1.5 28.667 -1.5 42
c0 36 3.16699 71.333 9.5 106l19.5 105c6.66699 38.667 14 76.834 22 114.501s15.667 75.5 23 113.5l7.5 38.5c2.33301 12.333 4.5 24.833 6.5 37.5c1.33301 5.33301 2.16602 10.833 2.49902 16.5s1.16602 11.167 2.49902 16.5c2 6.66699 6.66699 10 14 10
c2.66699 0 6 -1.33301 10 -4s6 -5.66699 6 -9zM167.999 21.9971c0 -3.33301 -1.99805 -7.66797 -5.99805 -13.001v-2c0 -1.33301 0.166992 -2.66602 0.5 -3.99902s0.5 -2.66602 0.5 -3.99902c-4.66699 -3.33301 -7.83398 -6.83301 -9.50098 -10.5s-6.16699 -5.5 -13.5 -5.5
c-6.66699 0 -12.834 2.5 -18.501 7.5s-8.5 10.833 -8.5 17.5c0 11.333 1 20.666 3 27.999s10 11 24 11c6.66699 0 13 -2.33301 19 -7s9 -10.667 9 -18zM147.001 -5.00488v4l-1 -1c0 -0.666992 0.166992 -1.16699 0.5 -1.5s0.5 -0.833008 0.5 -1.5z" />
    <glyph glyph-name="quotedbl" unicode="&#x22;" horiz-adv-x="211" 
d="M365 728c0 -12.667 -3.66699 -24.667 -11 -36l-8.5 -12.5c-3 -4.33301 -5.83301 -8.83301 -8.5 -13.5c-14 -24.667 -29.333 -48 -46 -70c-0.666992 0 -1.5 -0.166992 -2.5 -0.5s-1.83301 -0.5 -2.5 -0.5c-2 0 -5.5 2.33301 -10.5 7s-8.16699 7.66699 -9.5 9
c3.33301 17.333 8.83301 36.5 16.5 57.5s15.834 38.833 24.501 53.5c3.33301 5.33301 8.66602 11 15.999 17s14 9 20 9s11.167 -1.83301 15.5 -5.5s6.5 -8.5 6.5 -14.5zM283 728c0 -12.667 -3.66699 -24.667 -11 -36l-8.5 -12.5c-3 -4.33301 -5.83301 -8.83301 -8.5 -13.5
c-14 -24.667 -29.333 -48 -46 -70c-0.666992 0 -1.5 -0.166992 -2.5 -0.5s-1.83301 -0.5 -2.5 -0.5c-1.33301 0 -4.66602 2.33301 -9.99902 7s-8.66602 7.66699 -9.99902 9c3.33301 17.333 8.83301 36.5 16.5 57.5s16.167 38.833 25.5 53.5
c3.33301 5.33301 8.66602 11 15.999 17s14 9 20 9c5.33301 0 10.166 -1.83301 14.499 -5.5s6.5 -8.5 6.5 -14.5z" />
    <glyph glyph-name="numbersign" unicode="#" horiz-adv-x="846" 
d="M948 529c0 -7.33301 -3.33398 -12.002 -10.001 -14.002c-8 -2.66699 -20.167 -4.83398 -36.5 -6.50098s-33.666 -2.66699 -51.999 -3s-36 -0.5 -53 -0.5h-40.5l-129 -234c28.667 -0.666992 57 -1.83398 85 -3.50098s56 -4.16699 84 -7.5
c4 -0.666992 8.33301 -1.16699 13 -1.5s9 -1.16602 13 -2.49902c7.33301 -2 11 -7.33301 11 -16c0 -7.33301 -3.66699 -12 -11 -14c-6.66699 -2 -16.334 -3.83301 -29.001 -5.5s-26 -2.83398 -40 -3.50098s-27.5 -1.16699 -40.5 -1.5s-23.5 -0.5 -31.5 -0.5
c-13.333 0 -27 0.166992 -41 0.5s-27.667 0.833008 -41 1.5l-37.5 -73.5l-36.5 -74.5l-16 -35.5c-5.33301 -12.333 -11.333 -24.166 -18 -35.499c-3.33301 -4 -7.33301 -6 -12 -6c-3.33301 0 -7 1.16699 -11 3.5s-6 5.5 -6 9.5c0 2 2 8.16699 6 18.5l14.5 37l19.5 47
l20.5 48l17 40c5 11.667 8.5 19.5 10.5 23.5c-26 1.33301 -51.833 2 -77.5 2h-77.5h-57c-18.667 0 -37.667 -0.333008 -57 -1l-37.5 -73.5l-36.5 -74.5l-16 -35.5c-5.33301 -12.333 -11.333 -24.166 -18 -35.499c-3.33301 -4 -7.33301 -6 -12 -6
c-3.33301 0 -7 1.16699 -11 3.5s-6 5.5 -6 9.5c0 2 1.83301 8.16699 5.5 18.5s8.33398 22.5 14.001 36.5l19 46l20 47l17 39.5c5 11.667 8.5 19.5 10.5 23.5c-19.333 -1.33301 -38.833 -2.16602 -58.5 -2.49902s-39.167 -1.16602 -58.5 -2.49902l-29.5 -2
c-9.66699 -0.666992 -19.5 -1 -29.5 -1c-4 0 -7.16699 2 -9.5 6s-3.5 7.66699 -3.5 11c0 6.66699 3.33301 11 10 13c9.33301 2.66699 19 4.33398 29 5.00098s19.667 1.66699 29 3c23.333 3.33301 46.833 6.16602 70.5 8.49902s47.5 4.16602 71.5 5.49902
c19.333 42 39.666 83.167 60.999 123.5l65 121.5l-70.5 -2c-23.667 -0.666992 -47.167 -1.66699 -70.5 -3l-33.5 -2c-11 -0.666992 -22.167 -1 -33.5 -1c-4 0 -7.16699 2 -9.5 6s-3.5 7.66699 -3.5 11c0 6.66699 3.66699 11 11 13c10 2.66699 21.167 4.5 33.5 5.5
s23.833 2.16699 34.5 3.5c28 3.33301 55.833 6.33301 83.5 9s55.5 5 83.5 7l41.5 71.5c14.333 23.667 29.5 47.167 45.5 70.5c4 6.66699 8.33301 13.5 13 20.5s9.66699 13.5 15 19.5c2 2.66699 5.33301 4 10 4c4 0 8 -1.16699 12 -3.5s6 -5.83301 6 -10.5
c0 -5.33301 -3.33301 -16 -10 -32s-14.5 -33 -23.5 -51l-26.5 -51.5l-18 -34.5c43.333 2 86.333 3.16699 129 3.5s85.667 0.166016 129 -0.500977l40 68.5c13.333 22.333 27.666 44.5 42.999 66.5l12.5 19c4.33301 6.66699 8.83301 13 13.5 19c2.66699 2.66699 6 4 10 4
s8.16699 -1.16699 12.5 -3.5s6.5 -5.83301 6.5 -10.5c0 -5.33301 -3.33301 -15.666 -10 -30.999s-14.334 -32 -23.001 -50l-25.5 -51l-17.5 -33c6.66699 0 17.334 -0.5 32.001 -1.5s29.834 -2.16699 45.501 -3.5s30.334 -2.66602 44.001 -3.99902s23.167 -3 28.5 -5
c7.33301 -2 11 -7.33301 11 -16zM694.999 506.998c-65.333 2 -130.002 3 -194.002 3h-61l-68.5 -120.5l-65.5 -122.5c44.667 2.66699 89.334 4.16699 134.001 4.5s89.334 0.5 134.001 0.5l59.5 118z" />
    <glyph glyph-name="dollar" unicode="$" horiz-adv-x="533" 
d="M636 678c0 -4.66699 -2.67285 -9.00586 -8.00586 -13.0059c-9.33301 -6 -20.666 -11 -33.999 -15s-27.5 -7.33301 -42.5 -10s-29.667 -4.83398 -44 -6.50098s-27.166 -2.83398 -38.499 -3.50098l-22.5 -101l-23.5 -101c11.333 -9.33301 22.666 -19.166 33.999 -29.499
s21.666 -21.5 30.999 -33.5s16.833 -24.833 22.5 -38.5s8.5 -28.167 8.5 -43.5c0 -20.667 -5 -41 -15 -61s-23 -38.333 -39 -55s-33.667 -31.334 -53 -44.001s-38.333 -22 -57 -28c-3.33301 -15.333 -6 -30.666 -8 -45.999s-4.33301 -30.666 -7 -45.999
c-1.33301 -7.33301 -2.16602 -15.166 -2.49902 -23.499s-1.5 -16.166 -3.5 -23.499s-6.66699 -11 -14 -11s-12 4 -14 12c-1.33301 7.33301 -2 15.5 -2 24.5v24.5c0 13.333 0.333008 26.666 1 39.999s1.66699 26.666 3 39.999c-11.333 -2 -24.666 -2.33301 -39.999 -1
c-2 -14.667 -4.16699 -29.167 -6.5 -43.5s-4.5 -29.166 -6.5 -44.499c-1.33301 -6 -2.16602 -12.667 -2.49902 -20s-1.16602 -14.333 -2.49902 -21c-3.33301 -7.33301 -8.33301 -11 -15 -11c-7.33301 0 -12 4 -14 12c-1.33301 7.33301 -2 15.5 -2 24.5v24.5
c0 14.667 0.5 29.167 1.5 43.5s2.16699 28.5 3.5 42.5c-19.333 5.33301 -37.666 13 -54.999 23s-32.5 22.167 -45.5 36.5s-23.167 30.5 -30.5 48.5s-11 37.667 -11 59c0 10.667 1.16699 22.334 3.5 35.001s5.83301 25.167 10.5 37.5s10.167 24.166 16.5 35.499
s13.166 21 20.499 29c2.66699 4 6 6 10 6c10.667 0 16 -5.33301 16 -16c0 -2 -0.666992 -4.33301 -2 -7c-11.333 -17.333 -20.666 -35.166 -27.999 -53.499s-11 -38.5 -11 -60.5c0 -34 10.833 -62 32.5 -84s48.167 -37.333 79.5 -46c8.66699 54 19.5 107.833 32.5 161.5
l39.5 160.5c-14 12.667 -25 27.834 -33 45.501s-12 35.834 -12 54.501c0 12 2.33301 24.833 7 38.5s11.667 24.834 21 33.501c8 7.33301 19 14.5 33 21.5s26.333 12.167 37 15.5c5.33301 19.333 10 38.5 14 57.5s8.33301 38.167 13 57.5c1.33301 7.33301 2.83301 17 4.5 29
s3.83398 20.667 6.50098 26c2 6.66699 6.33301 10 13 10c3.33301 0 6.5 -1.33301 9.5 -4s4.5 -5.66699 4.5 -9c0 -7.33301 -0.833008 -15.166 -2.5 -23.499s-3.16699 -16.166 -4.5 -23.499l-9.5 -55.5c-3 -18.333 -6.16699 -36.5 -9.5 -54.5
c8 1.33301 16 2.16602 24 2.49902s16.333 0.833008 25 1.5l12.5 52.5c4.33301 17.667 8.16602 35.5 11.499 53.5c1.33301 6 2.83301 14.5 4.5 25.5s3.5 19.167 5.5 24.5c2.66699 6.66699 7 10 13 10c3.33301 0 6.5 -1.33301 9.5 -4s4.5 -5.66699 4.5 -9
c0 -7.33301 -0.666992 -15 -2 -23l-4 -23l-9.5 -53.5l-9.5 -53.5h32c18 0 35.667 0.833008 53 2.5s34.666 5.5 51.999 11.5c0.666992 0 1.33398 0.166992 2.00098 0.5s1.33398 0.5 2.00098 0.5c4.66699 0 8.5 -1.83301 11.5 -5.5s4.5 -7.5 4.5 -11.5zM429.994 626.994
c-8 -1.33301 -16 -2.5 -24 -3.5s-16 -2.5 -24 -4.5c-5.33301 -22.667 -10.333 -45 -15 -67s-9.66699 -44.333 -15 -67l17.5 -14l16.5 -14l22 84.5zM338.994 601.994c-18 -11.333 -27 -27.334 -27 -48.001c0 -9.33301 2.33301 -19.666 7 -30.999zM466.994 281.993
c0 20.667 -5.99707 37.6689 -17.9971 51.002s-25 26.333 -39 39c-8.66699 -37.333 -16.834 -74.333 -24.501 -111s-14.834 -73.667 -21.501 -111c11.333 5.33301 23.166 12.666 35.499 21.999s23.5 20 33.5 32s18.167 24.667 24.5 38s9.5 26.666 9.5 39.999z
M372.997 400.995l-17.4971 13l-17.5 13l-33 -149c-10.667 -49.333 -20.334 -99 -29.001 -149h2c13.333 0 25.333 1.33301 36 4c7.33301 45.333 16.166 90.333 26.499 135s21.166 89 32.499 133z" />
    <glyph glyph-name="percent" unicode="%" horiz-adv-x="658" 
d="M390 640c0 -20 -3.33398 -39.665 -10.001 -58.998s-16 -36.833 -28 -52.5s-26.667 -28.334 -44 -38.001s-36.666 -14.5 -57.999 -14.5c-14 0 -28 2.33301 -42 7s-26.5 11.167 -37.5 19.5s-19.833 18.666 -26.5 30.999s-10 26.5 -10 42.5c0 18 2.83301 35.667 8.5 53
s13.834 33.166 24.501 47.499s23.167 27.166 37.5 38.499s30.166 20 47.499 26h1c4.66699 3.33301 10.5 5.66602 17.5 6.99902s12.5 2 16.5 2c14 0 27.167 -3.16699 39.5 -9.5s23.333 -14.666 33 -24.999s17.167 -22.166 22.5 -35.499s8 -26.666 8 -39.999zM628.999 716.002
c0 -0.666992 -0.666992 -2.83203 -2 -6.49902s-2.66602 -7.66699 -3.99902 -12s-2.83301 -8.5 -4.5 -12.5s-2.5 -6.33301 -2.5 -7c-22 -56.667 -48.167 -111.167 -78.5 -163.5l-94.5 -156.5c-62.667 -98.667 -131.334 -194.334 -206.001 -287.001l-39 -47l-39 -47
c-2.66699 -2.66699 -5.66699 -4 -9 -4c-4 0 -7.83301 1.5 -11.5 4.5s-5.5 6.83301 -5.5 11.5c0 1.33301 0.666992 3.33301 2 6l44.5 62.5l44.5 61.5l90 132l86 134c23.333 38 45.666 76.667 66.999 116l66 117l31.5 56c11 19.333 23.167 37 36.5 53c2 4 5.33301 6 10 6
s8.83398 -1.66699 12.501 -5s5.5 -7.33301 5.5 -12zM667.999 118.004c0 -20 -3.33398 -39.668 -10.001 -59.001s-16 -36.833 -28 -52.5s-26.667 -28.334 -44 -38.001s-36.666 -14.5 -57.999 -14.5c-14 0 -28 2.16699 -42 6.5s-26.5 10.833 -37.5 19.5
s-19.833 19.167 -26.5 31.5s-10 26.166 -10 41.499c0 38.667 10.833 72.334 32.5 101.001s50.167 50.334 85.5 65.001c6 2.66699 11.667 4.66699 17 6s11.333 2 18 2c14 0 27.167 -3.16699 39.5 -9.5s23.333 -14.666 33 -24.999s17.167 -22 22.5 -35s8 -26.167 8 -39.5z
M334.998 631.003c0 23.333 -6.33301 42.6699 -19 58.0029s-31 23 -55 23c-7.33301 -4 -15 -8.66699 -23 -14c-16.667 -12.667 -31 -28.334 -43 -47.001s-17.667 -38.667 -17 -60l1 -11c0.666992 -18.667 7.5 -32.334 20.5 -41.001s27.833 -13 44.5 -13
c14.667 0 27.667 3 39 9s20.833 14 28.5 24s13.5 21.167 17.5 33.5s6 25.166 6 38.499zM612.998 109.007c0 23.333 -6.33398 42.666 -19.001 57.999s-31 23 -55 23c-11.333 -6 -22 -13.167 -32 -21.5s-18.833 -17.833 -26.5 -28.5s-13.667 -22.167 -18 -34.5
s-6.16602 -24.833 -5.49902 -37.5v-11c0.666992 -18 7.5 -31.333 20.5 -40s28.167 -13 45.5 -13c14 0 26.667 3 38 9s20.833 13.833 28.5 23.5s13.5 20.834 17.5 33.501s6 25.667 6 39z" />
    <glyph glyph-name="ampersand" unicode="&#x26;" horiz-adv-x="607" 
d="M607 306c0 -41.333 -8.6709 -80.333 -26.0039 -117s-40.333 -69.334 -69 -98.001c13.333 -20 26.833 -39 40.5 -57s28.167 -36 43.5 -54c3.33301 -3.33301 5 -7.33301 5 -12c0 -4 -1.33301 -7.5 -4 -10.5s-6 -4.5 -10 -4.5c-5.33301 0 -13.166 4.83301 -23.499 14.5
s-21 20.667 -32 33s-21.333 24.5 -31 36.5s-16.167 20.333 -19.5 25c-30 -23.333 -62.833 -42 -98.5 -56s-72.5 -21 -110.5 -21c-12 0 -25 1 -39 3s-27.833 5 -41.5 9s-26.667 9 -39 15s-23.5 13 -33.5 21c-11.333 8.66699 -21.166 19.5 -29.499 32.5s-15.333 27 -21 42
s-10 30.167 -13 45.5s-4.5 30 -4.5 44c0 34.667 8.83301 66 26.5 94s39.834 53 66.501 75s55.5 41.833 86.5 59.5l86.5 49.5c-1.33301 11.333 -3 22.5 -5 33.5s-3 22.167 -3 33.5c0 22.667 2.83301 45.167 8.5 67.5s14 43.5 25 63.5s24.667 38.167 41 54.5
s35.166 29.166 56.499 38.499c6 2.66699 12.167 4.83398 18.5 6.50098s12.833 2.5 19.5 2.5c22.667 0 42.167 -7.33301 58.5 -22s24.5 -33.667 24.5 -57c0 -16 -2.5 -32 -7.5 -48s-11.667 -31.5 -20 -46.5s-17.666 -29.167 -27.999 -42.5s-20.833 -25.333 -31.5 -36
c-14.667 -14.667 -30.167 -27.667 -46.5 -39s-33.166 -22.333 -50.499 -33c10.667 -57.333 25.334 -113.5 44.001 -168.5s42.667 -107.833 72 -158.5c24.667 25.333 44.667 53.833 60 85.5s23 65.5 23 101.5c0 9.33301 -0.666992 18.333 -2 27s-3 17.667 -5 27v4
c0 4 1.33301 7.5 4 10.5s6 4.5 10 4.5c8 0 13 -4 15 -12c3.33301 -9.33301 5.66602 -20.166 6.99902 -32.499s2 -23.5 2 -33.5zM507.996 694c0 11.333 -2.99902 18.666 -8.99902 21.999s-14 5 -24 5c-4.66699 0 -8.33398 -1 -11.001 -3
c-32.667 -18.667 -57.5 -42.667 -74.5 -72s-25.5 -63 -25.5 -101c0 -14 1 -27.333 3 -40c12.667 7.33301 25 15.333 37 24s23 18.334 33 29.001c8 8 16.167 17.5 24.5 28.5s16 22.5 23 34.5s12.667 24.333 17 37s6.5 24.667 6.5 36zM458.997 94
c-33.333 50 -60.832 102.668 -82.499 158.001s-38.5 112.333 -50.5 171l-71.5 -40c-26.333 -14.667 -51 -31.334 -74 -50.001s-42.5 -39.5 -58.5 -62.5s-24 -48.5 -24 -76.5c0 -10.667 1 -22 3 -34s5.16699 -23.833 9.5 -35.5s9.66602 -22.667 15.999 -33
s13.5 -18.833 21.5 -25.5c16.667 -13.333 36.5 -23.333 59.5 -30s45.167 -10 66.5 -10c34 0 66.833 6.16699 98.5 18.5s60.5 28.833 86.5 49.5z" />
    <glyph glyph-name="quotesingle" unicode="'" horiz-adv-x="129" 
d="M283 728c0 -12.667 -3.66699 -24.667 -11 -36l-8.5 -12.5c-3 -4.33301 -5.83301 -8.83301 -8.5 -13.5c-14 -24.667 -29.333 -48 -46 -70c-0.666992 0 -1.5 -0.166992 -2.5 -0.5s-1.83301 -0.5 -2.5 -0.5c-1.33301 0 -4.66602 2.33301 -9.99902 7
s-8.66602 7.66699 -9.99902 9c3.33301 16.667 8.83301 35.667 16.5 57s16.167 39.333 25.5 54c3.33301 5.33301 8.66602 11 15.999 17s14 9 20 9c5.33301 0 10.166 -1.83301 14.499 -5.5s6.5 -8.5 6.5 -14.5z" />
    <glyph glyph-name="parenleft" unicode="(" horiz-adv-x="284" 
d="M479 716c0 -3.33301 -1.66992 -6.66797 -5.00293 -10.001c-11.333 -9.33301 -23.166 -17.833 -35.499 -25.5s-24.5 -16.167 -36.5 -25.5c-39.333 -30 -75.333 -63 -108 -99s-59.667 -76.667 -81 -122c-15.333 -33.333 -26.666 -67.666 -33.999 -102.999s-11 -71 -11 -107
c0 -41.333 4.66699 -80.5 14 -117.5s23.333 -73.5 42 -109.5c0.666992 -1.33301 1 -3.33301 1 -6c0 -4 -1.83301 -7.5 -5.5 -10.5s-7.5 -4.5 -11.5 -4.5s-7.33301 2 -10 6c-12.667 16.667 -23.667 36 -33 58s-17.166 44.667 -23.499 68s-11 46.833 -14 70.5
s-4.5 45.834 -4.5 66.501c0 52 8.16699 103.667 24.5 155s39.166 99 68.499 143s64.833 82.833 106.5 116.5s87.834 58.5 138.501 74.5h2c4.66699 0 8.5 -1.83301 11.5 -5.5s4.5 -7.83398 4.5 -12.501z" />
    <glyph glyph-name="parenright" unicode=")" horiz-adv-x="290" 
d="M321 523c0 -35.333 -5.00195 -70.665 -15.002 -105.998s-23.5 -70 -40.5 -104s-36.833 -67.167 -59.5 -99.5s-47 -63 -73 -92s-52.667 -55.833 -80 -80.5s-54.333 -47 -81 -67c-3.33301 -2 -5.66602 -3 -6.99902 -3c-4.66699 0 -8.5 1.83301 -11.5 5.5
s-4.5 7.5 -4.5 11.5s1.33301 7 4 9l33.5 31c11 10 21.833 20.667 32.5 32c44 44.667 84.5 92.334 121.5 143.001s67.833 105 92.5 163c10.667 24 18.834 48.667 24.501 74s8.5 51 8.5 77c0 30 -4.33301 59.333 -13 88s-22.334 55 -41.001 79
c-3.33301 5.33301 -7.16602 10.166 -11.499 14.499l-13.5 13.5l-2 4c-0.666992 1.33301 -1 2.66602 -1 3.99902c0 4 1.66699 8 5 12s7.33301 6 12 6c1.33301 0 3.33301 -0.666992 6 -2c38 -22 66.5 -52.333 85.5 -91s28.5 -79.334 28.5 -122.001z" />
    <glyph glyph-name="asterisk" unicode="*" horiz-adv-x="258" 
d="M391 649c0 -16 -5.32812 -28.166 -15.9951 -36.499s-21.667 -16.166 -33 -23.499c-7.33301 -4.66699 -14.833 -8.83398 -22.5 -12.501s-15.5 -7.16699 -23.5 -10.5l17.5 -14l17.5 -14c3.33301 -3.33301 7.83301 -6.83301 13.5 -10.5s11.167 -7.66699 16.5 -12
s10 -9 14 -14s6 -10.167 6 -15.5c0 -3.33301 -1 -6.5 -3 -9.5s-3.66699 -5.83301 -5 -8.5c-6 -2 -11.667 -3 -17 -3c-8.66699 0 -17.667 2.83301 -27 8.5s-18.333 12.667 -27 21s-16.667 17 -24 26s-13.333 17.167 -18 24.5c-3.33301 -6.66699 -7 -12.834 -11 -18.501
s-8 -11.834 -12 -18.501c-3.33301 -5.33301 -6.66602 -11.166 -9.99902 -17.499s-7 -12.166 -11 -17.499s-8.5 -10 -13.5 -14s-11.167 -6 -18.5 -6s-12 3.5 -14 10.5s-3 13.167 -3 18.5c0 7.33301 2.16699 15.333 6.5 24s9.66602 17.167 15.999 25.5s13 16.166 20 23.499
s13.167 13.333 18.5 18l-23 12.5l-23 12.5c-4 2.66699 -8.33301 4.83398 -13 6.50098s-9.33398 3.83398 -14.001 6.50098c-10.667 4.66699 -20 12 -28 22c-2.66699 5.33301 -4 10.666 -4 15.999c0 6.66699 3.83301 11.167 11.5 13.5s14.167 3.5 19.5 3.5
c6.66699 0 14.167 -1.83301 22.5 -5.5s16.666 -8.16699 24.999 -13.5s16.166 -11 23.499 -17s13.333 -11.333 18 -16v18.5c0 6.33301 -0.333008 12.5 -1 18.5c0 6 -0.5 12 -1.5 18s-1.5 12.333 -1.5 19c0 4 0.333008 8.33301 1 13s2 9.16699 4 13.5s4.5 8 7.5 11
s7.16699 4.5 12.5 4.5c0 -0.666992 0.333008 -1 1 -1h2c9.33301 -4 16.333 -11.5 21 -22.5s7 -21.167 7 -30.5c0 -10.667 -0.5 -21.334 -1.5 -32.001s-2.83301 -21 -5.5 -31l25 18c3.33301 2.66699 7.16602 6.16699 11.499 10.5s9 8.5 14 12.5s10.167 7.33301 15.5 10
s10.333 4 15 4c1.33301 0 5.16602 -1.83301 11.499 -5.5s9.83301 -6.16699 10.5 -7.5v-6z" />
    <glyph glyph-name="plus" unicode="+" horiz-adv-x="492" 
d="M564 392c0 -3.33301 -0.833984 -6.49902 -2.50098 -9.49902s-4.16699 -4.83301 -7.5 -5.5c-7.33301 -2 -16.833 -3.16699 -28.5 -3.5s-21.167 -0.833008 -28.5 -1.5l-69 -4c-22.667 -1.33301 -45.667 -2.33301 -69 -3c0 -14 0.333008 -28 1 -42s1 -28 1 -42
c0 -7.33301 -0.166992 -16.166 -0.5 -26.499s-1.16602 -20.833 -2.49902 -31.5s-3 -21 -5 -31s-4.66699 -18.333 -8 -25c-1.33301 -2.66699 -3.5 -4.66699 -6.5 -6s-5.83301 -2 -8.5 -2s-5.5 0.666992 -8.5 2s-5.16699 3.66602 -6.5 6.99902
c-2 5.33301 -3.66699 12.5 -5 21.5s-2.33301 18.333 -3 28s-1.16699 19 -1.5 28s-0.5 16.5 -0.5 22.5c0 16 0.333008 32 1 48l2 48c-14 -0.666992 -28 -1.16699 -42 -1.5s-27.667 -0.5 -41 -0.5c-7.33301 0 -16.333 0.166992 -27 0.5s-21.334 1.16602 -32.001 2.49902
s-21 3 -31 5s-18 4.66699 -24 8c-6 2.66699 -9 7.66699 -9 15c0 2.66699 0.833008 5.5 2.5 8.5s4.16699 5.16699 7.5 6.5c4.66699 2 11.5 3.66699 20.5 5s18.333 2.16602 28 2.49902l28.5 1c9.33301 0.333008 17 0.5 23 0.5c16 0 32 -0.166992 48 -0.5s32 -0.833008 48 -1.5
l2 69c0.666992 22.667 1.66699 45.667 3 69c0.666992 7.33301 1 17 1 29s0.666992 21.333 2 28c1.33301 3.33301 3.33301 5.83301 6 7.5s5.66699 2.5 9 2.5s6.33301 -0.833008 9 -2.5s4.66699 -4.16699 6 -7.5c2 -7.33301 3.16699 -16.666 3.5 -27.999s0.833008 -21 1.5 -29
c1.33301 -23.333 2.5 -46.333 3.5 -69s2.16699 -45.667 3.5 -69l69.5 -2c23 -0.666992 46.167 -1.66699 69.5 -3c7.33301 -0.666992 16.833 -1 28.5 -1s20.834 -0.666992 27.501 -2c3.33301 -1.33301 6 -3.33301 8 -6s3 -5.66699 3 -9z" />
    <glyph glyph-name="comma" unicode="," horiz-adv-x="117" 
d="M35 7c0 -10 -2.16699 -20.333 -6.5 -31s-9.66602 -21.167 -15.999 -31.5s-13 -20.166 -20 -29.499l-19.5 -25c0 -0.666992 -0.666992 -1 -2 -1c-0.666992 0 -1.33398 -0.333008 -2.00098 -1c-2 0 -5.5 2.33301 -10.5 7s-8.16699 7.66699 -9.5 9
c3.33301 16.667 8.33301 32.5 15 47.5s11.667 30.167 15 45.5l-10 10c-3.33301 3.33301 -5 7.66602 -5 12.999c0 11.333 1 20.666 3 27.999s10 11 24 11c5.33301 0 9.83301 -1.16699 13.5 -3.5s7.16699 -5.16602 10.5 -8.49902c6.66699 -6.66699 11.667 -12.5 15 -17.5
s5 -12.5 5 -22.5z" />
    <glyph glyph-name="hyphen" unicode="-" horiz-adv-x="503" 
d="M564 392c0 -3.33301 -0.831055 -6.49707 -2.49805 -9.49707s-4.16699 -4.83301 -7.5 -5.5c-8 -2 -19.333 -3.33301 -34 -4s-26.667 -1.33398 -36 -2.00098c-28 -2 -56.167 -3.5 -84.5 -4.5s-56.833 -1.83301 -85.5 -2.5c-15.333 0 -30.333 -0.333008 -45 -1
s-29.334 -1 -44.001 -1c-7.33301 0 -16.166 0.166992 -26.499 0.5s-21 1.16602 -32 2.49902s-21.333 3 -31 5s-17.834 4.66699 -24.501 8c-2.66699 1.33301 -4.83398 3.5 -6.50098 6.5s-2.5 5.83301 -2.5 8.5s0.833008 5.5 2.5 8.5s4.16699 5.16699 7.5 6.5
c5.33301 2 12.333 3.66699 21 5s17.834 2.16602 27.501 2.49902l28.5 1c9.33301 0.333008 17 0.5 23 0.5c17.333 0 34.333 -0.333008 51 -1s33.667 -1 51 -1c28.667 0 57 -0.5 85 -1.5s56.333 -2.16699 85 -3.5h16.5c6.33301 0 12.666 -0.166992 18.999 -0.5l18.5 -1
c6 -0.333008 11 -0.833008 15 -1.5c7.33301 -2.66699 11 -7.66699 11 -15z" />
    <glyph glyph-name="period" unicode="." horiz-adv-x="117" 
d="M35 22c0 -3.33301 -1.99805 -7.66504 -5.99805 -12.998l-1 -2c1.33301 -2.66699 2 -5.33398 2 -8.00098c-4.66699 -3.33301 -7.83398 -6.83301 -9.50098 -10.5s-6.16699 -5.5 -13.5 -5.5c-6.66699 0 -12.834 2.5 -18.501 7.5s-8.5 10.833 -8.5 17.5
c0 11.333 1 20.666 3 27.999s10 11 24 11c6 0 12.167 -2.33301 18.5 -7s9.5 -10.667 9.5 -18z" />
    <glyph glyph-name="slash" unicode="/" horiz-adv-x="287" 
d="M471 749c-24.667 -65.333 -54.9971 -127.168 -90.9971 -185.501s-73.667 -116.166 -113 -173.499c-34 -50 -69.333 -98.667 -106 -146s-74.667 -94 -114 -140l-40.5 -47.5l-42.5 -46.5c-2 -2.66699 -5 -4 -9 -4s-7.66699 1.66699 -11 5s-5 7 -5 11
c0 3.33301 0.666992 5.66602 2 6.99902l47 61.5l47 62.5l97 131.5l93 134.5c25.333 38 49.666 76.667 72.999 116l71 117l35.5 56c12.333 18.667 25.166 36.334 38.499 53.001c3.33301 3.33301 6.66602 5 9.99902 5c5.33301 0 9.5 -1.66699 12.5 -5
s4.83301 -7.33301 5.5 -12z" />
    <glyph glyph-name="zero" unicode="0" horiz-adv-x="508" 
d="M549 543c0 -27.333 -1.49805 -54.168 -4.49805 -80.501s-7.16699 -52.833 -12.5 -79.5c-0.666992 -4 -1.33398 -8.33301 -2.00098 -13s-1.66699 -9 -3 -13c0 -1.33301 -0.166992 -2.16602 -0.5 -2.49902s-0.5 -0.833008 -0.5 -1.5v-3
c0 -15.333 -1.83301 -32.333 -5.5 -51s-8.5 -37.5 -14.5 -56.5s-12.5 -37.333 -19.5 -55s-13.833 -33.5 -20.5 -47.5c-8 -17.333 -17.167 -34.666 -27.5 -51.999s-22 -33.5 -35 -48.5s-27.667 -28 -44 -39s-34.5 -18.5 -54.5 -22.5c-3.33301 -0.666992 -7 -1.16699 -11 -1.5
s-7.66699 -0.5 -11 -0.5c-35.333 0 -65.166 11 -89.499 33s-44 49 -59 81s-25.833 65.833 -32.5 101.5s-10 67.5 -10 95.5c0 46.667 5.66699 94.167 17 142.5s28.166 94 50.499 137s50.166 82.167 83.499 117.5s71.666 64 114.999 86c8.66699 4 17.334 6.83301 26.001 8.5
s17.667 2.5 27 2.5c30 0 54 -8.16699 72 -24.5s31.833 -36.5 41.5 -60.5s16.167 -49.833 19.5 -77.5s5 -52.834 5 -75.501zM513.002 521.998c0 16 -0.999023 36.1709 -2.99902 60.5039s-6.33301 48 -13 71s-16.5 42.833 -29.5 59.5s-30.5 25 -52.5 25c-14 0 -27 -3 -39 -9
c-37.333 -18.667 -70.5 -44.334 -99.5 -77.001s-53.333 -68.834 -73 -108.501s-34.667 -81.334 -45 -125.001s-15.5 -85.5 -15.5 -125.5c0 -54 9.66699 -106 29 -156c4 -10.667 9.5 -22.167 16.5 -34.5s15.333 -23.833 25 -34.5s20.167 -19.5 31.5 -26.5
s23.666 -10.5 36.999 -10.5c16 0 31 4.5 45 13.5s26.833 20.167 38.5 33.5s22.167 27.666 31.5 42.999s17.333 29 24 41c11.333 20 21.333 40.667 30 62s16.667 42.666 24 63.999c3.33301 11.333 6.5 22.666 9.5 33.999s6.83301 22.333 11.5 33
c0 0.666992 0.166992 1.16699 0.5 1.5s0.5 0.833008 0.5 1.5v2l1 2c2 26.667 5 53.334 9 80.001s6 53.334 6 80.001z" />
    <glyph glyph-name="one" unicode="1" horiz-adv-x="314" 
d="M365 757c0 -5.33301 -0.996094 -11.001 -2.99609 -17.001s-4.33301 -11.333 -7 -16c-8.66699 -54.667 -21.167 -108.334 -37.5 -161.001l-47.5 -158l-52.5 -174l-52.5 -174c3.33301 0.666992 8.66602 1 15.999 1s14.833 -1.16699 22.5 -3.5s11.5 -8.5 11.5 -18.5
c0 -2 -0.333008 -3.33301 -1 -4c-7.33301 -9.33301 -16.333 -16.666 -27 -21.999s-22.334 -9.5 -35.001 -12.5s-25.5 -4.83301 -38.5 -5.5s-24.833 -1 -35.5 -1c-9.33301 0 -19.166 0.166992 -29.499 0.5s-20.166 1.83301 -29.499 4.5c-6 1.33301 -9 5.33301 -9 12
c0 3.33301 1.16699 6.5 3.5 9.5s4.16602 5.5 5.49902 7.5c16 3.33301 34.5 6.66602 55.5 9.99902s39.167 7.33301 54.5 12c13.333 62.667 27.666 124.834 42.999 186.501s31.666 123.5 48.999 185.5l35 128c11.333 42.667 25 85 41 127
c-12.667 -7.33301 -27.667 -13.833 -45 -19.5s-33.333 -8.5 -48 -8.5c-1.33301 0 -3.83301 2.66699 -7.5 8s-5.5 9 -5.5 11c0 3.33301 2 6.33301 6 9l41 22.5c13.333 7.66699 26.666 16.167 39.999 25.5c5.33301 3.33301 9.83301 7 13.5 11l11.5 13
c4 4 10.5 9.33301 19.5 16s16.5 10 22.5 10c1.33301 0 5 -2.16699 11 -6.5s9 -7.16602 9 -8.49902z" />
    <glyph glyph-name="two" unicode="2" horiz-adv-x="594" 
d="M665 44c0 -4 -1 -7.33105 -3 -9.99805c-18.667 -29.333 -44.167 -51 -76.5 -65s-65.166 -21 -98.499 -21c-20.667 0 -43.334 3.16699 -68.001 9.5s-49.834 14 -75.501 23s-50.5 18.5 -74.5 28.5s-46 18.667 -66 26c-9.33301 3.33301 -19 6.5 -29 9.5s-20.333 4.5 -31 4.5
c-22 0 -43.5 -7.16699 -64.5 -21.5s-38.167 -30.166 -51.5 -47.499l-1 14c-3.33301 -0.666992 -6.5 -1.33398 -9.5 -2.00098s-6.16699 -1 -9.5 -1c-5.33301 0 -9.5 1 -12.5 3s-6.5 4.66699 -10.5 8h1l-5 4l6 8v-4l4 5h-4l162 177c32.667 35.333 67.334 67.833 104.001 97.5
l109 91.5c36 30 68.667 61.167 98 93.5s55 69.5 77 111.5c4.66699 8.66699 8.33398 17.167 11.001 25.5s4 17.5 4 27.5c0 13.333 -2.33301 26 -7 38s-11.167 22.667 -19.5 32s-18.333 16.666 -30 21.999s-24.167 8 -37.5 8c-5.33301 0 -9.83301 -0.333008 -13.5 -1
s-7.83398 -1.33398 -12.501 -2.00098c-6 -1.33301 -11.833 -2.16602 -17.5 -2.49902s-11.167 -1.16602 -16.5 -2.49902c-30.667 -6 -59.667 -17.333 -87 -34s-50.666 -37 -69.999 -61c-4.66699 -6 -8.83398 -11.833 -12.501 -17.5l-11.5 -17.5
c-4 -5.33301 -8.33301 -8 -13 -8c-4 0 -7.5 1.5 -10.5 4.5s-4.5 6.5 -4.5 10.5c0 3.33301 0.333008 5.66602 1 6.99902c12.667 23.333 28.5 44.833 47.5 64.5s40 36.5 63 50.5s47.5 25 73.5 33s52.333 12 79 12c42 0 76 -11.667 102 -35s39 -56.666 39 -99.999
c0 -24.667 -5.66699 -49 -17 -73c-16 -34 -35 -65 -57 -93s-45.667 -54.5 -71 -79.5s-52 -49 -80 -72l-83 -69.5c-28 -24 -53.667 -48.333 -77 -73l-73 -77h7c13.333 0.666992 26.833 -0.5 40.5 -3.5s27.167 -7.16699 40.5 -12.5c18.667 -7.33301 40.167 -16.333 64.5 -27
s49.333 -20.834 75 -30.501s50.667 -17.834 75 -24.501s46.5 -10 66.5 -10c28 0 52.333 4.83301 73 14.5s41 24.167 61 43.5c4 4 8 6 12 6s7.5 -1.5 10.5 -4.5s4.5 -6.5 4.5 -10.5z" />
    <glyph glyph-name="three" unicode="3" horiz-adv-x="588" 
d="M588 311c0 -44 -9.3291 -87.8301 -27.9961 -131.497s-43.667 -82.834 -75 -117.501s-67.666 -62.834 -108.999 -84.501s-84.666 -32.5 -129.999 -32.5c-37.333 0 -71.166 7.33301 -101.499 22s-57.666 33.667 -81.999 57s-45.666 50 -63.999 80s-34.5 60.333 -48.5 91
c-0.666992 0.666992 -1 2.33398 -1 5.00098c0 4.66699 1.66699 8.16699 5 10.5s7 3.5 11 3.5c4.66699 0 8.66699 -2 12 -6l15.5 -27.5c5 -9 10.167 -17.833 15.5 -26.5c10.667 -17.333 22.667 -34.5 36 -51.5s27.666 -32.5 42.999 -46.5s32 -26.333 50 -37
s37.333 -18.334 58 -23.001c15.333 -3.33301 29.666 -5 42.999 -5c38.667 0 75.667 9.33301 111 28s66.666 43 93.999 73s49.166 63.667 65.499 101s24.5 75 24.5 113c0 6.66699 -0.333008 13.167 -1 19.5s-1.33398 13.166 -2.00098 20.499l-2 17.5
c-0.666992 5.66699 -2.33398 11.167 -5.00098 16.5c-4.66699 12.667 -11.667 23.5 -21 32.5s-19.833 16 -31.5 21s-24 8.66699 -37 11s-25.833 3.5 -38.5 3.5c-11.333 0 -21.833 -1 -31.5 -3s-19.167 -3 -28.5 -3c-3.33301 0 -6.66602 2 -9.99902 6s-5 7.66699 -5 11
c0 6 2.66699 10 8 12c5.33301 3.33301 10.333 5.83301 15 7.5s9.66699 3.83398 15 6.50098c20 9.33301 39.167 19.833 57.5 31.5s35.166 25.167 50.499 40.5l22.5 22c8.33301 8 15.833 16.5 22.5 25.5s12.334 18.5 17.001 28.5s7 20 7 30c0 25.333 -7.33301 42.333 -22 51
s-33.334 13 -56.001 13c-11.333 0 -22.833 -0.833008 -34.5 -2.5s-23.167 -3.83398 -34.5 -6.50098c-26.667 -6 -51.834 -15.667 -75.501 -29s-45.167 -29 -64.5 -47c-4.66699 -4 -8.83398 -8 -12.501 -12l-11.5 -12c-4 -2.66699 -6.66699 -4 -8 -4c-4 0 -8 1.66699 -12 5
s-6 7 -6 11c0 2.66699 1 5 3 7c14.667 20 31.667 38.5 51 55.5s40.333 31.5 63 43.5s46.5 21.333 71.5 28s50.167 10 75.5 10c4.66699 0 9.16699 -0.166992 13.5 -0.5s8.83301 -0.5 13.5 -0.5c15.333 0 29 -3.16699 41 -9.5s22.167 -14.666 30.5 -24.999
s14.666 -22.166 18.999 -35.499s6.5 -27 6.5 -41c0 -17.333 -3.66699 -34.5 -11 -51.5s-16.833 -33.333 -28.5 -49s-24.667 -29.834 -39 -42.501s-28.5 -23.334 -42.5 -32.001c22 -4 40.833 -11.5 56.5 -22.5s28.5 -24.5 38.5 -40.5s17.167 -33.667 21.5 -53
s6.5 -39.333 6.5 -60z" />
    <glyph glyph-name="four" unicode="4" horiz-adv-x="579" 
d="M641 411c-23.333 -32.667 -50.4941 -60.4971 -81.4941 -83.4971s-67.5 -36.167 -109.5 -39.5c-12 -40 -24.5 -79.333 -37.5 -118l-39.5 -118c-6.66699 -18.667 -13 -37.334 -19 -56.001s-12.667 -37.334 -20 -56.001c-2.66699 -4.66699 -6.66699 -7 -12 -7
c-3.33301 0 -7 1.5 -11 4.5s-6 6.16699 -6 9.5l2 7c0.666992 4 1.66699 8.66699 3 14s2.66602 10.333 3.99902 15s2.33301 7.66699 3 9l39.5 148.5l42.5 148.5c-27.333 2 -53.166 6 -77.499 12s-50.5 9 -78.5 9c-14 0 -26.167 -0.666992 -36.5 -2
s-20.333 -3.16602 -30 -5.49902s-19.334 -5.5 -29.001 -9.5l-32.5 -14h-3c-4 0 -8.33301 1.83301 -13 5.5s-7 7.5 -7 11.5c0 1.33301 0.333008 2 1 2c7.33301 19.333 16.5 38.666 27.5 57.999s22.833 38.333 35.5 57l39 55l38 53c20.667 30 40.334 60.333 59.001 91
s36.667 62 54 94c7.33301 13.333 14.166 26.5 20.499 39.5s13.166 26.167 20.499 39.5c2 4 5.33301 6 10 6c3.33301 0 7.16602 -1.66699 11.499 -5s6.5 -6.66602 6.5 -9.99902l-1 -4c-1.33301 -3.33301 -2.5 -6.66602 -3.5 -9.99902s-2.16699 -6.5 -3.5 -9.5
s-2 -4.83301 -2 -5.5c-16.667 -45.333 -35.834 -89 -57.501 -131s-45.834 -83 -72.501 -123l-44 -68c-14 -22.667 -29 -44.667 -45 -66c18.667 4 37.334 6 56.001 6c20.667 0 40.834 -1.83301 60.501 -5.5s39.167 -8.16699 58.5 -13.5
c8.66699 -2.66699 17.167 -4.83398 25.5 -6.50098s16.833 -2.83398 25.5 -3.50098c8 27.333 17.333 55.833 28 85.5s22.667 58.834 36 87.501s28.166 56.167 44.499 82.5s34.166 50.166 53.499 71.499c2 2.66699 5 4 9 4s8 -1.5 12 -4.5s6 -6.83301 6 -11.5v-3
c-6 -15.333 -12.5 -30.333 -19.5 -45l-21.5 -45l-50 -108.5c-16.667 -36.333 -31.334 -73.5 -44.001 -111.5c23.333 4 45.833 11.5 67.5 22.5s41.167 24.833 58.5 41.5c4 3.33301 7.83301 7.16602 11.5 11.499s7.5 8.5 11.5 12.5c2 2.66699 4.66699 4 8 4
c5.33301 0 9.5 -2 12.5 -6s4.83301 -8.33301 5.5 -13z" />
    <glyph glyph-name="five" unicode="5" horiz-adv-x="546" 
d="M628 773c0 -6 -2.99609 -9.99902 -8.99609 -11.999c-13.333 -5.33301 -27.666 -10 -42.999 -14l-44 -11c-37.333 -9.33301 -73.333 -14 -108 -14c-16.667 0 -33.167 0.833008 -49.5 2.5s-32.833 3.83398 -49.5 6.50098c0 -3.33301 -2.16699 -10.666 -6.5 -21.999
s-9.83301 -24.833 -16.5 -40.5s-14.334 -32.5 -23.001 -50.5l-25 -51l-21.5 -42.5c-6.33301 -12.333 -10.833 -20.833 -13.5 -25.5c25.333 11.333 51.5 18.833 78.5 22.5s54.167 5.5 81.5 5.5c24 0 46.667 -5.16699 68 -15.5s39.833 -24.166 55.5 -41.499
s28 -37.166 37 -59.499s13.5 -45.166 13.5 -68.499c0 -25.333 -3.66699 -49.333 -11 -72s-17.166 -44.334 -29.499 -65.001s-26.5 -40.334 -42.5 -59.001s-32.667 -36.334 -50 -53.001c-34 -32.667 -70.167 -62.834 -108.5 -90.501s-78.166 -52.5 -119.499 -74.5
c-0.666992 -0.666992 -2.33398 -1 -5.00098 -1c-4.66699 0 -8.33398 1.83301 -11.001 5.5s-4 7.5 -4 11.5c0 3.33301 1.66699 6.66602 5 9.99902c10.667 8 21.5 15.5 32.5 22.5s22.167 14.5 33.5 22.5c26 19.333 51.167 39.333 75.5 60s47.5 42.667 69.5 66
c13.333 14 26.833 29.167 40.5 45.5s26 33.5 37 51.5s19.833 36.667 26.5 56s10 39 10 59c0 24 -4.16699 44.5 -12.5 61.5s-19.833 31 -34.5 42s-31.5 19.167 -50.5 24.5s-39.5 8 -61.5 8c-31.333 0 -61.333 -4.33301 -90 -13s-56.667 -20.667 -84 -36
c-2.66699 -1.33301 -5 -2 -7 -2c-3.33301 0 -7.33301 1.83301 -12 5.5s-7 7.16699 -7 10.5c0 4 2.5 12.833 7.5 26.5s10.833 28.334 17.5 44.001l19.5 45c6.33301 14.333 10.833 24.166 13.5 29.499l33.5 67.5l33.5 68.5c3.33301 6 7.16602 14.333 11.499 25
s8.5 18.667 12.5 24c1.33301 2 5 4.66699 11 8s10.667 5.66602 14 6.99902c2.66699 0 5.16699 -0.333008 7.5 -1s4.5 -1.33398 6.5 -2.00098c19.333 -4 38.666 -7.33301 57.999 -10s39 -4 59 -4c13.333 0 26.666 0.833008 39.999 2.5s26.666 3.5 39.999 5.5
c4 0.666992 10.167 1.83398 18.5 3.50098s17 3.5 26 5.5s17.333 3.66699 25 5s12.834 2 15.501 2c3.33301 0 6.66602 -2.16699 9.99902 -6.5s5 -7.83301 5 -10.5z" />
    <glyph glyph-name="six" unicode="6" horiz-adv-x="572" 
d="M572 354c0 -8 -0.832031 -15.3369 -2.49902 -22.0039s-3.83398 -13.667 -6.50098 -21l-10.5 -36c-3.66699 -12 -8.16699 -23.667 -13.5 -35c-26 -58.667 -62 -110.167 -108 -154.5s-96.667 -81.5 -152 -111.5c-1.33301 -1.33301 -2.66602 -2 -3.99902 -2
c-4 -2.66699 -7.33301 -4 -10 -4c-3.33301 0 -6 1 -8 3c-22.667 19.333 -41.834 41.333 -57.501 66s-28.5 51 -38.5 79s-17.167 56.667 -21.5 86s-6.5 58.333 -6.5 87c0 17.333 0.5 36.333 1.5 57s3.5 39.334 7.5 56.001c10 42.667 27 83.334 51 122.001
s51.667 74.834 83 108.501s65.333 64.667 102 93s73 53.5 109 75.5c2.66699 1.33301 4.66699 2 6 2c4.66699 0 8.33398 -1.83301 11.001 -5.5s4 -7.5 4 -11.5s-1.33301 -7.33301 -4 -10l-38 -28c-12.667 -9.33301 -25 -19 -37 -29c-24.667 -20 -48.667 -41.333 -72 -64
s-45 -46.667 -65 -72s-38 -52 -54 -80s-29 -57.333 -39 -88c28.667 24.667 57.5 42.167 86.5 52.5s61.833 18.166 98.5 23.499c5.33301 0.666992 10.166 1.33398 14.499 2.00098s9.16602 1 14.499 1c18.667 0 37.334 -3.66699 56.001 -11s35.667 -17.166 51 -29.499
s27.833 -27 37.5 -44s14.5 -35.5 14.5 -55.5zM521.001 353.996c0 14 -3.66797 26.833 -11.001 38.5s-16.666 21.5 -27.999 29.5s-23.666 14.333 -36.999 19s-26.333 7 -39 7c-40 0 -79 -7.33301 -117 -22s-71.333 -36 -100 -64c-2 -18 -3 -36 -3 -54
c0 -52.667 6.83301 -105 20.5 -157s34.834 -100.333 63.501 -145l69 66c32 30 62.167 61.5 90.5 94.5s51.166 69.5 68.499 109.5c3.33301 8 6.16602 16 8.49902 24s4.83301 16 7.5 24c2 5.33301 3.66699 10.333 5 15s2 9.66699 2 15z" />
    <glyph glyph-name="seven" unicode="7" horiz-adv-x="499" 
d="M683 759c0 -3.33301 -0.666016 -5.66797 -1.99902 -7.00098l-38.5 -48.5l-39.5 -46.5l-96 -115c-32 -38 -63 -77 -93 -117c-36.667 -50 -69 -102.167 -97 -156.5s-51.667 -110.833 -71 -169.5l-12 -38.5c-4 -12.333 -7.66699 -25.166 -11 -38.499
c-2 -8 -3.83301 -16 -5.5 -24s-3.5 -15.667 -5.5 -23c-2 -6 -6.33301 -9 -13 -9c-3.33301 0 -7 1.33301 -11 4s-6 5.66699 -6 9c0 4 0.666992 9.66699 2 17l4 23c1.33301 8 2.83301 15.667 4.5 23s3.16699 13.333 4.5 18c16 71.333 38.667 140 68 206s65 128.667 107 188
c34 47.333 69 93.5 105 138.5s75.333 87.167 118 126.5c-34 -8.66699 -68.833 -13.5 -104.5 -14.5s-70.834 -1.5 -105.501 -1.5c-29.333 0 -58.333 0.5 -87 1.5s-57.667 2.16699 -87 3.5c-10.667 0.666992 -21 1 -31 1s-20.333 0.333008 -31 1h-12.5
c-4.33301 0 -8.5 0.333008 -12.5 1c-3.33301 0.666992 -6 2.5 -8 5.5s-3 6.16699 -3 9.5s0.833008 6.33301 2.5 9s4.16699 4.66699 7.5 6c12.667 2.66699 27 4.16699 43 4.5s30.667 0.833008 44 1.5c35.333 2 70.5 3.33301 105.5 4s70.167 1.66699 105.5 3
c28 1.33301 55.333 3.5 82 6.5s53.667 6.5 81 10.5c12 1.33301 25.667 3.16602 41 5.49902s29 3.5 41 3.5c3.33301 0 7 -2.66699 11 -8s6 -9.66602 6 -12.999z" />
    <glyph glyph-name="eight" unicode="8" horiz-adv-x="560" 
d="M580 697c0 -6.66699 -0.664062 -13.002 -1.99707 -19.002s-3 -12 -5 -18l-6 -16.5c-2 -5.66699 -4.33301 -11.167 -7 -16.5c-6 -13.333 -13.833 -26 -23.5 -38s-20.5 -23 -32.5 -33s-24.667 -19 -38 -27s-26.333 -14.333 -39 -19c36 -32.667 65.333 -70.834 88 -114.501
s34 -90.167 34 -139.5c0 -35.333 -6.33301 -68.666 -19 -99.999s-30.167 -59.5 -52.5 -84.5s-48.333 -46 -78 -63s-61.5 -28.833 -95.5 -35.5c-11.333 -2.66699 -22.833 -4.66699 -34.5 -6s-23.5 -2 -35.5 -2c-6.66699 0 -13.334 0.333008 -20.001 1
s-13.334 1.66699 -20.001 3c-20 4 -37.667 12.833 -53 26.5s-28.166 29.5 -38.499 47.5s-18 37.333 -23 58s-7.5 40.334 -7.5 59.001c0 36.667 6 72.334 18 107.001s28.5 66.834 49.5 96.501s45.5 56.5 73.5 80.5s58 44.333 90 61
c-18.667 8.66699 -33.334 20.334 -44.001 35.001s-16 32.667 -16 54c0 17.333 4.33301 32.666 13 45.999c18.667 28 41.5 50.833 68.5 68.5s56.167 31.5 87.5 41.5c0.666992 0 2.83398 0.5 6.50098 1.5l11 3l10.5 3c3.33301 1 5.33301 1.5 6 1.5c4 0 7.5 -1.83301 10.5 -5.5
s4.5 -7.16699 4.5 -10.5c0 -6.66699 -2.66699 -11 -8 -13c-6 -2.66699 -12.167 -4.83398 -18.5 -6.50098s-12.5 -4.16699 -18.5 -7.5c-23.333 -9.33301 -46.333 -22.333 -69 -39s-40 -36.334 -52 -59.001c-4.66699 -8 -7 -16 -7 -24s1.83301 -15 5.5 -21s8.5 -11 14.5 -15
s12.667 -7 20 -9s14.333 -3 21 -3c34.667 0 66.5 10 95.5 30s51.167 45 66.5 75c3.33301 7.33301 7 16.333 11 27s6 20.334 6 29.001c0 6 -2.33301 11.167 -7 15.5s-10.334 8 -17.001 11s-13.5 5.5 -20.5 7.5s-12.5 4 -16.5 6c-6 2 -9 6.33301 -9 13
c0 3.33301 1.33301 7 4 11s5.66699 6 9 6c13.333 0 26.5 -1.16699 39.5 -3.5s24.667 -6.5 35 -12.5s18.666 -14.167 24.999 -24.5s9.5 -23.5 9.5 -39.5zM495.003 258.998c0 45.333 -10.498 88.334 -31.498 129.001s-46.167 77.667 -75.5 111l-30 -3
c-32 -14 -62.333 -32.333 -91 -55s-54 -48.167 -76 -76.5s-39.5 -59.333 -52.5 -93s-19.5 -68.834 -19.5 -105.501c0 -18.667 2 -35.834 6 -51.501s10.667 -31.5 20 -47.5c11.333 -18.667 24.166 -31.834 38.499 -39.501s32.166 -11.5 53.499 -11.5
c33.333 0 65.5 6.16699 96.5 18.5s58.5 29.333 82.5 51s43.167 47.334 57.5 77.001s21.5 61.834 21.5 96.501z" />
    <glyph glyph-name="nine" unicode="9" horiz-adv-x="551" 
d="M572 481c0 -17.333 -0.667969 -36.165 -2.00098 -56.498s-3.66602 -38.833 -6.99902 -55.5c-10 -43.333 -27 -84.333 -51 -123s-51.667 -74.667 -83 -108s-65.5 -64.166 -102.5 -92.499s-73.5 -53.5 -109.5 -75.5c-0.666992 -1.33301 -2.66699 -2 -6 -2
c-4 0 -7.5 1.83301 -10.5 5.5s-4.5 7.5 -4.5 11.5c0 3.33301 1.66699 6.66602 5 9.99902l38 28c12.667 9.33301 25 19 37 29c24.667 20 48.667 41.333 72 64s45 46.667 65 72s38 51.833 54 79.5s29 57.167 39 88.5c-29.333 -24.667 -58.333 -42.167 -87 -52.5
s-61.334 -18.166 -98.001 -23.499c-5.33301 -0.666992 -10.166 -1.33398 -14.499 -2.00098s-9.16602 -1 -14.499 -1c-18.667 0 -37.5 3.66699 -56.5 11s-36 17.166 -51 29.499s-27.333 27 -37 44s-14.5 35.5 -14.5 55.5c0 8 0.833008 15.333 2.5 22l5.5 21
c3.33301 12 7 24 11 36s8.66699 23.667 14 35c25.333 58 61.166 109.333 107.499 154s97.166 82 152.499 112c0.666992 0.666992 1.33398 1 2.00098 1s1.33398 0.333008 2.00098 1c4 2.66699 7.33301 4 10 4c3.33301 0 5.66602 -1 6.99902 -3
c22.667 -19.333 42 -41.333 58 -66s29 -51 39 -79s17.167 -56.833 21.5 -86.5s6.5 -58.834 6.5 -87.501zM517.999 463.001c0 52.667 -6.66992 105 -20.0029 157s-34.333 100.333 -63 145c-11.333 -11.333 -23 -22.333 -35 -33s-23.667 -21.667 -35 -33
c-31.333 -30 -61.166 -61.5 -89.499 -94.5s-51.166 -69.5 -68.499 -109.5c-3.33301 -8 -6.16602 -16 -8.49902 -24s-5.16602 -16 -8.49902 -24c-1.33301 -5.33301 -2.66602 -10.333 -3.99902 -15s-2 -9.66699 -2 -15c0 -14 3.66699 -26.833 11 -38.5
s16.666 -21.5 27.999 -29.5s23.666 -14.333 36.999 -19s26.333 -7 39 -7c40 0 79 7.33301 117 22s71.333 36 100 64c1.33301 9.33301 2 18.333 2 27v27z" />
    <glyph glyph-name="colon" unicode=":" horiz-adv-x="107" 
d="M117 278c0 -3.33301 -0.665039 -5.99902 -1.99805 -7.99902l-4 -6l-1 -1c1.33301 -4 2 -6.66699 2 -8c-4.66699 -4 -7.83398 -7.83301 -9.50098 -11.5s-6.16699 -5.5 -13.5 -5.5c-6.66699 0 -13 2.66699 -19 8s-9 11.333 -9 18c0 11.333 1.16699 20.666 3.5 27.999
s10.166 11 23.499 11c6.66699 0 13.167 -2.33301 19.5 -7s9.5 -10.667 9.5 -18zM117.002 74.001c0 -3.33301 -0.665039 -6 -1.99805 -8l-4 -6l-1 -2c1.33301 -2.66699 2 -5.33398 2 -8.00098c-4.66699 -3.33301 -7.83398 -6.83301 -9.50098 -10.5s-6.16699 -5.5 -13.5 -5.5
c-6.66699 0 -13 2.66699 -19 8s-9 11.333 -9 18c0 11.333 1.16699 20.5 3.5 27.5s10.166 10.5 23.499 10.5c6.66699 0 13.167 -2.16699 19.5 -6.5s9.5 -10.166 9.5 -17.499zM96.0039 251.001v3c-0.666992 0 -1 -0.333008 -1 -1zM96.0039 46.001v4l-1 -1
c0 -0.666992 0.166992 -1.16699 0.5 -1.5s0.5 -0.833008 0.5 -1.5z" />
    <glyph glyph-name="semicolon" unicode=";" horiz-adv-x="127" 
d="M123 278c0 -3.33301 -0.665039 -6.00098 -1.99805 -8.00098l-4 -6v-1c0 -1.33301 0.166992 -2.66602 0.5 -3.99902s0.5 -2.66602 0.5 -3.99902c-4.66699 -4 -7.83398 -7.83301 -9.50098 -11.5s-6.16699 -5.5 -13.5 -5.5c-6.66699 0 -12.834 2.66699 -18.501 8
s-8.5 11.333 -8.5 18c0 11.333 1 20.666 3 27.999s10 11 24 11c6.66699 0 13 -2.33301 19 -7s9 -10.667 9 -18zM138.002 58.999c0 -10 -2.16992 -20.334 -6.50293 -31.001s-9.66602 -21.167 -15.999 -31.5s-13.166 -20.333 -20.499 -30l-19 -25.5
c-0.666992 0 -1.5 -0.333008 -2.5 -1s-1.83301 -1 -2.5 -1c-1.33301 0 -4.66602 2.33301 -9.99902 7s-8.66602 8 -9.99902 10c3.33301 16.667 8.5 32.334 15.5 47.001s12.167 30 15.5 46c-4 2.66699 -7.5 5.66699 -10.5 9s-4.5 7.66602 -4.5 12.999
c0 11.333 1 20.666 3 27.999s10 11 24 11c5.33301 0 9.66602 -1.16699 12.999 -3.5s6.66602 -5.16602 9.99902 -8.49902c6.66699 -6 11.834 -11.667 15.501 -17s5.5 -12.666 5.5 -21.999zM101.999 250.998v3c-0.666992 0 -1 -0.333008 -1 -1z" />
    <glyph glyph-name="less" unicode="&#x3c;" horiz-adv-x="317" 
d="M317 146c0 -4.66699 -1.66602 -8.99512 -4.99902 -12.9951s-7.33301 -6 -12 -6h-2c-38.667 15.333 -74.834 36.666 -108.501 63.999s-61.834 58.666 -84.501 93.999c-2 8 -3 16 -3 24c0 14 2.66699 26.667 8 38s12.666 22.333 21.999 33c7.33301 8 15 15.833 23 23.5
l23 22.5c4 4 11.167 10.667 21.5 20s21.5 18.666 33.5 27.999l34.5 26.5c11 8.33301 18.833 13.5 23.5 15.5l4 1c4 0 7.83301 -1.83301 11.5 -5.5s5.5 -7.5 5.5 -11.5c0 -3.33301 -1.33301 -6 -4 -8c-5.33301 -5.33301 -10.666 -10.333 -15.999 -15
s-10.666 -9.66699 -15.999 -15l-33.5 -33.5l-32.5 -33.5c-4 -4 -9.33301 -9.66699 -16 -17s-13.167 -15 -19.5 -23s-11.833 -16 -16.5 -24s-7 -15 -7 -21c0 -4.66699 4.16699 -11.5 12.5 -20.5s18.5 -18.833 30.5 -29.5s25.333 -21.834 40 -33.501s28 -22.834 40 -33.501
s22.167 -20.167 30.5 -28.5s12.5 -14.5 12.5 -18.5z" />
    <glyph glyph-name="equal" unicode="=" horiz-adv-x="595" 
d="M595 416c0 -2.66699 -1.00098 -5.49707 -3.00098 -8.49707s-4.33301 -4.83301 -7 -5.5c-8 -2 -19.333 -3.33301 -34 -4s-26.667 -1.33398 -36 -2.00098c-28.667 -2 -57 -3.5 -85 -4.5s-56.333 -1.83301 -85 -2.5c-15.333 0 -30.333 -0.333008 -45 -1s-29.667 -1 -45 -1
c-7.33301 0 -16.166 0.166992 -26.499 0.5s-20.833 1.16602 -31.5 2.49902s-21 2.83301 -31 4.5s-18.333 4.16699 -25 7.5c-5.33301 3.33301 -8 8.33301 -8 15c0 3.33301 0.833008 6.5 2.5 9.5s3.83398 5.16699 6.50098 6.5c5.33301 2 12.5 3.66699 21.5 5
s18.333 2.16602 28 2.49902l28.5 1c9.33301 0.333008 17 0.5 23 0.5c17.333 0 34.333 -0.333008 51 -1s33.667 -1 51 -1l85 -2c28 -0.666992 56.333 -1.66699 85 -3c9.33301 -0.666992 21.166 -1 35.499 -1s25.5 -1 33.5 -3c3.33301 -0.666992 6 -2.5 8 -5.5
s3 -6.16699 3 -9.5zM594.999 280.003c0 -7.33301 -3.00098 -12.334 -9.00098 -15.001c-6 -2 -13.5 -3.66699 -22.5 -5s-18.5 -2.33301 -28.5 -3s-19.833 -1.16699 -29.5 -1.5s-17.5 -0.5 -23.5 -0.5c-16.667 0 -33.167 0.333008 -49.5 1s-32.833 1 -49.5 1
c-28.667 0 -57 0.333008 -85 1s-56.333 1.66699 -85 3h-15.5c-6.33301 0 -12.833 0.166992 -19.5 0.5s-13 0.666016 -19 0.999023s-11 0.833008 -15 1.5c-3.33301 0.666992 -6 2.5 -8 5.5s-3 6.16699 -3 9.5c0 7.33301 3.33301 12.333 10 15c8 2 19.333 3.33301 34 4
s26.667 1.33398 36 2.00098c28 2 56.167 3.66699 84.5 5s56.833 2 85.5 2l46 2c15.333 0.666992 30.666 1 45.999 1c7.33301 0 16 -0.166992 26 -0.5s20.333 -1.16602 31 -2.49902s20.834 -3 30.501 -5s17.834 -4.33301 24.501 -7c2.66699 -1.33301 4.66699 -3.5 6 -6.5
s2 -5.83301 2 -8.5z" />
    <glyph glyph-name="greater" unicode="&#x3e;" horiz-adv-x="310" 
d="M320 308c0 -4 -0.163086 -7.83496 -0.496094 -11.502s-0.833008 -7.5 -1.5 -11.5c-23.333 -36 -51.833 -67.167 -85.5 -93.5s-70.834 -46.166 -111.501 -59.499l-2 -1c-4 0 -7.83301 2.16699 -11.5 6.5s-5.5 8.5 -5.5 12.5c0 3.33301 4.16699 9 12.5 17s18 16.5 29 25.5
s21.667 17.333 32 25s17.166 12.834 20.499 15.501c12.667 9.33301 26.334 20.5 41.001 33.5s26 26.167 34 39.5c0.666992 0.666992 1 2 1 4c0 5.33301 -2.33301 12 -7 20s-10.334 16 -17.001 24l-20 23c-6.66699 7.33301 -12 13 -16 17l-33.5 33l-33.5 31
c-5.33301 5.33301 -11 10.333 -17 15s-11.667 9.66699 -17 15c-2.66699 2.66699 -4 5.33398 -4 8.00098c0 4 2 7.83301 6 11.5s8 5.5 12 5.5h1c0.666992 0 1 -0.166992 1 -0.5s0.333008 -0.5 1 -0.5c4.66699 -2.66699 12.667 -7.83398 24 -15.501s23 -16.167 35 -25.5
l34 -27c10.667 -8.66699 18 -15 22 -19l23.5 -22.5c8.33301 -7.66699 16.166 -15.5 23.499 -23.5c9.33301 -10 16.666 -20.833 21.999 -32.5s8 -24.5 8 -38.5z" />
    <glyph glyph-name="question" unicode="?" horiz-adv-x="436" 
d="M559 599c0 -29.333 -7.50293 -55.3291 -22.5029 -77.9961s-33.667 -42.834 -56 -60.501s-46.333 -33.667 -72 -48l-70.5 -40.5c-9.33301 -5.33301 -19 -11.333 -29 -18s-19 -13.667 -27 -21c-13.333 -13.333 -26.333 -29.666 -39 -48.999s-19 -39 -19 -59
c0 -13.333 5.33301 -25.833 16 -37.5s21.667 -19.5 33 -23.5c0 1.33301 -0.166992 2.33301 -0.5 3s-0.5 1.66699 -0.5 3c0 4.66699 1.66699 8.5 5 11.5s7.33301 4.5 12 4.5c6 0 10.5 -3.5 13.5 -10.5s4.5 -13.167 4.5 -18.5c0 -10 -3.16699 -17.667 -9.5 -23
s-14.166 -8 -23.499 -8c-12 0 -23.667 2.83301 -35 8.5s-21.666 13 -30.999 22s-17 19.333 -23 31s-9.66699 23.167 -11 34.5v11c0 25.333 7 50.666 21 75.999s30.333 46.666 49 63.999c17.333 16 36.833 30.167 58.5 42.5l65.5 36c22 11.667 43.333 24.167 64 37.5
s38.667 29.333 54 48s23 40 23 64c0 36 -10.833 63.5 -32.5 82.5s-49.834 28.5 -84.501 28.5c-26.667 0 -53 -5.33301 -79 -16s-49.167 -25.334 -69.5 -44.001s-36.666 -40.167 -48.999 -64.5s-18.5 -50.5 -18.5 -78.5c0 -6 0.666992 -12.167 2 -18.5s2 -12.5 2 -18.5
c0 -4.66699 -1.66699 -8.33398 -5 -11.001s-7 -4 -11 -4s-7 0.833008 -9 2.5s-3.66699 4.16699 -5 7.5c-1.33301 2.66699 -2.33301 6.33398 -3 11.001l-2 14.5c-0.666992 5 -1.16699 9.83301 -1.5 14.5s-0.5 8.33398 -0.5 11.001c0 32.667 7.33301 63.5 22 92.5
s33.834 54.5 57.501 76.5s50.667 39.333 81 52s61.5 19 93.5 19c23.333 0 45 -3.83301 65 -11.5s37.167 -18.334 51.5 -32.001s25.5 -30.334 33.5 -50.001s12 -41.5 12 -65.5zM256.997 22.0039c0 -3.33301 -1.99805 -7.66504 -5.99805 -12.998l-1 -2
c1.33301 -2.66699 2 -5.33398 2 -8.00098c-4.66699 -3.33301 -7.83398 -6.83301 -9.50098 -10.5s-6.16699 -5.5 -13.5 -5.5c-6.66699 0 -12.834 2.5 -18.501 7.5s-8.5 10.833 -8.5 17.5c0 11.333 1 20.666 3 27.999s10 11 24 11c6 0 12.167 -2.33301 18.5 -7
s9.5 -10.667 9.5 -18zM235.999 -4.99512v4l-1 -1c0 -0.666992 0.166992 -1.16699 0.5 -1.5s0.5 -0.833008 0.5 -1.5z" />
    <glyph glyph-name="at" unicode="@" horiz-adv-x="684" 
d="M735 519c0 -34.667 -4.82812 -69.668 -14.4951 -105.001s-23.167 -69.166 -40.5 -101.499s-38 -62.5 -62 -90.5s-50 -52 -78 -72c-6 -4 -13.5 -8.5 -22.5 -13.5s-17.167 -7.5 -24.5 -7.5s-13.333 2 -18 6s-8.16699 9 -10.5 15s-3.83301 12.333 -4.5 19s-1 13 -1 19v9
c0 2.66699 0.333008 5.66699 1 9c-20 -20.667 -43 -37.667 -69 -51s-54 -20 -84 -20c-2.66699 0 -6.16699 0.833008 -10.5 2.5s-7.83301 3.16699 -10.5 4.5c-13.333 7.33301 -23.166 18 -29.499 32s-9.5 28.333 -9.5 43c0 20 2.66699 39.833 8 59.5s12.5 38.667 21.5 57
s19.167 36.166 30.5 53.499s23.333 33.666 36 48.999c32 39.333 70 74.833 114 106.5s90 55.834 138 72.501h3c4.66699 0 8.33398 -1.66699 11.001 -5s4 -7.33301 4 -12s-2.33301 -8.66699 -7 -12c-10 -5.33301 -20.167 -10.166 -30.5 -14.499s-20.166 -9.5 -29.499 -15.5
c-66 -38 -122 -87.333 -168 -148c-9.33301 -12 -18.833 -25.5 -28.5 -40.5s-18.334 -30.5 -26.001 -46.5s-14 -32.333 -19 -49s-7.5 -33 -7.5 -49c0 -2 0.166992 -5.16699 0.5 -9.5s1.16602 -8.5 2.49902 -12.5s3.16602 -7.66699 5.49902 -11s5.16602 -5 8.49902 -5
c16.667 0 33.167 4.5 49.5 13.5s31.666 20.333 45.999 34s27.166 28.5 38.499 44.5s20.666 30.667 27.999 44c14 25.333 26.5 51.166 37.5 77.499l33.5 78.5c5.33301 11.333 10.5 23.666 15.5 36.999s10.5 25 16.5 35c2.66699 4.66699 7 7 13 7
c4 0 7.83301 -1.33301 11.5 -4s5.5 -6.33398 5.5 -11.001v-2c-7.33301 -32 -15.666 -62.833 -24.999 -92.5s-19.333 -59.834 -30 -90.501c-2.66699 -7.33301 -4.83398 -15.166 -6.50098 -23.499s-3.5 -16.166 -5.5 -23.499c-3.33301 -13.333 -6.83301 -26.166 -10.5 -38.499
l-11.5 -37.5c-5.33301 -16 -8.33301 -32 -9 -48l2 -2c2.66699 0 6.33398 1.5 11.001 4.5s9.5 6.5 14.5 10.5s9.66699 8 14 12s7.5 7 9.5 9c19.333 18.667 36.833 39.5 52.5 62.5s29.167 47.167 40.5 72.5s20 51.5 26 78.5s9 54.167 9 81.5
c0 23.333 -2.83301 46.833 -8.5 70.5s-14.5 45.167 -26.5 64.5s-27.667 35.166 -47 47.499s-42.333 18.5 -69 18.5c-24 0 -47.333 -3.83301 -70 -11.5s-44.5 -17.5 -65.5 -29.5s-41 -25.833 -60 -41.5s-36.5 -31.5 -52.5 -47.5c-20.667 -20.667 -39.667 -43.5 -57 -68.5
s-32.333 -51.167 -45 -78.5s-22.5 -55.666 -29.5 -84.999s-10.5 -58.666 -10.5 -87.999c0 -23.333 2.66699 -47.833 8 -73.5s14.333 -48.5 27 -68.5c12 -19.333 27.167 -35.833 45.5 -49.5s38.166 -25 59.499 -34s43.5 -15.5 66.5 -19.5s45.167 -6 66.5 -6
c40 0 78.167 5.33301 114.5 16s71.5 26 105.5 46c2.66699 2 6 3 10 3s7.5 -1.5 10.5 -4.5s4.5 -6.5 4.5 -10.5c0 -4.66699 -2 -9 -6 -13c-17.333 -16 -36.666 -29.5 -57.999 -40.5s-43.833 -19.667 -67.5 -26s-47.667 -11 -72 -14s-47.833 -4.5 -70.5 -4.5
c-45.333 0 -86.333 7 -123 21s-68.334 33.833 -95.001 59.5s-47.167 56.834 -61.5 93.501s-21.5 77.667 -21.5 123c0 33.333 4.16699 66.333 12.5 99s19.833 64.334 34.5 95.001s31.834 59.667 51.501 87s41.167 52.666 64.5 75.999c18.667 18.667 38.667 36.667 60 54
s43.666 32.666 66.999 45.999s47.833 24 73.5 32s52.167 12 79.5 12c34 0 63.667 -7 89 -21s46.166 -32.5 62.499 -55.5s28.5 -49.167 36.5 -78.5s12 -59.333 12 -90z" />
    <glyph glyph-name="A" unicode="A" horiz-adv-x="660" 
d="M793 505c0 -2.66699 -1.00488 -4.99512 -3.00488 -6.99512c-14 -15.333 -30 -28.5 -48 -39.5s-37.333 -20 -58 -27s-41.667 -12.333 -63 -16s-42 -5.83398 -62 -6.50098l-35 -198c-12 -66.667 -18 -133.334 -18 -200.001c0 -19.333 1.16699 -38.5 3.5 -57.5
s7.33301 -36 15 -51s18.667 -27 33 -36s33.5 -13.5 57.5 -13.5c4 0 7.83301 0.333008 11.5 1s7.5 1 11.5 1c4.66699 0 8.33398 -1.66699 11.001 -5s4 -7.33301 4 -12s-2.5 -8.5 -7.5 -11.5s-10.667 -5.16699 -17 -6.5s-12.833 -2.33301 -19.5 -3s-11.667 -1 -15 -1
c-28.667 0 -52.167 5.83301 -70.5 17.5s-32.833 27 -43.5 46s-18.167 40.333 -22.5 64s-6.5 47.167 -6.5 70.5c0 32 1.83301 64.667 5.5 98s8.33398 66.833 14.001 100.5s11.834 67.167 18.501 100.5l19 97l-42 2c-14 0.666992 -28 1 -42 1h-21
c-6.66699 0 -13.667 -0.333008 -21 -1c-11.333 -18 -23.166 -35.667 -35.499 -53l-37.5 -52c-23.333 -32 -48.333 -63.833 -75 -95.5s-55.167 -61.167 -85.5 -88.5s-62.833 -51.666 -97.5 -72.999s-72 -37.333 -112 -48c-11.333 -3.33301 -23.5 -6.16602 -36.5 -8.49902
s-25.5 -3.5 -37.5 -3.5c-4 0 -7.16699 1.66699 -9.5 5s-3.5 6.66602 -3.5 9.99902c0 8 3.33301 12.667 10 14l42 9.5c13.333 3 27 7.16699 41 12.5c34.667 13.333 67 30.833 97 52.5s58.167 45.667 84.5 72s51.166 54.166 74.499 83.499l67 88l23 33l22 33
c-26 -5.33301 -48.667 -12.833 -68 -22.5s-39.666 -22.167 -60.999 -37.5c-1.33301 -1.33301 -3.66602 -2 -6.99902 -2s-6.83301 1.83301 -10.5 5.5s-5.5 7.16699 -5.5 10.5s1 6 3 8c22.667 25.333 50.5 45.166 83.5 59.499s65.833 24.166 98.5 29.499l42 65.5l45.5 69
c15.667 23 31.834 45 48.501 66s34 39.833 52 56.5c4 2.66699 7 4 9 4h2c-0.666992 10 -2.16699 20.167 -4.5 30.5s-6 19.666 -11 27.999s-11.5 15.166 -19.5 20.499s-18 8 -30 8c-16 0 -32.5 -3 -49.5 -9s-33 -12.5 -48 -19.5s-27.833 -13.333 -38.5 -19
s-17.334 -8.5 -20.001 -8.5c-4 0 -7.5 1.83301 -10.5 5.5s-4.5 7.16699 -4.5 10.5c0 4.66699 2.33301 8.66699 7 12c3.33301 2.66699 7.33301 5.16699 12 7.5s9 4.83301 13 7.5c22 12.667 45.5 24.334 70.5 35.001s50.833 16 77.5 16c5.33301 0 11 -0.833008 17 -2.5
s11.333 -3.5 16 -5.5c13.333 -6 24.5 -14.667 33.5 -26s16 -23.833 21 -37.5s8.5 -28 10.5 -43s3 -29.167 3 -42.5c0 -37.333 -2 -74.166 -6 -110.499s-9 -72.833 -15 -109.5c28 3.33301 55.5 8.5 82.5 15.5s53.5 15.833 79.5 26.5c7.33301 2.66699 14.333 5.5 21 8.5
l21 9.5h3c4 0 7.83301 -1.83301 11.5 -5.5s5.5 -7.83398 5.5 -12.501zM544.995 669.005l-33 -54.498l-39.5 -64l-35.5 -56.5c-10.667 -16.667 -17.667 -27.334 -21 -32.001c5.33301 0 10.833 0.166992 16.5 0.5s11.5 0.5 17.5 0.5c10 0 20.167 -0.333008 30.5 -1
s20.5 -1 30.5 -1h7c6.66699 34.667 12.5 69.167 17.5 103.5s8.16699 69.166 9.5 104.499z" />
    <glyph glyph-name="B" unicode="B" horiz-adv-x="765" 
d="M816 673c0 -24 -5.66504 -46.3301 -16.998 -66.9971c-25.333 -45.333 -57.5 -84.833 -96.5 -118.5s-81.5 -61.834 -127.5 -84.501c43.333 -7.33301 77.666 -26 102.999 -56s38 -67 38 -111c0 -36 -7.33301 -70.167 -22 -102.5s-34.5 -60.833 -59.5 -85.5
s-53.833 -44.167 -86.5 -58.5s-67 -21.5 -103 -21.5s-70.333 5.83301 -103 17.5s-64 27.167 -94 46.5l-16 10.5l-16 11.5c-3.33301 2 -5 5 -5 9c0 1.33301 0.666992 3.33301 2 6c-28 -29.333 -60 -53.166 -96 -71.499s-74 -27.5 -114 -27.5c-4 0 -7.16699 1.66699 -9.5 5
s-3.5 6.66602 -3.5 9.99902c0 8 3.66699 12.667 11 14c13.333 3.33301 26.166 6.16602 38.499 8.49902s25.166 6.5 38.499 12.5c31.333 14 59 33.333 83 58s45.333 52 64 82s34.834 61.5 48.501 94.5s26.167 64.5 37.5 94.5c10 26.667 19.333 53.5 28 80.5l26.5 81
c9 27 18.667 53.667 29 80s22.166 52.166 35.499 77.499c-18.667 -11.333 -37.667 -21.333 -57 -30s-38 -18.667 -56 -30c-28 -17.333 -55.667 -37.5 -83 -60.5s-47 -50.167 -59 -81.5c-2.66699 -6.66699 -4.66699 -13 -6 -19l-4 -18c-2 -6 -6.33301 -9 -13 -9
c-2.66699 0 -6.16699 1.16699 -10.5 3.5s-6.5 4.83301 -6.5 7.5c0 27.333 5.66699 53 17 77s26.333 46.333 45 67s40.167 39.667 64.5 57s49.5 33.333 75.5 48s52 27.834 78 39.501l71 31.5c1.33301 0.666992 2.5 1.33398 3.5 2.00098s2.16699 1 3.5 1c4 0 8 -1.5 12 -4.5
s6 -6.83301 6 -11.5c0 -0.666992 -1.66699 -5.33398 -5 -14.001s-7.33301 -18.167 -12 -28.5l-13 -29.5c-4 -9.33301 -6.33301 -15.333 -7 -18c14.667 13.333 31.5 26.833 50.5 40.5s39 26.167 60 37.5s42.333 20.666 64 27.999s42.834 11 63.501 11
c29.333 0 54 -7.83301 74 -23.5s30 -38.5 30 -68.5zM766.002 673.003c0 17.333 -5.82812 29.001 -17.4951 35.001s-25.167 9 -40.5 9c-22 0 -44.833 -4.33301 -68.5 -13s-46.834 -19.667 -69.501 -33s-44.334 -27.833 -65.001 -43.5s-39 -30.5 -55 -44.5l-45 -126l-46 -126
c-16 -41.333 -33.667 -81.833 -53 -121.5s-42.666 -77.167 -69.999 -112.5c-4 -6 -9 -12 -15 -18c1.33301 0.666992 3.33301 1 6 1c1.33301 0 3.33301 -0.666992 6 -2c31.333 -18 63.166 -33.667 95.499 -47s66.833 -20 103.5 -20c29.333 0 57.833 5.66699 85.5 17
s52.167 27 73.5 47s38.5 43.167 51.5 69.5s19.5 54.5 19.5 84.5c0 27.333 -5.16699 49.5 -15.5 66.5s-24 30.5 -41 40.5s-36.333 17 -58 21s-43.834 6.33301 -66.501 7c-1.33301 -0.666992 -3.33301 -1.5 -6 -2.5s-5.66699 -2 -9 -3s-6.33301 -1.83301 -9 -2.5
s-4.33398 -1 -5.00098 -1c-5.33301 0 -9.33301 1.83301 -12 5.5s-4 7.83398 -4 12.501c0 6 3.33301 10.333 10 13c2 5.33301 4.66699 8.16602 8 8.49902s6.66602 1.16602 9.99902 2.49902c6.66699 2.66699 14.5 7 23.5 13s16.833 10.667 23.5 14l58.5 35.5l58.5 38.5
c12 8.66699 25.833 19.667 41.5 33s30.667 28 45 44s26.5 32.5 36.5 49.5s15 33.167 15 48.5z" />
    <glyph glyph-name="C" unicode="C" horiz-adv-x="581" 
d="M663 728c-0.666992 -4 -2.50098 -7.66016 -5.50098 -10.9932s-6.83301 -5 -11.5 -5c-6 0 -12 0.333008 -18 1s-12.333 1 -19 1c-49.333 0 -97.666 -9.33301 -144.999 -28s-90.833 -44 -130.5 -76s-74.167 -69.333 -103.5 -112s-51 -88 -65 -136
c-4.66699 -15.333 -8.5 -31 -11.5 -47s-5.5 -31.667 -7.5 -47c-2.66699 -18 -4.33398 -36.333 -5.00098 -55s0.333008 -37 3 -55s6.83398 -35.333 12.501 -52s13.834 -32 24.501 -46c4 -5.33301 8.33301 -10.5 13 -15.5s9.66699 -9.16699 15 -12.5
c10 -6 22.667 -10.333 38 -13s29.333 -4 42 -4c36 0 72 7.66699 108 23s67.333 36.666 94 63.999c7.33301 7.33301 13.666 14.5 18.999 21.5l17 22.5c3.33301 4.66699 7.66602 7 12.999 7c4 0 7.5 -1.33301 10.5 -4s4.16699 -6.33398 3.5 -11.001
c0 -0.666992 -0.666992 -2.33398 -2 -5.00098c-14 -24 -31.333 -45.833 -52 -65.5s-43 -36.334 -67 -50.001s-49.167 -24.334 -75.5 -32.001s-52.833 -11.5 -79.5 -11.5c-7.33301 0 -15.333 0.333008 -24 1s-17.334 1.83398 -26.001 3.50098s-17 3.66699 -25 6
s-15 5.16602 -21 8.49902c-5.33301 3.33301 -10.666 7.66602 -15.999 12.999l-15 15c-30 33.333 -48 72.166 -54 116.499s-6 89.5 0 135.5c2 16 4.66699 32 8 48s7 32 11 48c12.667 49.333 33.667 97.166 63 143.499s64.5 87.333 105.5 123s86 64.334 135 86.001
s99.167 32.5 150.5 32.5c12 0 26.333 -0.833008 43 -2.5s30.334 -4.5 41.001 -8.5c6.66699 -2.66699 9.66699 -7.66699 9 -15z" />
    <glyph glyph-name="D" unicode="D" horiz-adv-x="853" 
d="M889 511c0 -38.667 -5.82812 -78.498 -17.4951 -119.498s-28 -81.167 -49 -120.5s-45.833 -76.666 -74.5 -111.999s-60.334 -66.333 -95.001 -93s-71.667 -47.834 -111 -63.501s-79.666 -23.5 -120.999 -23.5c-40.667 0 -79 8.5 -115 25.5s-68.667 39.167 -98 66.5
c-26.667 -28 -57.834 -50.833 -93.501 -68.5s-72.834 -26.5 -111.501 -26.5c-4 0 -7.16699 1.66699 -9.5 5s-3.5 6.66602 -3.5 9.99902c0 8 3.66699 13 11 15l38.5 7.5c12.333 2.33301 25.166 6.5 38.499 12.5c30.667 14 57.834 33.333 81.501 58s44.667 52 63 82
s34.166 61.5 47.499 94.5l37 94.5c10 26.667 19 53.5 27 80.5l25 81c8.66699 27 18 53.667 28 80s21.667 52.166 35 77.499c-18.667 -10.667 -37.667 -20.5 -57 -29.5s-38 -19.167 -56 -30.5c-26.667 -16.667 -53 -35.834 -79 -57.501s-45.667 -47.5 -59 -77.5
c-3.33301 -7.33301 -5.66602 -14.666 -6.99902 -21.999s-3 -14.666 -5 -21.999c-0.666992 -2.66699 -2.33398 -4.83398 -5.00098 -6.50098s-5.33398 -2.5 -8.00098 -2.5c-6 0 -10.167 1.66699 -12.5 5s-3.5 7.66602 -3.5 12.999c0 26.667 5.66699 51.667 17 75
s26.5 45 45.5 65s40.5 38.667 64.5 56s48.833 33.166 74.5 47.499s51 27.333 76 39s47.833 21.834 68.5 30.501c1.33301 0.666992 2.5 1.33398 3.5 2.00098s2.5 1 4.5 1c4 0 7.83301 -1.5 11.5 -4.5s5.5 -6.83301 5.5 -11.5c0 -0.666992 -1.5 -4.66699 -4.5 -12
s-6.16699 -15.5 -9.5 -24.5s-6.83301 -17.667 -10.5 -26s-5.83398 -13.833 -6.50098 -16.5c27.333 29.333 57.666 53 90.999 71s70.333 27 111 27h20c17.333 -2.66699 34.333 -7.66699 51 -15s32.334 -16.5 47.001 -27.5s28 -23.333 40 -37s22 -28.167 30 -43.5
c10 -20 17.333 -41 22 -63s7 -44 7 -66zM837.005 501.002c0 25.333 -3.82715 50.5059 -11.4941 75.5059s-18.834 47.333 -33.501 67s-32.667 35.5 -54 47.5s-46 18 -74 18c-20 0 -39.333 -3.5 -58 -10.5s-36.334 -16 -53.001 -27s-32.334 -23.333 -47.001 -37
s-28 -27.5 -40 -41.5c-5.33301 -6.66699 -12.166 -14.334 -20.499 -23.001s-14.5 -16.667 -18.5 -24c-1.33301 -3.33301 -3 -7.83301 -5 -13.5s-4 -11.667 -6 -18l-6 -18.5l-5 -15l-24.5 -72l-25.5 -72c-16.667 -44 -34.834 -86.333 -54.501 -127
s-43.834 -79.334 -72.501 -116.001c25.333 -22 53.666 -40.167 84.999 -54.5s64 -21.5 98 -21.5c35.333 0 69.333 6.16699 102 18.5s63.667 29.166 93 50.499s56.333 46.166 81 74.499s46.667 58.5 66 90.5s35.666 64.667 48.999 98s23.333 66 30 98
c1.33301 9.33301 2.5 18.166 3.5 26.499s1.5 17.166 1.5 26.499z" />
    <glyph glyph-name="E" unicode="E" 
d="M926 824c0 -4 -1 -6.99805 -3 -8.99805c-21.333 -21.333 -47.5 -38.5 -78.5 -51.5s-61.167 -22.167 -90.5 -27.5c-28.667 -5.33301 -57.334 -9 -86.001 -11s-57.334 -3.5 -86.001 -4.5s-57.334 -2.33301 -86.001 -4s-57 -5.5 -85 -11.5
c-3.33301 -54 -11.833 -107 -25.5 -159s-29.167 -103.333 -46.5 -154c18.667 0 37.167 -1.33301 55.5 -4s36.833 -4 55.5 -4c16.667 0 33.167 0.833008 49.5 2.5s32.5 4.5 48.5 8.5c2 0.666992 5.16699 1.66699 9.5 3l13 4c4.33301 1.33301 8.33301 2.66602 12 3.99902
s5.83398 2 6.50098 2c3.33301 0 7 -2.33301 11 -7s6 -8.33398 6 -11.001c0 -4 -1.66699 -7 -5 -9c-25.333 -16 -54 -27.667 -86 -35s-62.667 -11 -92 -11c-11.333 0 -22.333 0.666992 -33 2s-21.667 2 -33 2c-14 0 -26.667 -1.33301 -38 -4
c-17.333 -49.333 -36.666 -97.666 -57.999 -144.999s-44 -94.333 -68 -141c22 0 43.833 -1.66699 65.5 -5s43.167 -6.83301 64.5 -10.5s42.833 -7.16699 64.5 -10.5s43.5 -5 65.5 -5c10 0 20 0.333008 30 1s20 2 30 4c32.667 6.66699 60.5 18.334 83.5 35.001
s46.167 36 69.5 58c2.66699 2.66699 5.33398 4 8.00098 4c4 0 7.83301 -1.83301 11.5 -5.5s5.5 -7.16699 5.5 -10.5c0 -2 -0.666992 -4.33301 -2 -7c-30 -42 -66.333 -73.667 -109 -95s-89.667 -32 -141 -32c-20.667 0 -41 1.16699 -61 3.5s-40 5 -60 8s-40 5.83301 -60 8.5
s-40.333 4 -61 4h-17c-6 0 -11.667 -0.333008 -17 -1l-7.5 -15c-3 -6 -7.16699 -9 -12.5 -9c-4.66699 0 -8.83398 1.33301 -12.501 4s-5.5 6.33398 -5.5 11.001c0 2 0.666992 3.66699 2 5c-11.333 -2 -21.666 -4.16699 -30.999 -6.5s-18.166 -5 -26.499 -8
s-16.833 -6.33301 -25.5 -10s-18.334 -7.5 -29.001 -11.5h-3c-4.66699 0 -8.66699 1.83301 -12 5.5s-5 7.83398 -5 12.501c0 3.33301 1 6 3 8c19.333 21.333 42.833 37.166 70.5 47.499s55.5 17.166 83.5 20.499l56 134.5c18 45 35.333 90.5 52 136.5
c-1.33301 -0.666992 -4.33301 -2 -9 -4s-9.33398 -4.16699 -14.001 -6.5s-9 -4.33301 -13 -6s-6.33301 -2.5 -7 -2.5c-4.66699 0 -9 2.16699 -13 6.5s-6 8.5 -6 12.5v2c0 0.666992 0.333008 1 1 1c8 15.333 19.833 28.166 35.5 38.499s31.5 18.166 47.5 23.499
c17.333 52 32.333 104.333 45 157s28 104.667 46 156c-25.333 -7.33301 -49.5 -17.5 -72.5 -30.5s-43.167 -29.5 -60.5 -49.5c-5.33301 -5.33301 -9.66602 -11 -12.999 -17s-7.33301 -11.667 -12 -17c-2 -3.33301 -5.33301 -5 -10 -5c-3.33301 0 -7 1.33301 -11 4
s-6 6.33398 -6 11.001c0 2 0.333008 3.33301 1 4c18 36 41.167 65.167 69.5 87.5s59.5 39.666 93.5 51.999s69.833 21 107.5 26s74.5 8.5 110.5 10.5c60 2.66699 117 8.5 171 17.5s108.667 25.833 164 50.5c1.33301 0.666992 3 1 5 1c4.66699 0 8.5 -1.83301 11.5 -5.5
s4.5 -7.5 4.5 -11.5z" />
    <glyph glyph-name="F" unicode="F" horiz-adv-x="556" 
d="M883 824c0 -4 -1.33691 -6.99805 -4.00391 -8.99805c-21.333 -21.333 -47.333 -38.5 -78 -51.5s-61 -22.167 -91 -27.5c-28 -5.33301 -56.333 -9 -85 -11s-57.5 -3.5 -86.5 -4.5s-57.833 -2.33301 -86.5 -4s-57 -5.5 -85 -11.5c-3.33301 -54 -11.666 -107 -24.999 -159
s-28.666 -103.333 -45.999 -154c18.667 0 37.167 -1.33301 55.5 -4s36.833 -4 55.5 -4c16.667 0 33.167 0.833008 49.5 2.5s32.5 4.5 48.5 8.5c2 0.666992 5.16699 1.66699 9.5 3l13 4c4.33301 1.33301 8.33301 2.66602 12 3.99902s5.83398 2 6.50098 2
c3.33301 0 7 -2.33301 11 -7s6 -8.33398 6 -11.001c0 -4 -1.66699 -7 -5 -9c-25.333 -16 -54 -27.667 -86 -35s-62.667 -11 -92 -11c-11.333 0 -22.5 0.666992 -33.5 2s-22.167 2 -33.5 2c-6 0 -12.167 -0.333008 -18.5 -1s-12.5 -1.66699 -18.5 -3
c-16 -44 -33.333 -87.667 -52 -131s-38.667 -86 -60 -128c-8.66699 -16 -17.5 -33.167 -26.5 -51.5s-18.167 -35.166 -27.5 -50.499c-3.33301 -3.33301 -7 -5 -11 -5s-7.83301 1.33301 -11.5 4s-5.5 6.33398 -5.5 11.001v3l23.5 53l23.5 53c30.667 74 59.667 149 87 225
c-1.33301 -0.666992 -4.16602 -2 -8.49902 -4l-14 -6.5c-5 -2.33301 -9.5 -4.33301 -13.5 -6s-6.33301 -2.5 -7 -2.5c-4 0 -8 2.16699 -12 6.5s-6 8.5 -6 12.5l1 3c8 15.333 19.667 28.166 35 38.499s31.333 18.166 48 23.499c17.333 52 32.166 104.333 44.499 157
s27.5 104.667 45.5 156c-25.333 -7.33301 -49.5 -17.5 -72.5 -30.5s-43.167 -29.833 -60.5 -50.5c-5.33301 -5.33301 -9.66602 -10.833 -12.999 -16.5s-7.33301 -11.167 -12 -16.5c-2 -3.33301 -5 -5 -9 -5s-7.83301 1.33301 -11.5 4s-5.5 6.33398 -5.5 11.001
c0 2 0.333008 3.33301 1 4c18 36 41.167 65.167 69.5 87.5s59.5 39.666 93.5 51.999s69.833 21 107.5 26s74.5 8.5 110.5 10.5c60 2.66699 117 8.5 171 17.5s108.667 25.833 164 50.5c1.33301 0.666992 3 1 5 1c4 0 7.66699 -1.83301 11 -5.5s5 -7.5 5 -11.5z" />
    <glyph glyph-name="G" unicode="G" horiz-adv-x="645" 
d="M727 559c0 -1.33301 -0.332031 -2.83594 -0.999023 -4.50293s-1.33398 -3.16699 -2.00098 -4.5c-24 -34.667 -46.5 -68.834 -67.5 -102.501s-40.833 -67.834 -59.5 -102.501s-36 -70.167 -52 -106.5s-30.667 -74.5 -44 -114.5
c-13.333 -38.667 -24.5 -77.834 -33.5 -117.501l-26.5 -119.5c-8.66699 -40 -18 -79.833 -28 -119.5s-22.333 -78.834 -37 -117.501c-13.333 -34 -28.666 -66.667 -45.999 -98s-37.833 -58.666 -61.5 -81.999s-51.167 -42 -82.5 -56s-67.333 -21 -108 -21
c-34.667 0 -67 5.5 -97 16.5s-56.167 26.667 -78.5 47s-39.833 44.833 -52.5 73.5s-19 60.667 -19 96c0 36 5.5 72.333 16.5 109s26.167 71.834 45.5 105.501s42.166 64.334 68.499 92.001s55.166 50.167 86.499 67.5c4 1.33301 6.66699 2 8 2c4 0 7.5 -1.5 10.5 -4.5
s4.5 -6.5 4.5 -10.5c0 -5.33301 -2.66699 -9.66602 -8 -12.999l-21 -15l-21 -15c-29.333 -24.667 -54.5 -53.167 -75.5 -85.5s-37.833 -66.5 -50.5 -102.5c-6.66699 -19.333 -12 -39.166 -16 -59.499s-6 -41.166 -6 -62.499c0 -30.667 5 -58 15 -82s24 -44.167 42 -60.5
s39.5 -28.833 64.5 -37.5s52.5 -13 82.5 -13c15.333 0 30.5 1.33301 45.5 4s29.5 7.33398 43.5 14.001c30 12.667 56.333 32.834 79 60.501s42.667 59.5 60 95.5s32.333 75 45 117s23.834 83.667 33.501 125s18.167 81 25.5 119s14.666 71.333 21.999 100
c-10 -12 -20.833 -24.167 -32.5 -36.5s-24.334 -23.333 -38.001 -33s-28 -17.667 -43 -24s-30.833 -9.5 -47.5 -9.5c-4 0 -8 0.166992 -12 0.5s-7.66699 0.833008 -11 1.5c-27.333 6 -51 16.5 -71 31.5s-36.667 32.833 -50 53.5s-23.166 43.5 -29.499 68.5
s-9.5 50.5 -9.5 76.5v8.5c0 2.33301 0.333008 5.16602 1 8.49902c3.33301 66.667 15.333 130.667 36 192s50 119.666 88 174.999l22.5 30.5c7.66699 10.333 15.834 20.166 24.501 29.499c13.333 14 28.5 26.333 45.5 37s34.833 19.834 53.5 27.501s37.667 14 57 19
s38.333 9.16699 57 12.5c38 6 75.333 10.833 112 14.5s73.667 9.83398 111 18.501h2c10 0 15 -5.33301 15 -16c0 -6.66699 -3.33301 -11 -10 -13c-9.33301 -4 -19.666 -7 -30.999 -9s-22 -4 -32 -6c-26.667 -5.33301 -53.5 -9.5 -80.5 -12.5s-53.833 -7.16699 -80.5 -12.5
c-36 -7.33301 -70 -17.333 -102 -30s-60.333 -33 -85 -61c-23.333 -26 -44.5 -55.333 -63.5 -88s-35.167 -67 -48.5 -103s-23.5 -72.667 -30.5 -110s-10.5 -73.666 -10.5 -108.999c0 -25.333 3.66699 -50.833 11 -76.5s20.666 -47.5 39.999 -65.5
c11.333 -10.667 24 -19.5 38 -26.5s28.667 -10.5 44 -10.5c16 0 32.667 5.66699 50 17s34.5 26.166 51.5 44.499s33.667 38.833 50 61.5s31.5 45.167 45.5 67.5s26.667 43.5 38 63.5l28 49l36 61c12.667 21.333 26 42.333 40 63s28.5 40.667 43.5 60s30.167 37 45.5 53
c4.66699 3.33301 8.66699 5 12 5c10.667 0 16 -5 16 -15z" />
    <glyph glyph-name="H" unicode="H" horiz-adv-x="924" 
d="M976 0c0 -2.66699 -1.65918 -5.66699 -4.99219 -9c-8.66699 -8 -19.167 -16.667 -31.5 -26s-25.5 -17.833 -39.5 -25.5s-28 -14.167 -42 -19.5s-27 -8 -39 -8c-21.333 0 -38 5.33301 -50 16s-21.167 24 -27.5 40s-10.333 33.333 -12 52s-2.5 35.667 -2.5 51
c0 28 2.16699 58 6.5 90s10 64.167 17 96.5s14.833 64.166 23.5 95.499l25 88c-21.333 -5.33301 -42.833 -9.16602 -64.5 -11.499s-43.334 -4 -65.001 -5s-43.334 -1.5 -65.001 -1.5s-43.5 -0.333008 -65.5 -1c-46 -2 -91 -11 -135 -27
c-15.333 -52 -32.333 -103.833 -51 -155.5s-43.334 -100.5 -74.001 -146.5c-12 -18 -26.167 -35.333 -42.5 -52s-34.333 -31.167 -54 -43.5s-40.334 -22.166 -62.001 -29.499s-43.834 -11 -66.501 -11c-4 0 -7.16699 1.83301 -9.5 5.5s-3.5 7.16699 -3.5 10.5
c0 8 3.66699 12.667 11 14c13.333 3.33301 26 6.33301 38 9s24.667 7 38 13c30 14.667 56.167 34.834 78.5 60.501s41.666 54 57.999 85s30.166 63.167 41.499 96.5s21.333 65 30 95l7 23l-10 -5l-16 -8l-15 -7.5c-4.66699 -2.33301 -7.33398 -3.5 -8.00098 -3.5
c-4.66699 0 -8.83398 1.83301 -12.501 5.5s-5.5 7.5 -5.5 11.5c0 4.66699 3.5 10.834 10.5 18.501s15.333 15.167 25 22.5s19.167 14 28.5 20s16.333 10 21 12l31 119.5c10.667 39.667 24.667 78.5 42 116.5c-18 -11.333 -36.5 -21.833 -55.5 -31.5s-37.5 -20.5 -55.5 -32.5
c-12.667 -8.66699 -25.5 -18 -38.5 -28s-25.167 -20.667 -36.5 -32s-21.666 -23.666 -30.999 -36.999s-16.666 -27.333 -21.999 -42c-3.33301 -9.33301 -5.16602 -17 -5.49902 -23s-1.5 -13 -3.5 -21c-1.33301 -3.33301 -3.33301 -5.83301 -6 -7.5s-5.66699 -2.5 -9 -2.5
s-6.5 1 -9.5 3s-4.83301 4.66699 -5.5 8v-1c0 2.66699 -0.166992 5.16699 -0.5 7.5s-0.5 4.83301 -0.5 7.5c0 38.667 11.333 74.167 34 106.5s50.667 61.5 84 87.5s69 49.167 107 69.5s72 37.833 102 52.5l4 2c1.33301 0.666992 2.66602 1 3.99902 1
c4.66699 0 8.83398 -1.66699 12.501 -5s5.5 -7.33301 5.5 -12v-2l-15.5 -44.5l-15.5 -44.5c-10 -32 -19.333 -64 -28 -96l-27 -96c22 6 44.167 10 66.5 12s44.833 3 67.5 3c22 0 44 -0.5 66 -1.5s44 -1.5 66 -1.5c20.667 0 41.167 0.666992 61.5 2s40.5 4.33301 60.5 9
c10.667 33.333 22 66.166 34 98.499s25.667 64.5 41 96.5l16 33c5.33301 11.333 11.333 21.666 18 30.999c2.66699 4 6.66699 6 12 6c4 0 7.83301 -1.33301 11.5 -4s5.5 -6.66699 5.5 -12c0 -1.33301 -1.83301 -7.83301 -5.5 -19.5l-13.5 -43l-18 -56l-19 -57.5l-16 -48
c-4.66699 -14 -7.66699 -23.333 -9 -28c0 -0.666992 0.166992 -1.33398 0.5 -2.00098s0.5 -1.33398 0.5 -2.00098c0 -4 -1.66699 -7 -5 -9l-31 -99.5c-10.667 -35 -20.334 -70.5 -29.001 -106.5s-15.667 -71.833 -21 -107.5s-8 -69.834 -8 -102.501
c0 -8 0.333008 -17.667 1 -29s2.66699 -22.166 6 -32.499s8.16602 -19 14.499 -26s15.5 -10.5 27.5 -10.5c11.333 0 24.333 3.5 39 10.5s29 14.5 43 22.5s26.167 15.5 36.5 22.5s16.5 10.5 18.5 10.5c4 0 7.66699 -1.83301 11 -5.5s5 -7.5 5 -11.5z" />
    <glyph glyph-name="I" unicode="I" horiz-adv-x="528" 
d="M753 757c0 -5.33301 -2 -9.00293 -6 -11.0029c-20.667 -10 -43.167 -17.5 -67.5 -22.5s-49.166 -8.5 -74.499 -10.5s-50.5 -2.83301 -75.5 -2.5s-48.833 0.5 -71.5 0.5c-4 -52 -13.667 -107.667 -29 -167s-34 -118.666 -56 -177.999s-45.833 -117.166 -71.5 -173.499
s-50.834 -107.5 -75.501 -153.5c20 -1.33301 39.833 -2.33301 59.5 -3s39.167 -1 58.5 -1c16.667 0 33.167 0.5 49.5 1.5s32.5 2.83301 48.5 5.5c4.66699 1.33301 9 2.33301 13 3s8.33301 1.66699 13 3c3.33301 0.666992 6.16602 1.66699 8.49902 3s5.16602 2 8.49902 2
s6.83301 -2.16699 10.5 -6.5s5.5 -8.16602 5.5 -11.499c0 -5.33301 -2 -9 -6 -11c-21.333 -10 -44.5 -17.5 -69.5 -22.5s-50.5 -8.33301 -76.5 -10s-51.833 -2.33398 -77.5 -2.00098s-50.167 0.5 -73.5 0.5c-2 -2 -4.33301 -3 -7 -3s-5.33398 1 -8.00098 3h-16
c-35.333 -0.666992 -69.5 -5.5 -102.5 -14.5s-65.5 -20.167 -97.5 -33.5c-8 -3.33301 -16 -7.16602 -24 -11.499s-16.333 -8.16602 -25 -11.499h-3c-4 0 -7.83301 1.83301 -11.5 5.5s-5.5 7.5 -5.5 11.5c0 2.66699 0.666992 5.33398 2 8.00098c14.667 18 32 33.167 52 45.5
s41.333 22.333 64 30s45.834 13.167 69.501 16.5s46.5 5 68.5 5c6 0 12 -0.166992 18 -0.5s12 -0.5 18 -0.5l73.5 177c23.667 59.333 45.834 119.666 66.501 180.999c17.333 52 32.333 104.167 45 156.5s27.667 104.5 45 156.5h-1c-35.333 0 -69.5 -4.5 -102.5 -13.5
s-65.5 -20.5 -97.5 -34.5c-8 -3.33301 -16.167 -7 -24.5 -11s-16.5 -7.66699 -24.5 -11l-3 -1c-4 0 -8 2 -12 6s-6 8 -6 12c0 2.66699 1 5 3 7c15.333 18 33.166 33.333 53.499 46s42 22.667 65 30s46.5 12.666 70.5 15.999s47.333 5 70 5c30.667 0 61 -1 91 -3
s60.333 -3 91 -3c16.667 0 33.334 0.5 50.001 1.5s33.334 2.83301 50.001 5.5c4.66699 1.33301 9.16699 2.33301 13.5 3s8.5 1.66699 12.5 3l9 3.5c2.66699 1 5.66699 1.5 9 1.5s6.83301 -2 10.5 -6s5.5 -7.66699 5.5 -11z" />
    <glyph glyph-name="J" unicode="J" horiz-adv-x="387" 
d="M531 751c0 -4.66699 -2.99414 -9.49805 -8.99414 -14.498s-10.667 -9.16699 -14 -12.5c-6.66699 -7.33301 -13 -15.166 -19 -23.499l-18 -25.5c-40 -56.667 -74.5 -116.167 -103.5 -178.5s-55.167 -125.833 -78.5 -190.5c-14 -39.333 -26.167 -79.333 -36.5 -120
l-30 -122.5c-9.66699 -41 -19.834 -81.833 -30.501 -122.5s-23.334 -80.667 -38.001 -120c-14 -38 -30.667 -73.5 -50 -106.5s-42 -61.5 -68 -85.5s-56.167 -42.833 -90.5 -56.5s-73.5 -20.5 -117.5 -20.5c-32 0 -63.5 4.83301 -94.5 14.5s-59.167 24.5 -84.5 44.5
c-24.667 19.333 -42.334 42 -53.001 68s-16 54 -16 84c0 37.333 6.83301 74.666 20.5 111.999s32 72.833 55 106.5s49.333 64 79 91s60.834 48.5 93.501 64.5c4 1.33301 6.66699 2 8 2c4 0 7.33301 -1.5 10 -4.5s4 -6.5 4 -10.5c0 -6 -2.66699 -10.667 -8 -14l-21 -12
c-6.66699 -4 -13.334 -8.33301 -20.001 -13c-33.333 -23.333 -62.333 -51 -87 -83s-45.334 -66.333 -62.001 -103c-9.33301 -20.667 -16.666 -41.834 -21.999 -63.501s-8 -43.5 -8 -65.5c0 -24.667 4.16699 -47.667 12.5 -69s22.166 -39.666 41.499 -54.999
c21.333 -16 45.333 -27.667 72 -35s52.667 -11 78 -11c38.667 0 72.834 6.16699 102.501 18.5s55.5 29.333 77.5 51s41.167 47 57.5 76s30.5 60.167 42.5 93.5c14.667 39.333 27.167 79.333 37.5 120s20 81.5 29 122.5s18.5 81.833 28.5 122.5s22 81 36 121
c21.333 60 46.166 118.5 74.499 175.5s61.5 110.833 99.5 161.5l-36.5 -18c-12.333 -6 -24.166 -12.667 -35.499 -20c-28.667 -17.333 -56.667 -37.666 -84 -60.999s-47 -51 -59 -83c-2.66699 -6 -4.5 -11.833 -5.5 -17.5s-2.16699 -11.5 -3.5 -17.5
c-0.666992 -2.66699 -2.33398 -4.83398 -5.00098 -6.50098s-5.33398 -2.5 -8.00098 -2.5s-6.16699 1.16699 -10.5 3.5s-6.5 5.16602 -6.5 8.49902c0 24.667 4.5 47.667 13.5 69s20.667 41.166 35 59.499s30.833 35 49.5 50s37.667 28.5 57 40.5
c31.333 19.333 63.5 38 96.5 56s66.833 33.333 101.5 46h3c3.33301 0 7.16602 -2 11.499 -6s6.5 -8 6.5 -12z" />
    <glyph glyph-name="K" unicode="K" horiz-adv-x="748" 
d="M820 748c0 -2 -1.66797 -7.32617 -5.00098 -15.9932s-5.33301 -14.334 -6 -17.001c-14.667 -36 -36.167 -67 -64.5 -93s-58.833 -48.333 -91.5 -67c-39.333 -22 -79.833 -41 -121.5 -57s-82.5 -33.667 -122.5 -53c22 -17.333 40 -37.5 54 -60.5s25.667 -47.833 35 -74.5
s16.5 -53.834 21.5 -81.501s11.167 -55.167 18.5 -82.5l12 -46.5c4 -15.667 9.66699 -31.167 17 -46.5c8 -18 18.167 -32.5 30.5 -43.5s29.166 -16.5 50.499 -16.5c14.667 0 30.167 2.83301 46.5 8.5s31.666 12 45.999 19s26.5 13.5 36.5 19.5s16 9 18 9
c4 0 7.66699 -1.66699 11 -5s5 -7.33301 5 -12s-1.66699 -7.66699 -5 -9c-11.333 -9.33301 -23.5 -17.833 -36.5 -25.5s-25.833 -14.834 -38.5 -21.501c-14 -7.33301 -28.667 -13.333 -44 -18s-31 -7 -47 -7c-25.333 0 -46.5 5.83301 -63.5 17.5s-31 26.334 -42 44.001
s-20 37.167 -27 58.5s-13.167 42 -18.5 62c-7.33301 26 -14.166 52.167 -20.499 78.5s-13.833 52.5 -22.5 78.5c-6.66699 21.333 -14.5 42.166 -23.5 62.499s-20.167 39.833 -33.5 58.5c-17.333 -54 -36.166 -108 -56.499 -162s-47.166 -104 -80.499 -150
c-13.333 -18 -28.5 -34.833 -45.5 -50.5s-35.167 -29.334 -54.5 -41.001s-40 -20.667 -62 -27s-44.333 -9.5 -67 -9.5c-3.33301 0 -6.33301 1.66699 -9 5s-4 6.66602 -4 9.99902c0 8 3.66699 12.667 11 14c14 3.33301 27 6.16602 39 8.49902s24.667 6.16602 38 11.499
c30.667 14 57.334 33.333 80.001 58s42.5 52.167 59.5 82.5s31.833 62 44.5 95s24 64.167 34 93.5c8.66699 26.667 16.667 53.667 24 81s15 54.5 23 81.5s16.5 53.833 25.5 80.5s19.833 52.667 32.5 78c-18.667 -11.333 -37.5 -21.5 -56.5 -30.5
s-37.833 -19.167 -56.5 -30.5c-26.667 -17.333 -52.834 -37.166 -78.501 -59.499s-44.167 -49.166 -55.5 -80.499c-2.66699 -6.66699 -4.33398 -13 -5.00098 -19s-2 -12.667 -4 -20c-0.666992 -2.66699 -2.33398 -4.83398 -5.00098 -6.50098s-5.66699 -2.5 -9 -2.5
c-7.33301 0 -11.833 2.16699 -13.5 6.5s-2.5 9.16602 -2.5 14.499c0 26 5.5 50.5 16.5 73.5s25.667 44.5 44 64.5s39.166 38.5 62.499 55.5s47.5 32.667 72.5 47s49.833 27.166 74.5 38.499l67 31c1.33301 0.666992 2.5 1.16699 3.5 1.5s2.16699 0.5 3.5 0.5
c4.66699 0 8.83398 -1.5 12.501 -4.5s5.5 -6.83301 5.5 -11.5v-3l-15.5 -39.5l-14.5 -39.5c-10 -28 -19.333 -56.167 -28 -84.5l-26 -85.5c34.667 20.667 70.334 39.334 107.001 56.001s72.334 35.667 107.001 57c24.667 14.667 46.667 31.334 66 50.001
s38.333 38.667 57 60c7.33301 8 14.333 16.667 21 26s13.667 17.666 21 24.999c2 2.66699 5 4 9 4c2.66699 0 6.5 -1.83301 11.5 -5.5s7.5 -7.16699 7.5 -10.5z" />
    <glyph glyph-name="L" unicode="L" horiz-adv-x="778" 
d="M830 58c0 -2.66699 -1.33691 -5.33301 -4.00391 -8c-17.333 -18.667 -36.833 -34 -58.5 -46s-44.334 -21.667 -68.001 -29s-48.167 -12.5 -73.5 -15.5s-50 -4.5 -74 -4.5c-21.333 0 -42.666 0.833008 -63.999 2.5s-42.666 3.83398 -63.999 6.50098
c-38 5.33301 -75.833 9.66602 -113.5 12.999s-75.834 5 -114.501 5c-15.333 0 -30.666 -0.333008 -45.999 -1s-30.666 -1.66699 -45.999 -3c-2 -2 -4.33301 -4 -7 -6s-5.66699 -3 -9 -3c-4 0 -7.66699 1.66699 -11 5s-5 7.33301 -5 12c0 2 0.333008 3.66699 1 5
c0 0.666992 -0.166992 1.16699 -0.5 1.5s-0.5 1.16602 -0.5 2.49902c0 4.66699 1.66699 7.83398 5 9.50098s6.66602 3.16699 9.99902 4.5c20.667 27.333 39.834 56 57.501 86s34 60.5 49 91.5s29.333 62.333 43 94l40.5 95.5c18 41.333 37.5 82.5 58.5 123.5
s45.167 79.5 72.5 115.5s58.666 67.833 93.999 95.5s76 48.5 122 62.5h2c3.33301 0 6.5 -2 9.5 -6s4.5 -7.66699 4.5 -11c0 -5.33301 -2.33301 -9.33301 -7 -12c-13.333 -6.66699 -25.666 -12.334 -36.999 -17.001s-23.666 -11.667 -36.999 -21
c-29.333 -20 -55.666 -43.5 -78.999 -70.5s-44.333 -55.833 -63 -86.5s-35.5 -62.5 -50.5 -95.5l-42.5 -97.5c-12 -28 -23.5 -56.333 -34.5 -85s-22.833 -57 -35.5 -85s-26.834 -55.167 -42.501 -81.5s-33.5 -51.166 -53.5 -74.499c24.667 4 50 6 76 6
c28.667 0 57.5 -1.83301 86.5 -5.5l86.5 -11.5l86 -11.5c28.667 -3.66699 57.667 -5.5 87 -5.5c33.333 0 66 3 98 9s62.667 17.667 92 35c6.66699 4 12.834 8.16699 18.501 12.5l18.5 13.5c2 2 4.33301 3 7 3c3.33301 0 6.83301 -2 10.5 -6s5.5 -7.66699 5.5 -11z" />
    <glyph glyph-name="M" unicode="M" horiz-adv-x="956" 
d="M1018 13c0 -3.33301 -1.67285 -6.66602 -5.00586 -9.99902c-8 -7.33301 -18.333 -15.333 -31 -24s-26 -16.834 -40 -24.501s-28 -14.167 -42 -19.5s-26.333 -8 -37 -8c-13.333 0 -25.166 2.66699 -35.499 8s-19.5 12.5 -27.5 21.5s-14.333 19.167 -19 30.5
s-7.66699 23 -9 35l-4 37.5c-1.33301 12.333 -2 24.833 -2 37.5c0 32 3.33301 69.167 10 111.5s15 85.666 25 129.999s21 87.333 33 129s23.667 77.834 35 108.501l-46.5 -73l-47.5 -71l-43 -64c-14.667 -21.333 -30.167 -42.333 -46.5 -63s-33.666 -40 -51.999 -58
s-38.166 -34 -59.499 -48c-1.33301 -0.666992 -3.33301 -1 -6 -1c-3.33301 0 -6.66602 1.33301 -9.99902 4s-5.66602 5.66699 -6.99902 9l-1 -1c-0.666992 0 -1 0.333008 -1 1s-0.333008 1.33398 -1 2.00098c-6.66699 19.333 -11.5 39.333 -14.5 60
s-5.16699 41.334 -6.5 62.001c-1.33301 20 -2.5 40 -3.5 60s-2.16699 40 -3.5 60c-2.66699 36 -5.16699 72.167 -7.5 108.5s-5.16602 72.833 -8.49902 109.5c-22.667 -56.667 -43.667 -113.667 -63 -171s-40 -114.666 -62 -171.999
c-16 -41.333 -33.667 -81.666 -53 -120.999s-42.333 -76.666 -69 -111.999c-14 -18 -29.667 -34.667 -47 -50s-36 -28.666 -56 -39.999s-41.167 -20.166 -63.5 -26.499s-44.833 -9.5 -67.5 -9.5c-3.33301 0 -6.33301 1.66699 -9 5s-4 6.66602 -4 9.99902
c0 8 3.66699 12.667 11 14c14 3.33301 27.167 6.16602 39.5 8.49902s25.166 6.16602 38.499 11.499c31.333 14 58.833 33.333 82.5 58s44.834 52 63.501 82s34.834 61.333 48.501 94s26.167 64 37.5 94c10 26.667 19.333 53.667 28 81l26.5 81.5c9 27 18.667 53.833 29 80.5
s22.5 52.667 36.5 78c-18.667 -11.333 -37.667 -21.5 -57 -30.5s-38.333 -19.167 -57 -30.5c-14 -8 -28 -16.833 -42 -26.5s-27.333 -20.334 -40 -32.001s-24.167 -24.167 -34.5 -37.5s-18.5 -27.666 -24.5 -42.999c-2.66699 -6.66699 -4.66699 -13.167 -6 -19.5
s-3 -12.833 -5 -19.5c-0.666992 -3.33301 -2.33398 -5.83301 -5.00098 -7.5s-5.33398 -2.5 -8.00098 -2.5s-6 1.33301 -10 4s-6 5.33398 -6 8.00098c0 24.667 4.33301 47.667 13 69s20.334 41.166 35.001 59.499s31.167 35.166 49.5 50.499s37.166 29 56.499 41
c30.667 19.333 63 38.166 97 56.499s68 33.166 102 44.499h2c6.66699 0 11.667 -2.66699 15 -8c2 -1.33301 3.33301 -3.33301 4 -6s0.333984 -5 -0.999023 -7c11.333 -44.667 20 -89.834 26 -135.501s11.333 -91.5 16 -137.5l9.5 -98.5c3 -32.333 3.5 -65.166 1.5 -98.499
l77 98.5c26 32.333 50.667 65.5 74 99.5l77 110.5l78 108.5l28.5 37c9.66699 12.667 19.5 24.667 29.5 36c2.66699 2.66699 5.66699 4 9 4c4 0 8.33301 -2.16699 13 -6.5s7 -8.5 7 -12.5v-2c-20.667 -74.667 -43.334 -148 -68.001 -220s-45.667 -146 -63 -222
c-8 -36 -15.167 -71.833 -21.5 -107.5s-9.5 -71.5 -9.5 -107.5c0 -9.33301 0.333008 -20.333 1 -33s2.66699 -24.834 6 -36.501s8.5 -21.5 15.5 -29.5s17.167 -12 30.5 -12c12 0 25.333 3.16699 40 9.5s28.834 13.5 42.501 21.5l35.5 21.5c10 6.33301 16 9.5 18 9.5
c4 0 7.66699 -1.66699 11 -5s5 -7 5 -11z" />
    <glyph glyph-name="N" unicode="N" horiz-adv-x="764" 
d="M1077 800c0 -8 -4 -12.998 -12 -14.998c-14.667 -3.33301 -28.334 -6.16602 -41.001 -8.49902s-26.334 -6.5 -41.001 -12.5c-33.333 -14.667 -62.5 -35.167 -87.5 -61.5s-47.333 -55.5 -67 -87.5s-36.667 -65.333 -51 -100s-27.5 -68 -39.5 -100s-24 -67.167 -36 -105.5
s-24.833 -76.666 -38.5 -114.999s-29 -75.166 -46 -110.499s-36.833 -66 -59.5 -92c-2 -2 -4.5 -3.33301 -7.5 -4s-6.16699 -1 -9.5 -1c-6 0 -10 2.66699 -12 8c-10 25.333 -17.5 53.166 -22.5 83.499s-9.16699 59.166 -12.5 86.499c-10 86.667 -18.167 173.167 -24.5 259.5
s-17.5 172.166 -33.5 257.499c-23.333 -58.667 -45 -117.334 -65 -176.001s-41.333 -117.334 -64 -176.001c-16 -41.333 -33.5 -81.666 -52.5 -120.999s-42.167 -76.666 -69.5 -111.999c-14 -18 -29.667 -34.667 -47 -50s-36 -28.666 -56 -39.999s-41 -20.166 -63 -26.499
s-44.667 -9.5 -68 -9.5c-3.33301 0 -6.16602 1.66699 -8.49902 5s-3.5 6.66602 -3.5 9.99902c0 8 3.66699 12.667 11 14c13.333 3.33301 26.166 6.16602 38.499 8.49902s25.166 6.16602 38.499 11.499c31.333 14 58.833 33.333 82.5 58s44.834 52 63.501 82
s34.834 61.333 48.501 94s26.167 64 37.5 94c10 26.667 19.5 53.667 28.5 81l27 81.5c9 27 18.667 53.833 29 80.5s22.166 52.667 35.499 78c-18.667 -11.333 -37.667 -21.5 -57 -30.5s-38.333 -19.167 -57 -30.5c-26.667 -16 -53.167 -35 -79.5 -57
s-46.166 -48 -59.499 -78c-3.33301 -7.33301 -5.66602 -14.5 -6.99902 -21.5s-3 -14.167 -5 -21.5c-2 -6.66699 -6.66699 -10 -14 -10c-2 0 -5.16699 1.33301 -9.5 4s-6.5 5.33398 -6.5 8.00098c0 24.667 4.33301 47.667 13 69s20.334 41.166 35.001 59.499
s31.334 35.166 50.001 50.499s37.667 29 57 41c31.333 19.333 63.5 38 96.5 56s66.833 33 101.5 45h2c5.33301 0 10.166 -2 14.499 -6s5.83301 -8.66699 4.5 -14c19.333 -64.667 34 -129.667 44 -195s19 -131.333 27 -198l16 -135.5c5.33301 -45 9.33301 -90.5 12 -136.5
c24.667 60.667 47.167 121.5 67.5 182.5s42.166 121.833 65.499 182.5c17.333 44 36 86.833 56 128.5s44 81.167 72 118.5c14.667 18.667 31.167 36.167 49.5 52.5s38 30.666 59 42.999s43.167 22 66.5 29s47 10.5 71 10.5c3.33301 0 6.33301 -1.66699 9 -5
s4 -6.66602 4 -9.99902z" />
    <glyph glyph-name="O" unicode="O" 
d="M742 566c0 -40 -4.99902 -78.668 -14.999 -116.001s-23.333 -73.333 -40 -108s-36.167 -68.334 -58.5 -101.001s-45.5 -64 -69.5 -94c-16 -20 -34.833 -40.333 -56.5 -61s-44.834 -39.667 -69.501 -57s-50.5 -31.5 -77.5 -42.5s-53.833 -16.5 -80.5 -16.5
c-22 0 -43.333 3.5 -64 10.5s-39.334 16.833 -56.001 29.5s-30.5 28.167 -41.5 46.5s-17.5 39.166 -19.5 62.499c-0.666992 6 -1.16699 12.167 -1.5 18.5s-0.5 12.5 -0.5 18.5c0 34 3.66699 67 11 99s17.166 63.333 29.499 94s26.666 60.334 42.999 89.001s33.5 57 51.5 85
l35.5 53c11.667 18 24.167 35.667 37.5 53c4 4 8 6 12 6s7.5 -1.5 10.5 -4.5s4.5 -6.5 4.5 -10.5c0 -2 -0.666992 -5 -2 -9l-65.5 -102.5c-22.333 -35 -42.666 -71 -60.999 -108s-33.333 -75 -45 -114s-17.5 -79.5 -17.5 -121.5v-19.5
c0 -6.33301 0.666992 -13.166 2 -20.499c2 -17.333 7 -32.5 15 -45.5s18 -24.167 30 -33.5s25.667 -16.333 41 -21s31 -7 47 -7c23.333 0 46.833 5.16699 70.5 15.5s46.334 23.333 68.001 39s42 33 61 52s35.5 37.167 49.5 54.5c21.333 26.667 42 55.167 62 85.5
s37.833 61.833 53.5 94.5s28.167 66.334 37.5 101.001s14 69.667 14 105c0 22.667 -3 44.167 -9 64.5s-15.167 38 -27.5 53s-27.666 26.833 -45.999 35.5s-39.833 13 -64.5 13c-29.333 0 -56.833 -5 -82.5 -15s-50.834 -22.333 -75.501 -37
c-2.66699 -1.33301 -5.33398 -2 -8.00098 -2c-4.66699 0 -8.5 1.5 -11.5 4.5s-4.5 6.5 -4.5 10.5s2 8 6 12c25.333 21.333 54.833 39 88.5 53s66.834 21 99.501 21c30.667 0 57.834 -5.66699 81.501 -17s43.5 -26.666 59.5 -45.999s28.167 -41.833 36.5 -67.5
s12.5 -52.834 12.5 -81.501z" />
    <glyph glyph-name="P" unicode="P" horiz-adv-x="695" 
d="M777 577c0 -36 -6.50195 -69.9932 -19.502 -101.993s-30.5 -61.833 -52.5 -89.5s-47.5 -52.5 -76.5 -74.5s-60 -40.667 -93 -56s-66.833 -27.166 -101.5 -35.499s-68.334 -12.5 -101.001 -12.5c-3.33301 0 -7.33301 -0.166992 -12 -0.5s-9.66699 -0.166016 -15 0.500977
s-10.333 1.5 -15 2.5s-8 3.16699 -10 6.5c-8.66699 -17.333 -17.834 -34.5 -27.501 -51.5s-20.5 -33.167 -32.5 -48.5c-26.667 -36 -60 -65.833 -100 -89.5s-83 -35.5 -129 -35.5c-3.33301 0 -6.16602 1.66699 -8.49902 5s-3.5 6.66602 -3.5 9.99902
c0 8 3.66699 12.667 11 14c13.333 3.33301 26 6.16602 38 8.49902s24.667 6.16602 38 11.499c30.667 13.333 57.5 32.166 80.5 56.499s43.167 51.5 60.5 81.5s32.333 61.167 45 93.5s24 63.166 34 92.499c8.66699 26.667 16.834 53.667 24.501 81l23.5 81.5
c8 27 16.667 53.833 26 80.5s20.333 52.667 33 78c-18.667 -11.333 -37.667 -21.5 -57 -30.5s-38.333 -19.167 -57 -30.5c-13.333 -8 -26.833 -16.833 -40.5 -26.5s-26.5 -20.167 -38.5 -31.5s-22.833 -23.5 -32.5 -36.5s-17.5 -27.167 -23.5 -42.5
c-2.66699 -6.66699 -4.5 -13.167 -5.5 -19.5s-2.16699 -13.166 -3.5 -20.499c-1.33301 -3.33301 -3.33301 -5.83301 -6 -7.5s-5.33398 -2.5 -8.00098 -2.5c-7.33301 0 -11.833 2.16699 -13.5 6.5s-2.5 9.16602 -2.5 14.499c0 22.667 4.33301 44.167 13 64.5
s19.834 39.333 33.501 57s29.334 33.834 47.001 48.501s35.5 27.667 53.5 39c30 19.333 61.667 38.166 95 56.499s66.666 33.166 99.999 44.499h2c4 0 8.16699 -1.66699 12.5 -5s6.5 -7.33301 6.5 -12c0 -0.666992 -1.16699 -4.33398 -3.5 -11.001l-8 -22l-9 -23
c-3 -7.33301 -4.83301 -12 -5.5 -14c12 11.333 25.333 22.166 40 32.499s30 19.5 46 27.5s32.5 14.333 49.5 19s34.167 7 51.5 7c26.667 0 49.334 -5.66699 68.001 -17s33.834 -26 45.501 -44s20.167 -38.333 25.5 -61s8 -45.334 8 -68.001zM725.998 576.007
c0 14.667 -1.49512 30.168 -4.49512 46.501s-8.16699 31 -15.5 44s-17.166 23.833 -29.499 32.5s-27.5 13 -45.5 13c-10.667 0 -21.334 -1.33301 -32.001 -4s-21 -6 -31 -10c-28.667 -11.333 -55.334 -26.833 -80.001 -46.5s-46.667 -41.5 -66 -65.5
c-3.33301 -4 -6.83301 -8.5 -10.5 -13.5s-6.83398 -9.83301 -9.50098 -14.5c-3.33301 -7.33301 -6.83301 -17.833 -10.5 -31.5s-6.83398 -24.834 -9.50098 -33.501l-23 -72.5l-24 -72.5l-20.5 -55.5c-7 -18.333 -14.5 -36.5 -22.5 -54.5
c3.33301 1.33301 6.66602 1.83301 9.99902 1.5s6.66602 -0.5 9.99902 -0.5c44 0 90.167 8.5 138.5 25.5s93 40.5 134 70.5s74.833 65.5 101.5 106.5s40 85.833 40 134.5z" />
    <glyph glyph-name="Q" unicode="Q" horiz-adv-x="691" 
d="M737 566c0 -40 -4.99609 -78.6709 -14.9961 -116.004s-23.5 -73.5 -40.5 -108.5s-36.5 -68.667 -58.5 -101s-45 -63.5 -69 -93.5c-21.333 -27.333 -44.833 -52.666 -70.5 -75.999s-53.5 -43.666 -83.5 -60.999c12 -14.667 25 -25 39 -31s30.333 -9 49 -9
c18 0 37.667 2.66699 59 8c1.33301 0.666992 5.16602 2 11.499 4s9.83301 3 10.5 3c3.33301 0 6.83301 -2.16699 10.5 -6.5s5.5 -8.16602 5.5 -11.499c0 -5.33301 -5 -10.333 -15 -15s-21.333 -8.66699 -34 -12s-25.167 -5.83301 -37.5 -7.5s-20.833 -2.5 -25.5 -2.5
c-24.667 0 -46.667 5 -66 15s-36.666 24.667 -51.999 44c-14 -5.33301 -28 -10 -42 -14s-28.667 -6 -44 -6c-22 0 -43.333 3.5 -64 10.5s-39.167 17 -55.5 30s-30 28.833 -41 47.5s-17.5 39.334 -19.5 62.001c-1.33301 6 -2 12 -2 18v19c0 34 3.66699 67 11 99
s17.166 63.333 29.499 94s26.666 60.334 42.999 89.001s33.5 57 51.5 85l36 54c12.667 19.333 25 36.666 37 51.999c4 4 8 6 12 6s7.5 -1.5 10.5 -4.5s4.5 -6.5 4.5 -10.5c0 -2 -0.666992 -5 -2 -9l-49 -76c-16 -24.667 -31.333 -49.5 -46 -74.5
s-28.334 -50.833 -41.001 -77.5s-23.667 -55 -33 -85c34 -2.66699 62.167 -12.334 84.5 -29.001s41.333 -37.167 57 -61.5s29.5 -50.333 41.5 -78s24.667 -53.834 38 -78.501c28 16 53.833 35 77.5 57s45.167 45.667 64.5 71c21.333 26.667 42.166 55.167 62.499 85.5
s38.333 61.833 54 94.5s28.167 66.334 37.5 101.001s14 69.667 14 105c0 22.667 -3 44.167 -9 64.5s-15.167 38 -27.5 53s-27.666 26.833 -45.999 35.5s-39.833 13 -64.5 13c-29.333 0 -56.833 -5.16699 -82.5 -15.5s-50.834 -22.5 -75.501 -36.5
c-2.66699 -1.33301 -5.33398 -2 -8.00098 -2c-4.66699 0 -8.5 1.5 -11.5 4.5s-4.5 6.5 -4.5 10.5s2 8 6 12c12 10.667 25.5 20.5 40.5 29.5s30.833 16.833 47.5 23.5s33.5 11.834 50.5 15.501s33.5 5.5 49.5 5.5c30.667 0 57.834 -5.66699 81.501 -17
s43.5 -26.666 59.5 -45.999s28.167 -41.833 36.5 -67.5s12.5 -52.834 12.5 -81.501zM327.004 29.9961c-13.333 22 -25.332 44.668 -35.999 68.001s-22.5 45.333 -35.5 66s-28.5 39.5 -46.5 56.5s-40.667 30.5 -68 40.5c-3.33301 -15.333 -5.83301 -31 -7.5 -47
s-2.5 -31.667 -2.5 -47v-21c0 -6.66699 0.666992 -13.667 2 -21c2 -17.333 7 -32.5 15 -45.5s18 -24.167 30 -33.5s25.667 -16.333 41 -21s31 -7 47 -7c11.333 0 21.666 1.16699 30.999 3.5s19.333 5.16602 30 8.49902z" />
    <glyph glyph-name="R" unicode="R" horiz-adv-x="755" 
d="M826 50c0 -4.66699 -1.66602 -7.66504 -4.99902 -8.99805c-10 -8 -21.833 -16.167 -35.5 -24.5s-26.5 -15.166 -38.5 -20.499c-13.333 -7.33301 -27.5 -13.166 -42.5 -17.499s-30.5 -6.5 -46.5 -6.5c-30 0 -53.833 8.33301 -71.5 25s-32 38.167 -43 64.5
s-20.167 55.666 -27.5 87.999s-16.166 64.166 -26.499 95.499s-23.333 60.333 -39 87s-37.167 47.334 -64.5 62.001c-18.667 -49.333 -38.667 -97.666 -60 -144.999s-48 -92 -80 -134c-13.333 -18 -28.666 -34.667 -45.999 -50s-36 -28.833 -56 -40.5
s-41.167 -20.667 -63.5 -27s-44.833 -9.5 -67.5 -9.5c-4 0 -7.16699 1.66699 -9.5 5s-3.5 6.66602 -3.5 9.99902c0 8.66699 3.66699 13.667 11 15l39.5 7.5c12.333 2.33301 25.166 6.5 38.499 12.5c30.667 14 58 33.333 82 58s45.167 52 63.5 82s34.5 61.333 48.5 94
s26.667 64 38 94c15.333 39.333 29 78.833 41 118.5s25.667 79.167 41 118.5c0 4 1 7 3 9c5.33301 13.333 10.833 26 16.5 38s11.834 24 18.501 36c-18.667 -10.667 -37.667 -20.5 -57 -29.5s-38.333 -19.167 -57 -30.5c-28 -17.333 -55.5 -37.333 -82.5 -60
s-46.833 -50 -59.5 -82c-2.66699 -6 -4.5 -12 -5.5 -18s-2.5 -12.333 -4.5 -19c-0.666992 -2.66699 -2.33398 -4.83398 -5.00098 -6.50098s-5.33398 -2.5 -8.00098 -2.5s-6.16699 1.16699 -10.5 3.5s-6.5 5.16602 -6.5 8.49902c0 24.667 4.5 47.667 13.5 69
s20.667 41.166 35 59.499s30.833 35 49.5 50s37.667 28.5 57 40.5c29.333 18.667 61.5 37.5 96.5 56.5s68.833 34.167 101.5 45.5h3c4 0 8.16699 -1.83301 12.5 -5.5s6.5 -7.5 6.5 -11.5c0 -1.33301 -1.33301 -5 -4 -11s-5.5 -12.833 -8.5 -20.5l-9 -22
c-3 -7 -4.83301 -11.5 -5.5 -13.5c24.667 18 52.667 34.167 84 48.5s63 21.5 95 21.5c14 0 27.833 -2.16699 41.5 -6.5s25.667 -10.5 36 -18.5s18.666 -18 24.999 -30s9.5 -26 9.5 -42c0 -14.667 -2.5 -29.167 -7.5 -43.5s-11.5 -27.5 -19.5 -39.5
c-33.333 -50 -76 -90.833 -128 -122.5s-108 -50.5 -168 -56.5c18 -14 32.5 -30.333 43.5 -49s20.333 -38.334 28 -59.001s13.834 -42 18.501 -64s9.66699 -43.333 15 -64l11.5 -45.5c3.66699 -15 8.5 -29.833 14.5 -44.5c7.33301 -17.333 16.666 -31.333 27.999 -42
s27 -16 47 -16c14 0 29 2.83301 45 8.5s31 11.834 45 18.501s25.833 12.834 35.5 18.501s15.5 8.5 17.5 8.5c4.66699 0 8.5 -1.83301 11.5 -5.5s4.5 -7.83398 4.5 -12.501zM734.001 660.002c0 9.33301 -2.16504 17.167 -6.49805 23.5s-10 11.5 -17 15.5
s-14.5 6.83301 -22.5 8.5s-16 2.5 -24 2.5c-16.667 0 -33.834 -2.66699 -51.501 -8s-35 -12 -52 -20s-33.333 -17 -49 -27s-29.834 -20 -42.501 -30l-34.5 -95l-33.5 -95c30 4.66699 59.833 11.167 89.5 19.5s58.167 19.333 85.5 33s52.833 30.167 76.5 49.5
s44.167 42 61.5 68c5.33301 8 10 16.667 14 26s6 19 6 29z" />
    <glyph glyph-name="S" unicode="S" horiz-adv-x="623" 
d="M725 769c0 -6 -2.67188 -10.6592 -8.00488 -13.9922c-14 -8.66699 -30.5 -15.5 -49.5 -20.5s-38.5 -9 -58.5 -12s-39.833 -5.33301 -59.5 -7l-54.5 -4.5c-28 -2 -57 -5.33301 -87 -10s-57 -14.667 -81 -30l-9 -6c-4 -2.66699 -6.66699 -4.66699 -8 -6
c-6.66699 -7.33301 -11.667 -16.333 -15 -27s-5 -20.667 -5 -30c0 -20.667 5.33301 -38.667 16 -54s23.667 -29.333 39 -42l41.5 -34l42.5 -34c15.333 -12 31 -25 47 -39s30.667 -29 44 -45s24.166 -33.333 32.499 -52s12.5 -38.667 12.5 -60
c0 -28 -6.66699 -54.167 -20 -78.5s-28.666 -46.5 -45.999 -66.5c-30 -34 -65.5 -61 -106.5 -81s-84.5 -30 -130.5 -30c-32 0 -63.667 5.16699 -95 15.5s-59.333 25.166 -84 44.499s-44.667 42.833 -60 70.5s-23 59.167 -23 94.5c0 30 6.16699 61.5 18.5 94.5
s28.166 61.167 47.499 84.5c4 4 8 6 12 6s7.5 -1.5 10.5 -4.5s4.5 -6.5 4.5 -10.5c0 -3.33301 -1 -6.33301 -3 -9c-15.333 -23.333 -28.166 -47.666 -38.499 -72.999s-15.5 -52.666 -15.5 -81.999c0 -30 6.5 -56.5 19.5 -79.5s30 -42.5 51 -58.5s44.833 -28 71.5 -36
s53.667 -12 81 -12c42 0 79.333 8.83301 112 26.5s63 41.5 91 71.5c14.667 16.667 27 34 37 52s15 38.667 15 62c0 17.333 -3.33301 32.666 -10 45.999s-16 26.333 -28 39c-12.667 12.667 -25.5 24.5 -38.5 35.5l-40.5 33.5l-45.5 34c-17 12.667 -33.167 26.167 -48.5 40.5
s-29 29.666 -41 45.999s-19.667 33.166 -23 50.499c-1.33301 5.33301 -2.16602 10.666 -2.49902 15.999s-0.5 10.666 -0.5 15.999c0 22 3.66699 41.667 11 59s17.5 32.166 30.5 44.499s28.333 22.5 46 30.5s36.834 14 57.501 18
c18.667 3.33301 37.334 5.16602 56.001 5.49902s37.334 1.16602 56.001 2.49902c36 2 71.667 3.66699 107 5s70.333 7.66602 105 18.999c0.666992 0 1.33398 0.166992 2.00098 0.5s1.66699 0.5 3 0.5c4 0 7.5 -1.66699 10.5 -5s4.5 -7 4.5 -11z" />
    <glyph glyph-name="T" unicode="T" horiz-adv-x="582" 
d="M925 842c0 -4 -1.00293 -7.00293 -3.00293 -9.00293c-26 -24.667 -55.5 -43.834 -88.5 -57.501s-67.333 -24 -103 -31s-71.667 -11.5 -108 -13.5s-71.5 -3.66699 -105.5 -5c-4 -62.667 -14.333 -124.334 -31 -185.001s-35.334 -120.667 -56.001 -180
c-17.333 -51.333 -36.666 -101.5 -57.999 -150.5s-44 -97.5 -68 -145.5l-29.5 -59.5c-10.333 -21 -20.833 -40.167 -31.5 -57.5c-2 -4 -5.33301 -6 -10 -6c-4 0 -7.83301 1.5 -11.5 4.5s-5.5 6.83301 -5.5 11.5v3l29 66c10 22 19.667 44.333 29 67l56.5 140.5
c18.333 47 35.5 94.5 51.5 142.5c19.333 60 36.166 120.667 50.499 182s32.5 121.333 54.5 180c0.666992 0.666992 1.16699 1.33398 1.5 2.00098s0.833008 1.33398 1.5 2.00098l-90.5 -14.5c-31 -5 -61.5 -12 -91.5 -21s-58.667 -20.333 -86 -34s-52 -31.167 -74 -52.5
c-9.33301 -9.33301 -17.166 -18.666 -23.499 -27.999l-20.5 -29c-2 -4 -5.33301 -6 -10 -6c-4 0 -7.83301 1.33301 -11.5 4s-5.5 6.33398 -5.5 11.001c0 2.66699 0.333008 4.33398 1 5.00098c22 42.667 49.167 76.667 81.5 102s67.833 44.666 106.5 57.999
s79.334 22.5 122.001 27.5s85.334 8.83301 128.001 11.5c34.667 2 68.334 4.5 101.001 7.5s65 7.33301 97 13s63.833 13.334 95.5 23.001s63.167 22.167 94.5 37.5c1.33301 0.666992 3 1 5 1c4.66699 0 8.5 -1.83301 11.5 -5.5s4.5 -7.5 4.5 -11.5z" />
    <glyph glyph-name="U" unicode="U" horiz-adv-x="769" 
d="M815 748c-11.333 -31.333 -24.498 -64.999 -39.498 -100.999l-46 -112l-46 -119c-15 -40.667 -28.333 -80.667 -40 -120s-21.167 -77.833 -28.5 -115.5s-11 -72.834 -11 -105.501c0 -13.333 3 -26.333 9 -39s16.667 -19 32 -19c10.667 0 23.334 3 38.001 9
s28.834 12.833 42.501 20.5l36 20.5c10.333 6 16.5 9 18.5 9c4 0 7.5 -1.83301 10.5 -5.5s4.5 -7.5 4.5 -11.5s-1.66699 -7 -5 -9c-15.333 -13.333 -34.333 -26.666 -57 -39.999s-44 -22.666 -64 -27.999c-8.66699 -2.66699 -18.334 -4 -29.001 -4
c-17.333 0 -31.333 3.83301 -42 11.5s-19 17.5 -25 29.5s-10 25.167 -12 39.5s-3 28.5 -3 42.5c0 10 0.5 20 1.5 30s2.16699 20 3.5 30c-12 -18 -26.833 -38 -44.5 -60s-37 -42.5 -58 -61.5s-43.333 -34.833 -67 -47.5s-47.167 -19 -70.5 -19
c-20 0 -36.167 4.16699 -48.5 12.5s-21.833 19 -28.5 32s-11.167 27.5 -13.5 43.5s-3.5 32 -3.5 48c0 21.333 1.5 42.166 4.5 62.499s6.83301 40.5 11.5 60.5c17.333 78.667 38.666 155.667 63.999 231s57 148.666 95 219.999
c-19.333 -11.333 -38.833 -21.666 -58.5 -30.999s-39.167 -19.666 -58.5 -30.999c-26 -16 -51.833 -34.667 -77.5 -56s-44.5 -46.666 -56.5 -75.999c-3.33301 -6.66699 -5.5 -13 -6.5 -19s-2.5 -12.333 -4.5 -19c-1.33301 -6 -5.66602 -9 -12.999 -9
c-3.33301 0 -6.83301 1.33301 -10.5 4s-5.5 6 -5.5 10c0 23.333 4.16699 45.166 12.5 65.499s19.5 39.166 33.5 56.499s29.833 33.166 47.5 47.499s35.5 27.166 53.5 38.499c30 18.667 60.5 36.167 91.5 52.5s62.833 30.5 95.5 42.5c1.33301 2 3.16602 3.66699 5.49902 5
s4.5 2 6.5 2c4 0 7.83301 -1.5 11.5 -4.5s5.5 -6.83301 5.5 -11.5c0 -2 -0.333008 -3.33301 -1 -4l-35.5 -93l-42.5 -109.5l-43 -117.5c-14 -40 -26.5 -79.333 -37.5 -118s-20 -75.5 -27 -110.5s-10.5 -66.5 -10.5 -94.5c0 -9.33301 0.166992 -18.833 0.5 -28.5
s2 -18.5 5 -26.5s7.66699 -14.667 14 -20s15.5 -8 27.5 -8c16 0 32 4.33301 48 13c36 18.667 68.667 43.834 98 75.501s55.666 64.167 78.999 97.5l15 20c5.33301 7.33301 9.66602 14.333 12.999 21c2 4.66699 3.5 10 4.5 16s2.16699 11.667 3.5 17
c3.33301 10.667 6.33301 21.167 9 31.5s5.66699 21.166 9 32.499c20 63.333 41.5 125.833 64.5 187.5s51.5 121.167 85.5 178.5l15.5 26c5 8.66699 10.5 17 16.5 25c2 3.33301 5.33301 5 10 5c5.33301 0 9.5 -1.66699 12.5 -5s4.83301 -7.66602 5.5 -12.999z" />
    <glyph glyph-name="V" unicode="V" horiz-adv-x="714" 
d="M827 676c0 -31.333 -8.50293 -67.667 -25.5029 -109s-39.167 -84.5 -66.5 -129.5s-58 -90.5 -92 -136.5s-68.167 -89.5 -102.5 -130.5s-67.166 -78.167 -98.499 -111.5s-57.666 -59.333 -78.999 -78c-2.66699 -2.66699 -6.33398 -4 -11.001 -4
c-4 0 -7.66699 0.666992 -11 2s-5.66602 4.33301 -6.99902 9c-2.66699 11.333 -4.16699 24.5 -4.5 39.5s-0.5 28.167 -0.5 39.5c0 45.333 3.16699 90.166 9.5 134.499s12.166 88.833 17.499 133.5c5.33301 47.333 10.333 94.333 15 141s7 94 7 142c0 28 -1 56 -3 84
c-23.333 -19.333 -48.166 -34.833 -74.499 -46.5s-52.166 -25.167 -77.499 -40.5s-50.5 -33.5 -75.5 -54.5s-43.5 -45.5 -55.5 -73.5c-3.33301 -6.66699 -5.5 -13 -6.5 -19s-2.5 -12.667 -4.5 -20c-2.66699 -6 -7 -9 -13 -9c-5.33301 0 -9.5 1.66699 -12.5 5
s-4.5 7.33301 -4.5 12c0 36.667 11.5 70.5 34.5 101.5s51.167 58.667 84.5 83s68.833 45.666 106.5 63.999s71.167 33.5 100.5 45.5c4 2 7.66699 3 11 3c4 0 7.5 -2 10.5 -6s4.5 -8 4.5 -12c0 -2.66699 -1 -5 -3 -7c8 -30.667 13.333 -61.667 16 -93s4 -63 4 -95
c0 -35.333 -1.33301 -70.5 -4 -105.5s-5.66699 -70.167 -9 -105.5c-5.33301 -46 -10 -92 -14 -138s-9.66699 -92 -17 -138c16 22 37.333 49 64 81l85.5 104l92 117c31 40.667 59 80.834 84 120.501s45.333 77.334 61 113.001s23.5 67.5 23.5 95.5c0 16 -4 30.667 -12 44
c-8.66699 13.333 -20.667 23 -36 29s-30.333 10.333 -45 13c-4.66699 0.666992 -9.5 1 -14.5 1s-9.83301 0.666992 -14.5 2c-8 1.33301 -12 6 -12 14c0 10.667 5 16 15 16c20.667 0 40.667 -2.16699 60 -6.5s36.5 -11.333 51.5 -21s26.833 -22.667 35.5 -39
s13 -36.5 13 -60.5z" />
    <glyph glyph-name="W" unicode="W" horiz-adv-x="1135" 
d="M1288 725c0 -33.333 -8.83398 -71.998 -26.501 -115.998s-40.834 -90.167 -69.501 -138.5s-61 -97.166 -97 -146.499s-72 -96 -108 -140s-70.5 -83.667 -103.5 -119s-60.833 -63.333 -83.5 -84c-2.66699 -2.66699 -5.66699 -4 -9 -4
c-8.66699 0 -14.334 4.33301 -17.001 13l-3 3c-9.33301 24.667 -15.5 49.334 -18.5 74.001s-4.5 50 -4.5 76c0 36.667 0.833008 73.167 2.5 109.5s2.5 73.166 2.5 110.499c0 23.333 -0.666992 46.333 -2 69s-3.66602 45.667 -6.99902 69
c-26 -47.333 -52.833 -93.833 -80.5 -139.5l-86.5 -136.5l-84.5 -124c-29 -41.333 -62.833 -78 -101.5 -110c0 -4 -1.83301 -7.33301 -5.5 -10s-7.16699 -4 -10.5 -4c-8.66699 0 -14 3.66699 -16 11c-2.66699 11.333 -4 24.5 -4 39.5v39.5
c0 45.333 3.16699 90.166 9.5 134.499s12.166 88.833 17.499 133.5c5.33301 47.333 10.166 94.333 14.499 141s6.5 94 6.5 142c0 28 -1 56 -3 84c-22.667 -19.333 -47.167 -34.833 -73.5 -46.5s-52.166 -25.167 -77.499 -40.5s-50.5 -33.5 -75.5 -54.5
s-43.5 -45.5 -55.5 -73.5c-3.33301 -6.66699 -5.66602 -13 -6.99902 -19s-3 -12.667 -5 -20c-1.33301 -6 -5.66602 -9 -12.999 -9c-5.33301 0 -9.33301 1.66699 -12 5s-4 7.33301 -4 12c0 24.667 5.33301 48 16 70s24.834 42.5 42.501 61.5s37.834 36.667 60.501 53
s46 31.333 70 45s47.833 25.834 71.5 36.501l64.5 28c4 2 7.66699 3 11 3c4.66699 0 8.5 -2 11.5 -6s4.5 -8 4.5 -12c0 -2.66699 -1 -5 -3 -7c8 -30.667 13.167 -61.667 15.5 -93s3.5 -63 3.5 -95c0 -35.333 -1.16699 -70.5 -3.5 -105.5s-5.5 -70.167 -9.5 -105.5
c-4.66699 -42.667 -9 -85.334 -13 -128.001s-9 -85.667 -15 -129c21.333 31.333 43.166 61.666 65.499 90.999s44.166 59.666 65.499 90.999l69 101.5l69 101.5l32 49c10.667 16.667 21.667 32.667 33 48c2.66699 2.66699 6 4 10 4s7.66699 -1.5 11 -4.5
s5.66602 -6.16699 6.99902 -9.5c9.33301 -24 16.5 -49.167 21.5 -75.5s8.5 -53 10.5 -80s3.16699 -54 3.5 -81s0.5 -53.167 0.5 -78.5c0 -32 0.5 -63.5 1.5 -94.5s0.833008 -62.5 -0.5 -94.5c44.667 62 91.834 122 141.501 180s96.834 118.333 141.501 181l49 72
c18.667 28 36.167 57.167 52.5 87.5s30.333 60.666 42 90.999s17.5 57.833 17.5 82.5c0 8.66699 -0.833008 17.334 -2.5 26.001s-5.16699 16.667 -10.5 24c-9.33301 14.667 -22.666 25.334 -39.999 32.001s-34.333 11 -51 13c-4.66699 1.33301 -9.33398 1.83301 -14.001 1.5
s-9 0.166992 -13 1.5c-8 0.666992 -12 5.66699 -12 15c0 4 1.16699 7.5 3.5 10.5s5.83301 4.5 10.5 4.5c22.667 0 44.167 -2.33301 64.5 -7s38.333 -12.334 54 -23.001s28.167 -24.667 37.5 -42s14 -39 14 -65z" />
    <glyph glyph-name="X" unicode="X" horiz-adv-x="673" 
d="M837 696c0 -4 -1.5 -7.66699 -4.5 -11s-6.83301 -5 -11.5 -5c-2 0 -5.5 1.66699 -10.5 5s-11 7 -18 11s-15 7.66699 -24 11s-19.167 5 -30.5 5c-15.333 0 -30 -2.83301 -44 -8.5s-27.5 -12.834 -40.5 -21.501s-25.167 -18.667 -36.5 -30s-21.333 -22.333 -30 -33
c-23.333 -30 -45.5 -60.5 -66.5 -91.5s-41.167 -62.833 -60.5 -95.5c0.666992 -54 1.66699 -106.333 3 -157s8.33301 -102.667 21 -156c7.33301 -32.667 21.833 -57.5 43.5 -74.5s49.5 -25.5 83.5 -25.5c8 0 16 0.833008 24 2.5s14.667 2.5 20 2.5
c4.66699 0 8.33398 -1.66699 11.001 -5s4 -7.33301 4 -12c0 -5.33301 -2.66699 -9.66602 -8 -12.999c-4.66699 -2.66699 -10.667 -5 -18 -7s-14.833 -3.66699 -22.5 -5s-15.334 -2.33301 -23.001 -3s-13.834 -1 -18.501 -1c-30 0 -55 6.16699 -75 18.5
s-36.333 28.666 -49 48.999s-22.167 43.5 -28.5 69.5s-10.833 52.667 -13.5 80s-4 54.166 -4 80.499v70.5l-84.5 -148c-28.333 -48.667 -61.5 -95 -99.5 -139c-8.66699 -10 -18.167 -20.167 -28.5 -30.5s-21.333 -19.666 -33 -27.999s-24 -15 -37 -20
s-26.833 -7.5 -41.5 -7.5c-16.667 0 -32 3.16699 -46 9.5s-27 14.5 -39 24.5s-22.833 21.5 -32.5 34.5s-18.5 26.167 -26.5 39.5c-1.33301 2 -3.16602 5.16699 -5.49902 9.5s-5 9 -8 14s-5.5 9.66699 -7.5 14s-3 7.16602 -3 8.49902c0 4.66699 1.66699 8.33398 5 11.001
s7 4 11 4c4.66699 0 8.66699 -2 12 -6c3.33301 -4.66699 6.16602 -9.33398 8.49902 -14.001s5.16602 -9 8.49902 -13c11.333 -18.667 25.166 -37.167 41.499 -55.5s35.166 -30.833 56.499 -37.5c6.66699 -2 13.667 -3 21 -3c10.667 0 21.334 2.33301 32.001 7
s20.667 10.667 30 18s18 15.333 26 24s15.333 17 22 25c37.333 46.667 70.5 96.334 99.5 149.001l87.5 157l31 56v18c0 31.333 -1.16699 63.833 -3.5 97.5s-9.16602 65.167 -20.499 94.5c-12.667 34 -37.334 51 -74.001 51c-14 0 -30.167 -3.16699 -48.5 -9.5
s-35.666 -13.5 -51.999 -21.5l-42.5 -21.5c-12 -6.33301 -19 -9.5 -21 -9.5c-4 0 -7.5 1.66699 -10.5 5s-4.5 7 -4.5 11s1.66699 7.66699 5 11c9.33301 7.33301 21.666 15.333 36.999 24s31.5 16.834 48.5 24.501s33.667 14 50 19s30.5 7.5 42.5 7.5
c24 0 46.333 -6.5 67 -19.5s35.334 -31.167 44.001 -54.5c9.33301 -23.333 16.333 -47.333 21 -72s7.66699 -49.334 9 -74.001c12.667 21.333 28.167 45.333 46.5 72s38.833 51.667 61.5 75s46.834 42.833 72.501 58.5s52.5 23.5 80.5 23.5
c20.667 0 41.834 -4.83301 63.501 -14.5s39.167 -22.5 52.5 -38.5c2 -3.33301 3 -6.66602 3 -9.99902z" />
    <glyph glyph-name="Y" unicode="Y" horiz-adv-x="742" 
d="M819 559c0 -4 -1.00488 -6.99805 -3.00488 -8.99805c-24 -34.667 -46.5 -68.834 -67.5 -102.501s-40.833 -67.834 -59.5 -102.501s-35.834 -70.167 -51.501 -106.5s-30.167 -74.5 -43.5 -114.5c-13.333 -38.667 -24.5 -77.834 -33.5 -117.501l-27 -119.5
c-9 -40 -18.5 -79.833 -28.5 -119.5s-22.333 -78.834 -37 -117.501c-13.333 -34.667 -28.666 -67.5 -45.999 -98.5s-37.833 -58.333 -61.5 -82s-51.167 -42.334 -82.5 -56.001s-67.333 -20.5 -108 -20.5c-34.667 0 -67 5.5 -97 16.5s-56.167 26.667 -78.5 47
s-39.833 44.833 -52.5 73.5s-19 60.667 -19 96c0 36 5.5 72.333 16.5 109s26.167 71.834 45.5 105.501s42.333 64.334 69 92.001s55.667 50.167 87 67.5c2.66699 1.33301 5 2 7 2c4 0 7.5 -1.5 10.5 -4.5s4.5 -6.5 4.5 -10.5c0 -5.33301 -2.66699 -9.66602 -8 -12.999
c-6.66699 -5.33301 -13.334 -10.166 -20.001 -14.499s-13.334 -9.16602 -20.001 -14.499c-30 -24.667 -55.5 -53.334 -76.5 -86.001s-38.167 -67 -51.5 -103c-6.66699 -19.333 -12 -39.166 -16 -59.499s-6 -41.166 -6 -62.499c0 -30.667 5 -58 15 -82s24 -44.167 42 -60.5
s39.5 -28.833 64.5 -37.5s52.5 -13 82.5 -13c15.333 0 30.5 1.33301 45.5 4s29.833 7.33398 44.5 14.001c23.333 10 44.5 24.667 63.5 44s36 41.666 51 66.999s28.333 52.5 40 81.5s21.834 58.167 30.501 87.5s16.167 58 22.5 86s11.833 53.333 16.5 76l24 108.5
c8 36.333 17 72.5 27 108.5c-11.333 -14.667 -24.833 -30.5 -40.5 -47.5s-32.667 -32.667 -51 -47s-37.5 -26.333 -57.5 -36s-40 -14.5 -60 -14.5s-36.167 4.16699 -48.5 12.5s-21.666 19 -27.999 32s-10.666 27.5 -12.999 43.5s-3.5 32 -3.5 48
c0 21.333 1.33301 42.166 4 62.499s6.33398 40.5 11.001 60.5c17.333 78.667 38.666 155.667 63.999 231s57 148.666 95 219.999c-19.333 -11.333 -38.833 -21.666 -58.5 -30.999s-39.167 -19.666 -58.5 -30.999c-26 -16 -51.833 -34.667 -77.5 -56
s-44.5 -46.666 -56.5 -75.999c-2.66699 -6.66699 -4.66699 -13 -6 -19s-2.66602 -12.333 -3.99902 -19c-2 -6 -6.66699 -9 -14 -9c-3.33301 0 -6.83301 1.33301 -10.5 4s-5.5 6 -5.5 10c0 23.333 4.16699 45.166 12.5 65.499s19.5 39.166 33.5 56.499
s29.833 33.166 47.5 47.499s35.5 27.166 53.5 38.499c30 18.667 60.5 36.167 91.5 52.5s63.167 30.5 96.5 42.5c0.666992 2 2.16699 3.66699 4.5 5s4.5 2 6.5 2c4 0 7.83301 -1.5 11.5 -4.5s5.5 -6.83301 5.5 -11.5c0 -2 -0.333008 -3.33301 -1 -4l-35.5 -93l-42.5 -109.5
l-43 -118c-14 -40.333 -26.5 -79.666 -37.5 -117.999s-20 -75 -27 -110s-10.5 -66.5 -10.5 -94.5c0 -9.33301 0.166992 -18.833 0.5 -28.5s2 -18.5 5 -26.5s7.66699 -14.667 14 -20s15.5 -8 27.5 -8c8.66699 0 17 1.33301 25 4s15.667 5.66699 23 9c24 12 46 26.833 66 44.5
s38.833 36.834 56.5 57.501s34.334 42.167 50.001 64.5l44.5 65.5c1.33301 1.33301 2 2.33301 2 3c12 25.333 25.333 51.5 40 78.5s30.334 53.667 47.001 80s34.334 51.666 53.001 75.999s37.667 46.5 57 66.5c3.33301 3.33301 7.33301 5 12 5c4 0 7.5 -1.33301 10.5 -4
s4.5 -6.33398 4.5 -11.001z" />
    <glyph glyph-name="Z" unicode="Z" horiz-adv-x="632" 
d="M1092 -72c0 -4 -1.33105 -7.33594 -3.99805 -10.0029c-22.667 -19.333 -47.834 -35.833 -75.501 -49.5s-56.5 -25.167 -86.5 -34.5s-60.5 -16.166 -91.5 -20.499s-60.833 -6.5 -89.5 -6.5c-91.333 0 -180.333 18.333 -267 55l-119 53.5l-119 53.5
c-22.667 10 -46.5 19.5 -71.5 28.5s-50.167 13.5 -75.5 13.5c-16 0 -29.833 -2 -41.5 -6s-24.167 -10.333 -37.5 -19c-2 -1.33301 -4.66699 -2 -8 -2c-4 0 -7.66699 1.66699 -11 5s-5 7 -5 11s1.33301 7 4 9c0 4.66699 1.33301 8 4 10l70.5 70.5l70.5 69.5l149.5 146
l152.5 142l139 124c46.667 40.667 95.334 79 146.001 115c-12.667 -2 -25.334 -3.33301 -38.001 -4s-25.334 -1 -38.001 -1c-42.667 0 -85 2.5 -127 7.5s-84 7.5 -126 7.5c-39.333 0 -78.333 -4.16699 -117 -12.5s-73.667 -25.166 -105 -50.499
c-7.33301 -6 -13.833 -12.167 -19.5 -18.5l-17.5 -19.5c-2.66699 -2.66699 -5.33398 -4 -8.00098 -4c-4 0 -7.83301 1.66699 -11.5 5s-5.5 7 -5.5 11c0 2.66699 0.666992 4.66699 2 6c16.667 26.667 36.834 48.5 60.501 65.5s49.167 30.333 76.5 40
s55.833 16.334 85.5 20.001s59.167 5.5 88.5 5.5c34.667 0 69 -1.5 103 -4.5s68.333 -4.5 103 -4.5c40 0 77.833 2.5 113.5 7.5s72.5 13.167 110.5 24.5l2 1c4.66699 0 8.66699 -2 12 -6s5 -8 5 -12s-1.33301 -7.33301 -4 -10
c-20.667 -18.667 -41.834 -36.834 -63.501 -54.501l-64.5 -52.5l-135 -110l-133 -114l-195 -176.5l-196 -176.5c4.66699 0.666992 9.16699 1.16699 13.5 1.5s8.83301 0.5 13.5 0.5c26 0 51.833 -3.83301 77.5 -11.5s50.167 -16.834 73.5 -27.501
c40 -17.333 79.333 -35.666 118 -54.999s78 -37.666 118 -54.999c42 -18 85.5 -32 130.5 -42s90.5 -15 136.5 -15c57.333 0 110.5 7.5 159.5 22.5s97.5 37.833 145.5 68.5c2.66699 1.33301 5 2 7 2c4.66699 0 8.33398 -1.83301 11.001 -5.5s4 -7.5 4 -11.5z" />
    <glyph glyph-name="bracketleft" unicode="[" horiz-adv-x="296" 
d="M491 736c0 -5.33301 -2.33496 -9.66113 -7.00195 -12.9941s-10.167 -5.83301 -16.5 -7.5s-12.833 -2.83398 -19.5 -3.50098s-12 -1 -16 -1c-9.33301 0 -18.333 0.166992 -27 0.5s-17.667 0.5 -27 0.5c-12 0 -24 0.333008 -36 1s-24.333 1.66699 -37 3
c-2.66699 -36 -8.16699 -73.667 -16.5 -113s-18.666 -79.5 -30.999 -120.5s-26.333 -82.333 -42 -124s-32 -82.334 -49 -122.001s-34.5 -77.834 -52.5 -114.501l-52 -102c24 5.33301 48.333 8.33301 73 9c7.33301 0.666992 14.5 1.5 21.5 2.5s14.167 1.5 21.5 1.5
c19.333 0 36.333 -5.33301 51 -16c1.33301 -2 2.5 -4.33301 3.5 -7s1.5 -5.33398 1.5 -8.00098c0 -5.33301 -2.33301 -9.66602 -7 -12.999s-10.167 -5.83301 -16.5 -7.5s-12.833 -2.66699 -19.5 -3s-12 -0.5 -16 -0.5c-8 0 -16.167 0.166992 -24.5 0.5
s-16.833 0.5 -25.5 0.5c-15.333 0 -30.833 0.333008 -46.5 1s-31.5 2 -47.5 4c-2.66699 2 -5.16699 5 -7.5 9s-3.5 8 -3.5 12l1 2c8.66699 21.333 17.667 42.333 27 63s18.333 41.667 27 63c18.667 44 36.334 88 53.001 132s32.667 89 48 135
c12.667 38 23.834 76.333 33.501 115s20.167 77 31.5 115l16 55.5c5.33301 19 11.666 37.167 18.999 54.5c1.33301 3.33301 3 5.16602 5 5.49902s4.66699 1.16602 8 2.49902c17.333 3.33301 34.5 6.33301 51.5 9s34.167 4.66699 51.5 6c7.33301 0.666992 14.5 1.5 21.5 2.5
s14.167 1.5 21.5 1.5c18.667 0 35.667 -5.33301 51 -16c1.33301 -2 2.5 -4.33301 3.5 -7s1.5 -5.33398 1.5 -8.00098z" />
    <glyph glyph-name="backslash" unicode="\" horiz-adv-x="263" 
d="M253 206c0 -21.333 -0.334961 -42.665 -1.00195 -63.998s-1.66699 -42.666 -3 -63.999c-1.33301 -9.33301 -2 -19 -2 -29s-1 -19.667 -3 -29c-1.33301 -7.33301 -6 -11 -14 -11c-3.33301 0 -6.66602 1.16699 -9.99902 3.5s-5.33301 5.16602 -6 8.49902
c-0.666992 6 -0.833984 12.5 -0.500977 19.5s0.5 13.5 0.5 19.5c0 15.333 -0.166992 30.5 -0.5 45.5s-0.833008 30.167 -1.5 45.5c-2 45.333 -4.83301 90.333 -8.5 135s-8.5 89.334 -14.5 134.001c-5.33301 40 -12.166 79.167 -20.499 117.5s-15.833 77.5 -22.5 117.5
c-3.33301 15.333 -6.33301 31.666 -9 48.999s-4 33.666 -4 48.999c0 3.33301 2.16699 6.5 6.5 9.5s8.16602 4.5 11.499 4.5c6 0 10 -2.33301 12 -7c10.667 -22 20.334 -47.5 29.001 -76.5s16.334 -60 23.001 -93s12.334 -66.833 17.001 -101.5s8.66699 -68.834 12 -102.501
s5.66602 -66 6.99902 -97s2 -58.833 2 -83.5z" />
    <glyph glyph-name="bracketright" unicode="]" horiz-adv-x="306" 
d="M367 720c0 -57.333 -7 -114.336 -21 -171.003s-29.667 -112 -47 -166c-15.333 -48 -32.666 -95.333 -51.999 -142s-40.333 -92.667 -63 -138l-22.5 -47.5c-7.66699 -16.333 -16.167 -31.833 -25.5 -46.5c-2 -3.33301 -5 -5 -9 -5
c-0.666992 -4.66699 -3.66699 -9.66699 -9 -15c-23.333 -4.66699 -46.5 -7.83398 -69.5 -9.50098s-46.167 -2.5 -69.5 -2.5c-4.66699 0 -10.5 0.5 -17.5 1.5s-13.667 2.66699 -20 5s-11.833 5.5 -16.5 9.5s-7 9 -7 15c0 4.66699 2 9.66699 6 15c13.333 6.66699 28 10 44 10
c8 0 15.833 -0.5 23.5 -1.5s15.5 -1.5 23.5 -1.5c13.333 -1.33301 28.666 -2.33301 45.999 -3s33 -2.66699 47 -6v1c6.66699 18.667 14.167 36.834 22.5 54.501s16.166 35.5 23.499 53.5c18 44 35.167 88.167 51.5 132.5s31.5 89.5 45.5 135.5
c11.333 36 20.833 72.167 28.5 108.5s16.167 72.833 25.5 109.5l13.5 52.5c4.33301 17.667 9.83301 34.834 16.5 51.501c-20 -3.33301 -40.167 -5.66602 -60.5 -6.99902s-40.833 -2 -61.5 -2c-4.66699 0 -10.5 0.5 -17.5 1.5s-13.667 2.5 -20 4.5s-11.833 5 -16.5 9
s-7 9 -7 15s2.33301 11.333 7 16c12.667 6.66699 27 10 43 10c8 0 16 -0.5 24 -1.5s15.667 -1.83301 23 -2.5c15.333 -0.666992 32.833 -1.66699 52.5 -3s36.5 -3.66602 50.5 -6.99902c2.66699 -0.666992 4.83398 -2.5 6.50098 -5.5s2.5 -5.83301 2.5 -8.5
c0 -3.33301 -1 -6 -3 -8c6 -3.33301 9 -7 9 -11z" />
    <glyph glyph-name="asciicircum" unicode="^" horiz-adv-x="376" 
d="M540 598c0 -4.66699 -2.00098 -8.83105 -6.00098 -12.498s-8.33301 -5.5 -13 -5.5h-2c-0.666992 0 -1 0.333008 -1 1l-42 36c-16 14 -32.833 27.667 -50.5 41s-35.167 24.833 -52.5 34.5s-33.666 15.167 -48.999 16.5c-14.667 -6 -28.334 -13.833 -41.001 -23.5
l-38 -29.5l-18.5 -15c-9 -7.33301 -18.5 -14.666 -28.5 -21.999l-28 -20c-8.66699 -6 -14.667 -9 -18 -9c-4.66699 0 -9 2 -13 6s-6 8.33301 -6 13l1 3l8.5 12.5c3 4.33301 5.83301 8.16602 8.5 11.499c18 23.333 37.833 44.166 59.5 62.499s45.834 34.166 72.501 47.499
c4.66699 2 9.5 4.33301 14.5 7s9.83301 4.66699 14.5 6h14c24.667 0 48 -7.33301 70 -22c26 -18 51.167 -39 75.5 -63s46.833 -48.333 67.5 -73z" />
    <glyph glyph-name="underscore" unicode="_" horiz-adv-x="591" 
d="M601 25c0 -3.33301 -1 -6.5 -3 -9.5s-4.66699 -4.83301 -8 -5.5c-5.33301 -1.33301 -12 -2.16602 -20 -2.49902s-16.5 -0.833008 -25.5 -1.5s-17.667 -1.16699 -26 -1.5s-15.5 -0.5 -21.5 -0.5c-38 -2 -75.833 -3.66699 -113.5 -5s-75.5 -2 -113.5 -2l-61 -2
c-20 -0.666992 -40.333 -1 -61 -1c-9.33301 0 -20.833 0.166992 -34.5 0.5s-27.5 1.16602 -41.5 2.49902s-27.667 2.83301 -41 4.5s-24 4.16699 -32 7.5c-3.33301 1.33301 -5.66602 3.5 -6.99902 6.5s-2 6.16699 -2 9.5s0.833008 6.33301 2.5 9s4.16699 4.66699 7.5 6
c6.66699 2 16.167 3.66699 28.5 5s25 2.33301 38 3s25.667 1.16699 38 1.5s22.5 0.5 30.5 0.5c22.667 0 45.167 -0.333008 67.5 -1s44.833 -1 67.5 -1c36 0 72 -0.333008 108 -1s72 -1.66699 108 -3c12.667 -0.666992 25 -1.16699 37 -1.5s24 -0.833008 36 -1.5h15
c5.33301 0 10.666 -0.333008 15.999 -1c3.33301 -0.666992 6 -2.5 8 -5.5s3 -6.16699 3 -9.5z" />
    <glyph glyph-name="grave" unicode="`" 
d="M670 623c0 -4 -1.83301 -8.33203 -5.5 -12.999s-7.5 -7 -11.5 -7s-11 2.33301 -21 7s-20.833 10 -32.5 16s-22.5 12 -32.5 18s-17 10.333 -21 13c-5.33301 3.33301 -10.5 8.83301 -15.5 16.5s-7.5 14.834 -7.5 21.501c0 3.33301 1.83301 7.5 5.5 12.5
s7.16699 7.5 10.5 7.5c14 0 27 -4.33301 39 -13c4.66699 -3.33301 9 -6.83301 13 -10.5s8.33301 -7.16699 13 -10.5c24 -16.667 45.667 -34.667 65 -54c0 -0.666992 0.166992 -1.33398 0.5 -2.00098s0.5 -1.33398 0.5 -2.00098z" />
    <glyph glyph-name="a" unicode="a" horiz-adv-x="457" 
d="M477 156c-17.333 -35.333 -35.3379 -66.8252 -54.0049 -94.4922s-43 -54.5 -73 -80.5c-14.667 -13.333 -31.334 -20 -50.001 -20c-10 0 -19.5 2.83301 -28.5 8.5s-15.167 13.5 -18.5 23.5c-1.33301 3.33301 -2.16602 8 -2.49902 14s-0.666016 12.333 -0.999023 19
s-0.333008 13.167 0 19.5s0.5 11.5 0.5 15.5c-23.333 -28 -50.833 -51.833 -82.5 -71.5s-66.5 -29.5 -104.5 -29.5c-2 0 -4.83301 0.666992 -8.5 2s-6.5 2.33301 -8.5 3c-15.333 7.33301 -26.833 19 -34.5 35s-11.5 32 -11.5 48c0 22 2.83301 43.833 8.5 65.5
s13.334 42.667 23.001 63s20.834 39.833 33.501 58.5s26 36.334 40 53.001c36 44.667 77.333 83.5 124 116.5s97.334 59.5 152.001 79.5c0.666992 0.666992 2 1 4 1c4.66699 0 8.16699 -1.66699 10.5 -5s3.5 -7 3.5 -11c0 -6 -2.33301 -10 -7 -12
c-11.333 -6 -22.5 -11.5 -33.5 -16.5s-21.833 -10.5 -32.5 -16.5c-74 -42.667 -136.333 -97.334 -187 -164.001c-10 -13.333 -20.333 -28.333 -31 -45s-20.334 -33.834 -29.001 -51.501s-15.834 -35.834 -21.501 -54.501s-8.5 -36.667 -8.5 -54
c0 -2.66699 0.333008 -6.5 1 -11.5s1.66699 -10 3 -15s3.5 -9.33301 6.5 -13s6.5 -5.5 10.5 -5.5c19.333 0 38.166 5 56.499 15s35.5 22.667 51.5 38s30.333 31.666 43 48.999s23 33.666 31 48.999c15.333 28 29 56.167 41 84.5l36 85.5l16.5 42
c6.33301 16 12.5 29.667 18.5 41c2.66699 4.66699 7 7 13 7c4.66699 0 8.66699 -1.33301 12 -4s5 -6.33398 5 -11.001l-1 -2c-5.33301 -24 -11.333 -48.167 -18 -72.5s-14 -48.166 -22 -71.499c-3.33301 -9.33301 -7.33301 -19.666 -12 -30.999s-8.33398 -21 -11.001 -29
c-1.33301 -4.66699 -2.16602 -9.33398 -2.49902 -14.001s-0.833008 -9.33398 -1.5 -14.001c-2 -10.667 -4.16699 -21.167 -6.5 -31.5s-4.83301 -20.833 -7.5 -31.5c-3.33301 -13.333 -6.16602 -26.833 -8.49902 -40.5s-3.5 -27.5 -3.5 -41.5v-9
c0 -2.66699 0.333008 -5.33398 1 -8.00098c4.66699 0 10.167 2 16.5 6s12.833 8.83301 19.5 14.5s12.834 11.5 18.501 17.5l13.5 14c20 21.333 39 45 57 71c4.66699 5.33301 8.83398 11.166 12.501 17.499s7.83398 12.166 12.501 17.499c2 3.33301 5 5 9 5
c4.66699 0 8.66699 -1.66699 12 -5s5 -7.33301 5 -12z" />
    <glyph glyph-name="b" unicode="b" horiz-adv-x="399" 
d="M419 356c0 -20 -2.66504 -39.834 -7.99805 -59.501s-13.333 -37.834 -24 -54.501c-36 -58 -78.5 -110.833 -127.5 -158.5s-103.167 -87.834 -162.5 -120.501v-4c0 -3.33301 -1.83301 -6.83301 -5.5 -10.5s-7.16699 -5.5 -10.5 -5.5c-8.66699 0 -13 4 -13 12
c-6 3.33301 -9 8.33301 -9 15c0 2.66699 1 5.66699 3 9c-7.33301 38.667 -11 76.667 -11 114c0 64.667 8 128.167 24 190.5s34.667 123.833 56 184.5c12 34 25.5 68 40.5 102s32 67.167 51 99.5s40.333 63 64 92s49.5 55.167 77.5 78.5c2 2 4.33301 3 7 3
c4.66699 0 8.66699 -1.66699 12 -5s5 -7 5 -11c0 -3.33301 -0.666992 -5.66602 -2 -6.99902l-67.5 -101c-21 -31.333 -40.5 -62.833 -58.5 -94.5s-35 -64.667 -51 -99s-31 -72.5 -45 -114.5c22.667 20.667 46.667 38.5 72 53.5s54 22.5 86 22.5
c5.33301 0 9.33301 -0.333008 12 -1c3.33301 -0.666992 8.16602 -2.66699 14.499 -6s11.166 -6 14.499 -8c20 -13.333 34.333 -30.166 43 -50.499s13 -42.166 13 -65.499zM372.002 354.999c0 8.66699 -1.16699 18.167 -3.5 28.5s-5.66602 20 -9.99902 29
s-10.166 16.5 -17.499 22.5s-16 9 -26 9c-15.333 0 -30.833 -3.16699 -46.5 -9.5s-30.834 -14.166 -45.501 -23.499s-28.667 -19.5 -42 -30.5l-37 -30.5c-15.333 -48 -28.5 -96.333 -39.5 -145s-16.5 -98 -16.5 -148c0 -17.333 1 -35 3 -53l50 43.5l60 54.5
c20.667 19.333 41.167 39.666 61.5 60.999s38.666 43 54.999 65s29.5 43.667 39.5 65s15 42 15 62z" />
    <glyph glyph-name="c" unicode="c" horiz-adv-x="326" 
d="M346 471c0 -6.66699 -2.66895 -11.001 -8.00195 -13.001c-11.333 -5.33301 -22.5 -10.333 -33.5 -15s-21.833 -10.667 -32.5 -18c-44.667 -27.333 -83 -62 -115 -104s-54.667 -88.333 -68 -139c-6 -26 -9 -52.333 -9 -79c0 -9.33301 0.666992 -19.5 2 -30.5
s3.83301 -21.833 7.5 -32.5s8.66699 -20.334 15 -29.001s14.5 -15 24.5 -19c0.666992 -0.666992 1.83398 -1 3.50098 -1h3.5c16.667 0 32 4.5 46 13.5s26.667 19.167 38 30.5c18 18 35 38.667 51 62l10 14c3.33301 4.66699 6.66602 9 9.99902 13c2 3.33301 5 5 9 5
s7.83301 -1.5 11.5 -4.5s5.5 -6.5 5.5 -10.5c0 -1.33301 -1.5 -4.66602 -4.5 -9.99902s-6.5 -11.166 -10.5 -17.499l-11.5 -18l-7.5 -11.5c-9.33301 -14 -19.166 -27.667 -29.499 -41s-21.666 -25 -33.999 -35s-26.166 -18 -41.499 -24s-32 -9 -50 -9c-4 0 -7 0.333008 -9 1
c-12.667 2 -23.834 6.83301 -33.501 14.5s-18 17 -25 28s-12.5 22.667 -16.5 35s-7 24.166 -9 35.499c-1.33301 8 -2.33301 16 -3 24s-1 16.333 -1 25c0 28.667 3.33301 56 10 82c6.66699 29.333 16.5 58.333 29.5 87s28.833 55.334 47.5 80.001s40 46.5 64 65.5
s50.667 34.167 80 45.5c10 4 21.333 7.83301 34 11.5s24.667 5.5 36 5.5c3.33301 0 6.5 -2 9.5 -6s4.5 -7.66699 4.5 -11z" />
    <glyph glyph-name="d" unicode="d" horiz-adv-x="454" 
d="M546 776c0 -2 -0.333008 -3.66504 -1 -4.99805l-61.5 -153.5c-19.667 -51 -38.167 -103.167 -55.5 -156.5c4.66699 -1.33301 10 -3.33301 16 -6s9 -6.66699 9 -12c0 -4.66699 -1.33301 -8.66699 -4 -12s-6.33398 -5 -11.001 -5c-2.66699 0 -5.83398 0.666992 -9.50098 2
s-6.83398 2.66602 -9.50098 3.99902c-10 -30.667 -20 -63.334 -30 -98.001s-19.167 -69.667 -27.5 -105s-15.166 -70.5 -20.499 -105.5s-8 -68.5 -8 -100.5v-10.5c0 -4.33301 0.333008 -8.5 1 -12.5s1.83398 -7.5 3.50098 -10.5s4.5 -4.5 8.5 -4.5c6 0 14.5 4.66699 25.5 14
s22.167 20.166 33.5 32.499l32.5 36c10.333 11.667 17.833 19.834 22.5 24.501c2 3.33301 5 5 9 5s7.66699 -1.66699 11 -5s5 -7 5 -11c0 -3.33301 -0.666992 -5.66602 -2 -6.99902c-13.333 -20.667 -28 -40 -44 -58s-33 -35 -51 -51c-13.333 -12 -27.666 -18 -42.999 -18
c-13.333 0 -23.666 3.66699 -30.999 11s-12.833 16.166 -16.5 26.499s-6 21.5 -7 33.5s-1.5 23 -1.5 33c0 6.66699 0.166992 13.167 0.5 19.5s0.833008 12.5 1.5 18.5c-8.66699 -12.667 -19.667 -26.834 -33 -42.501s-27.833 -30.5 -43.5 -44.5s-32 -25.833 -49 -35.5
s-33.833 -14.5 -50.5 -14.5c-17.333 0 -31.5 4 -42.5 12s-19.5 18.167 -25.5 30.5s-10.167 25.833 -12.5 40.5s-3.5 28.667 -3.5 42c0 28.667 3.5 57.834 10.5 87.501s16.667 58.667 29 87s26.833 55.333 43.5 81s35 48.5 55 68.5c23.333 23.333 50.666 41.5 81.999 54.5
s64 19.5 98 19.5h13.5c4.33301 0 8.83301 -0.333008 13.5 -1c7.33301 24.667 15.833 51 25.5 79s20.5 56 32.5 84s25.167 55 39.5 81s29.5 49 45.5 69c2 3.33301 5.33301 5 10 5c4 0 7.83301 -1.5 11.5 -4.5s5.5 -6.83301 5.5 -11.5zM366 440.002l-8 -0.000976562
c-39.333 0.666992 -74.166 -8.5 -104.499 -27.5s-56.666 -43.333 -78.999 -73s-40.666 -62.5 -54.999 -98.5s-24.833 -70.667 -31.5 -104c-4 -17.333 -6 -34.666 -6 -51.999c0 -5.33301 0.166992 -12.5 0.5 -21.5s1.66602 -17.833 3.99902 -26.5s5.66602 -16 9.99902 -22
s10.5 -9 18.5 -9c10.667 0 24.834 6.5 42.501 19.5s35.667 28.333 54 46l52.5 52.5l37 38c1.33301 1.33301 2.66602 2 3.99902 2c3.33301 46.667 11.166 93.167 23.499 139.5z" />
    <glyph glyph-name="e" unicode="e" horiz-adv-x="359" 
d="M395 417c0 -16.667 -4 -33.1611 -12 -49.4941s-18.167 -31.833 -30.5 -46.5s-25.833 -28 -40.5 -40s-28.334 -22.333 -41.001 -31c-19.333 -13.333 -39.5 -25.666 -60.5 -36.999s-43.833 -17 -68.5 -17c-5.33301 0 -11.166 0.666992 -17.499 2s-9.5 5.66602 -9.5 12.999
c0 9.33301 4.33301 15 13 17c2 0.666992 4.33301 1 7 1s5.33398 0.333008 8.00098 1c7.33301 1.33301 14.5 3.66602 21.5 6.99902s14.167 7 21.5 11c11.333 7.33301 25.666 17.666 42.999 30.999s34.333 28 51 44s30.834 32.333 42.501 49s17.5 32.334 17.5 47.001
c0 9.33301 -5 14 -15 14c-4 0 -8 -0.666992 -12 -2l-12 -4c-32 -10.667 -61.333 -26.834 -88 -48.501s-49.667 -46.834 -69 -75.501s-34.5 -59.334 -45.5 -92.001s-16.5 -65.334 -16.5 -98.001c0 -10.667 0.833008 -22.834 2.5 -36.501s5 -26.5 10 -38.5
s11.833 -22.167 20.5 -30.5s20 -12.5 34 -12.5c5.33301 0 10.333 0.833008 15 2.5s9.33398 3.83398 14.001 6.50098c18 10 34.667 23.5 50 40.5s29 34.167 41 51.5c3.33301 4 6.5 8.33301 9.5 13s6.16699 9.33398 9.5 14.001c2 3.33301 5.33301 5 10 5
c4 0 7.83301 -1.33301 11.5 -4s5.5 -6.33398 5.5 -11.001c0 -1.33301 -0.666992 -3.33301 -2 -6c-8 -14.667 -18 -30.834 -30 -48.501s-25.333 -34.167 -40 -49.5s-30.5 -28.166 -47.5 -38.499s-34.833 -15.5 -53.5 -15.5c-20.667 0 -37.834 5.83301 -51.501 17.5
s-24.5 26 -32.5 43s-13.667 35.333 -17 55s-5 37.5 -5 53.5c0 50.667 10.667 99.167 32 145.5s50 87.166 86 122.499c10.667 10.667 23 21.5 37 32.5s28.833 21 44.5 30s31.667 16.333 48 22s32.166 8.5 47.499 8.5c19.333 0 34.833 -6.5 46.5 -19.5
s17.5 -29.167 17.5 -48.5z" />
    <glyph glyph-name="f" unicode="f" horiz-adv-x="294" 
d="M581 792c0 -7.33301 -3.66211 -12.332 -10.9951 -14.999c-11.333 -4.66699 -21.833 -8.5 -31.5 -11.5s-20.167 -7.16699 -31.5 -12.5c-26.667 -13.333 -50.834 -29.833 -72.501 -49.5s-41.334 -41.167 -59.001 -64.5s-33.334 -48 -47.001 -74
s-25.834 -52.333 -36.501 -79l-1 -3l39.5 6c13 2 26.167 3 39.5 3c6.66699 0 15.667 -0.5 27 -1.5s20 -2.83301 26 -5.5c2.66699 -1.33301 4.83398 -4 6.50098 -8s2.5 -7.33301 2.5 -10c0 -2 -0.5 -4.16699 -1.5 -6.5s-2.83301 -4.16602 -5.5 -5.49902
c-23.333 -10.667 -49 -17.167 -77 -19.5s-54.667 -4.83301 -80 -7.5c-23.333 -58.667 -45 -117.334 -65 -176.001l-60 -178c-14 -42 -27 -84.333 -39 -127s-25 -84.834 -39 -126.501s-30 -82.667 -48 -123s-39.667 -78.833 -65 -115.5c-12 -16.667 -25.5 -32.5 -40.5 -47.5
s-31.333 -28.167 -49 -39.5s-36.5 -20.333 -56.5 -27s-40.333 -10 -61 -10c-25.333 0 -50.5 4.5 -75.5 13.5s-48.667 20.833 -71 35.5s-42.833 31.667 -61.5 51s-34.334 39.666 -47.001 60.999c-1.33301 4 -2 6.66699 -2 8c0 4 1.5 7.33301 4.5 10s6.5 4 10.5 4
c4.66699 0 9 -2 13 -6l15 -20.5l15 -19.5c22.667 -24 48.334 -44.667 77.001 -62s59.667 -28.666 93 -33.999c4 -0.666992 8 -1.16699 12 -1.5s8 -0.5 12 -0.5c26 0 50.167 5.5 72.5 16.5s42.833 25.667 61.5 44s35.5 39.5 50.5 63.5s28.667 48.667 41 74s23 50.5 32 75.5
s16.833 47.833 23.5 68.5c13.333 42 25.666 83.833 36.999 125.5s23.666 83.5 36.999 125.5l54.5 166.5c17.667 55 36.834 109.833 57.501 164.5c-22 -2 -44 -3.66699 -66 -5s-44 -2 -66 -2c-2.66699 0 -5.16699 2.16699 -7.5 6.5s-3.5 7.83301 -3.5 10.5
c0 6.66699 2.66699 11 8 13c8 2 16.167 3.66699 24.5 5l24.5 4c17.333 3.33301 35 6.5 53 9.5s36 6.16699 54 9.5c2 6 4.16699 11.833 6.5 17.5s4.83301 11.167 7.5 16.5c14 35.333 31 70.166 51 104.499s43.167 65.333 69.5 93s56.166 50.834 89.499 69.501s70 30 110 34h4
c4 0 7.5 -1.5 10.5 -4.5s4.5 -6.5 4.5 -10.5z" />
    <glyph glyph-name="g" unicode="g" horiz-adv-x="433" 
d="M433 456c0 -1.33301 -0.672852 -3.33594 -2.00586 -6.00293c-1.33301 -11.333 -2.5 -22.166 -3.5 -32.499s-2.5 -20.833 -4.5 -31.5c-3.33301 -22 -7 -43.667 -11 -65s-8.33301 -42.666 -13 -63.999c-16.667 -76.667 -37.167 -152 -61.5 -226
s-51.166 -147.333 -80.499 -220l-33.5 -78.5c-11.667 -26.333 -24.667 -52 -39 -77s-30.166 -48.833 -47.499 -71.5s-37 -43.334 -59 -62.001c-30.667 -27.333 -66 -41 -106 -41c-21.333 0 -42 3.66699 -62 11s-38.667 17.166 -56 29.499s-32.833 27 -46.5 44
s-24.167 35.167 -31.5 54.5c-0.666992 0.666992 -1 2.33398 -1 5.00098c0 4 1.66699 7.33301 5 10s7 4 11 4c4.66699 0 8.66699 -2.33301 12 -7c3.33301 -6 6.5 -12 9.5 -18s6.83301 -11.667 11.5 -17c17.333 -21.333 38.5 -39.166 63.5 -53.499s51.167 -21.5 78.5 -21.5
c31.333 0 59 11 83 33c18.667 16.667 36.334 37 53.001 61s32.5 50 47.5 78s29 57.333 42 88s25 61.167 36 91.5s21.167 59.833 30.5 88.5l26 79c-24 -23.333 -50 -41.666 -78 -54.999s-59 -20 -93 -20h-3c-1.33301 0 -2.33301 0.333008 -3 1
c-15.333 3.33301 -28.166 9.33301 -38.499 18s-18.666 18.834 -24.999 30.501s-10.833 24.334 -13.5 38.001s-4 27.5 -4 41.5c0 40 5.83301 79.667 17.5 119s29.167 75.666 52.5 108.999c14.667 20 31.334 39.5 50.001 58.5s39 35.667 61 50s45.333 26 70 35
s50 13.5 76 13.5c4 0 10.333 -0.333008 19 -1s17.5 -1.83398 26.5 -3.50098s17 -4.16699 24 -7.5s10.5 -7.33301 10.5 -12zM397.994 443.997c-10 2.66699 -21.333 4.00098 -34 4.00098c-23.333 0 -46.333 -4.33301 -69 -13s-44 -20.167 -64 -34.5s-38.333 -30.5 -55 -48.5
s-31.334 -36 -44.001 -54c-18.667 -28 -32.834 -59 -42.501 -93s-14.5 -68 -14.5 -102c0 -7.33301 0.5 -16 1.5 -26s3 -19.5 6 -28.5s7.66699 -16.667 14 -23s14.5 -9.5 24.5 -9.5c20.667 0 40.834 5 60.501 15s37.834 22.667 54.501 38s31.5 32.5 44.5 51.5
s23.5 37.167 31.5 54.5c20 43.333 36.167 87.666 48.5 132.999z" />
    <glyph glyph-name="h" unicode="h" horiz-adv-x="505" 
d="M535 65c0 -5.33301 -1.66895 -8.66895 -5.00195 -10.002c-8 -7.33301 -19.167 -15.833 -33.5 -25.5s-29.333 -18.834 -45 -27.501s-31.167 -16.167 -46.5 -22.5s-28.333 -9.5 -39 -9.5c-8 0 -15.333 1.83301 -22 5.5s-12.5 8.5 -17.5 14.5s-9 12.667 -12 20
s-4.5 14.666 -4.5 21.999c0 1.33301 0.166992 2.83301 0.5 4.5s0.5 3.16699 0.5 4.5l6 43c2 14 5 28 9 42c6.66699 26.667 14.834 52.834 24.501 78.501l29 77l28 77c9 25.667 16.5 51.834 22.5 78.501c1.33301 4 2.16602 8 2.49902 12s0.833008 8 1.5 12
c-11.333 -1.33301 -24.166 -5.66602 -38.499 -12.999s-28.833 -16 -43.5 -26s-28.5 -20.5 -41.5 -31.5l-32.5 -27.5l-37 -33c-14 -12.667 -27.667 -26 -41 -40s-25.666 -28.167 -36.999 -42.5s-19.333 -28.166 -24 -41.499c-5.33301 -13.333 -9.66602 -26.833 -12.999 -40.5
s-7.33301 -27.167 -12 -40.5c-8.66699 -28 -17.834 -56 -27.501 -84s-20.167 -56 -31.5 -84c-4 -9.33301 -8 -19.166 -12 -29.499s-8.66699 -19.833 -14 -28.5c-2.66699 -4.66699 -6.66699 -7 -12 -7c-3.33301 0 -7 1.5 -11 4.5s-6 6.5 -6 10.5c0 0.666992 0.5 3 1.5 7
s2 8.5 3 13.5s2 9.66699 3 14s1.5 7.16602 1.5 8.49902c15.333 67.333 33.666 133.333 54.999 198l63 196l55 174.5l57 173.5l18.5 58l19.5 58c3.33301 8 6.16602 16.333 8.49902 25s5.16602 17 8.49902 25c2 5.33301 6 8 12 8c3.33301 0 7 -1.5 11 -4.5s6 -6.5 6 -10.5
l-1 -1c-21.333 -85.333 -44.166 -170 -68.499 -254l-74.5 -252c14 14.667 31.667 31.834 53 51.501s44 38.167 68 55.5s48.5 32.166 73.5 44.499s48.167 18.5 69.5 18.5c4.66699 0 9.33398 -1.33301 14.001 -4s9 -6.16699 13 -10.5s7.33301 -9 10 -14s4 -9.83301 4 -14.5
c0 -7.33301 -0.333008 -14.833 -1 -22.5s-2 -15.167 -4 -22.5c-6.66699 -26.667 -14.667 -53 -24 -79s-19.166 -51.833 -29.499 -77.5l-30.5 -77c-10 -25.667 -19 -51.834 -27 -78.501c-3.33301 -11.333 -6.83301 -24.166 -10.5 -38.499s-5.5 -27.5 -5.5 -39.5
c0 -6 0.833008 -12 2.5 -18s6.16699 -9 13.5 -9c12 0 26.333 3.66699 43 11s32.667 15.5 48 24.5s28.666 17.333 39.999 25s18.333 11.5 21 11.5c4.66699 0 8.33398 -1.66699 11.001 -5s4 -7 4 -11z" />
    <glyph glyph-name="i" unicode="i" horiz-adv-x="265" 
d="M296 745c0 -4 -1.66602 -8.66699 -4.99902 -14l-1 -3c1.33301 -4 2 -7 2 -9c-4.66699 -3.33301 -8 -6.83301 -10 -10.5s-6.66699 -5.5 -14 -5.5c-6 0 -12 2.5 -18 7.5s-9 11.167 -9 18.5c0 12 1.16699 21.833 3.5 29.5s11.166 11.5 26.499 11.5
c6 0 11.667 -2.66699 17 -8s8 -11 8 -17zM289.001 107c0 -3.33301 -0.998047 -6.00391 -2.99805 -8.00391l-36.5 -45.5c-11.667 -15 -24 -28.833 -37 -41.5s-27.5 -23.5 -43.5 -32.5s-34.333 -15.5 -55 -19.5c-18 8 -30.333 18.5 -37 31.5s-10 28.833 -10 47.5v36
c0 17.333 1.83301 35.333 5.5 54s7.5 36.667 11.5 54c6 26 12.833 54 20.5 84s16.667 59.833 27 89.5s22.166 58.334 35.499 86.001s28.333 51.834 45 72.501c3.33301 3.33301 6.66602 5 9.99902 5c4 0 8 -1.5 12 -4.5s6 -6.83301 6 -11.5v-2
c-11.333 -35.333 -24.166 -72.5 -38.499 -111.5s-28 -78.667 -41 -119s-24 -80.5 -33 -120.5s-13.5 -78.667 -13.5 -116c0 -4 0.166992 -9.66699 0.5 -17s2.5 -12 6.5 -14c14.667 2.66699 30.167 10.334 46.5 23.001s31.666 26 45.999 40l37.5 38c10.667 11.333 18 17 22 17
c3.33301 0 6.83301 -1.66699 10.5 -5s5.5 -6.66602 5.5 -9.99902z" />
    <glyph glyph-name="j" unicode="j" horiz-adv-x="231" 
d="M262 733c-1.33301 -5.33301 -2.50098 -9.66797 -3.50098 -13.001s-3.16699 -7 -6.5 -11l2 5c-6 -8 -13 -12 -21 -12c-10.667 0 -18.334 4.83301 -23.001 14.5s-7 19.167 -7 28.5c0 6.66699 2.83301 12.334 8.5 17.001s11.5 7 17.5 7c3.33301 0 6.33301 -0.333008 9 -1
l8 -2c8.66699 -6.66699 12.667 -14.667 12 -24c0.666992 -1.33301 1.33398 -2.83301 2.00098 -4.5s1.33398 -3.16699 2.00098 -4.5zM228.999 480.998c0 -10.667 -1.33691 -22.6631 -4.00391 -35.9961l-7 -36c-14 -81.333 -34.167 -160.5 -60.5 -237.5
s-54.833 -153.833 -85.5 -230.5l-33.5 -78.5c-11.667 -26.333 -24.5 -52 -38.5 -77s-29.667 -48.833 -47 -71.5s-37 -43.334 -59 -62.001c-32 -26.667 -67.333 -40 -106 -40c-21.333 0 -42.166 3.5 -62.499 10.5s-39.166 16.667 -56.499 29s-32.666 27 -45.999 44
s-24 35.167 -32 54.5c0 1.33301 -0.166992 2.16602 -0.5 2.49902s-0.5 1.16602 -0.5 2.49902c0 4 1.83301 7.33301 5.5 10s7.5 4 11.5 4c4.66699 0 8.33398 -2.33301 11.001 -7c3.33301 -5.33301 6.5 -10.833 9.5 -16.5s6.83301 -11.167 11.5 -16.5
c16 -22 36.667 -40.333 62 -55s52 -22 80 -22c32 0 60 11 84 33c18.667 16.667 35.834 36.167 51.501 58.5s30 45.666 43 69.999s24.833 49 35.5 74l30 72.5c23.333 58.667 44.666 117.5 63.999 176.5l57 179.5l36 119c3.33301 8.66699 6 17.334 8 26.001s4.66699 17 8 25
c3.33301 6.66699 8.33301 10 15 10c4 0 7.66699 -1.33301 11 -4s5 -6.33398 5 -11.001z" />
    <glyph glyph-name="k" unicode="k" horiz-adv-x="404" 
d="M455 -34c0 -5.33301 -2.33301 -9 -7 -11c-10 -3.33301 -20.833 -6.16602 -32.5 -8.49902s-22.834 -3.5 -33.501 -3.5c-26 0 -47.167 6 -63.5 18s-29.833 27.333 -40.5 46s-19.5 39.667 -26.5 63l-22 70c-7.66699 23.333 -16.834 45.333 -27.501 66
s-24.667 37.334 -42 50.001l-8 -5l-40 -132.5c-13.333 -43.667 -28.333 -87.167 -45 -130.5l-17.5 -45c-6.33301 -16.667 -13.166 -31.334 -20.499 -44.001c-2 -4.66699 -6 -7 -12 -7c-3.33301 0 -7 1.5 -11 4.5s-6 6.5 -6 10.5c0 0.666992 0.5 3 1.5 7s2 8.5 3 13.5
s2 9.66699 3 14s1.5 7.16602 1.5 8.49902c15.333 67.333 33.666 133.333 54.999 198l63 196l111 348l19.5 58l19.5 58c2.66699 8 5.16699 16.333 7.5 25s5.16602 17 8.49902 25c3.33301 5.33301 7.33301 8 12 8c3.33301 0 7 -1.5 11 -4.5s6 -6.5 6 -10.5v-1
c-23.333 -92.667 -48.166 -184.167 -74.499 -274.5l-80.5 -272.5l56 46l55 47c19.333 17.333 37.5 36.5 54.5 57.5s35.167 39.167 54.5 54.5l4 2c1.33301 0.666992 2.66602 1 3.99902 1c2 0 5.66699 -2.16699 11 -6.5s8 -7.5 8 -9.5c0 -1.33301 -1 -5.16602 -3 -11.499
l-4 -12.5c-9.33301 -23.333 -22.833 -44 -40.5 -62s-36.167 -35 -55.5 -51c-17.333 -14.667 -35.666 -28.5 -54.999 -41.5l-58 -37.5c16.667 -8 30.334 -19 41.001 -33s19.5 -29.5 26.5 -46.5s12.833 -35 17.5 -54l14 -55.5c4.66699 -18 10.167 -34.667 16.5 -50
s14.833 -28.333 25.5 -39c8 -8 17.333 -13.5 28 -16.5s21.667 -4.5 33 -4.5c7.33301 0 14.333 0.666992 21 2s13.334 2 20.001 2c2.66699 0 5.66699 -2.33301 9 -7s5 -8.33398 5 -11.001z" />
    <glyph glyph-name="l" unicode="l" horiz-adv-x="305" 
d="M361 65c0 -3.33301 -1.33496 -6.33203 -4.00195 -8.99902c-10.667 -10 -23.667 -21.333 -39 -34s-31.5 -24.334 -48.5 -35.001s-34.333 -19.667 -52 -27s-33.834 -11 -48.501 -11c-21.333 0 -38 5.33301 -50 16s-21.167 23.834 -27.5 39.501s-10.333 32.667 -12 51
s-2.5 35.5 -2.5 51.5c0 37.333 3.66699 74 11 110s15.333 72 24 108c16.667 70 36.834 138.333 60.501 205s53.5 131.334 89.5 194.001l20.5 36c7 12 14.5 23.333 22.5 34c2.66699 4 6.33398 6 11.001 6c4 0 7.83301 -1.33301 11.5 -4s5.5 -6.33398 5.5 -11.001
c0 -2 -0.333008 -3.66699 -1 -5l-93 -231c-32 -76.667 -58 -155.334 -78 -236.001c-9.33301 -36 -17.833 -72.5 -25.5 -109.5s-11.5 -74.5 -11.5 -112.5c0 -10 0.166992 -20.833 0.5 -32.5s2 -22.5 5 -32.5s8 -18.5 15 -25.5s17.167 -10.5 30.5 -10.5
c14.667 0 31.167 4.66699 49.5 14s36 19.833 53 31.5l44.5 31.5c12.667 9.33301 20.334 14 23.001 14c4 0 7.66699 -1.66699 11 -5s5 -7 5 -11z" />
    <glyph glyph-name="m" unicode="m" horiz-adv-x="680" 
d="M721 63c0 -4.66699 -5.83301 -11.501 -17.5 -20.501s-25.167 -18 -40.5 -27l-44.5 -25c-14.333 -7.66699 -24.166 -12.5 -29.499 -14.5c-12.667 -4.66699 -24.667 -7 -36 -7c-21.333 0 -36.166 7 -44.499 21s-12.5 30.667 -12.5 50c0 20.667 3.66699 45 11 73
s16.166 56.833 26.499 86.5s21 58.667 32 87s20.167 52.833 27.5 73.5l15.5 48c5.66699 18 8.5 34.667 8.5 50c-9.33301 -2.66699 -20.166 -6.83398 -32.499 -12.501s-22.5 -11.167 -30.5 -16.5c-30 -20 -59 -40.833 -87 -62.5l-84 -67.5
c-10.667 -42 -22.667 -83.667 -36 -125s-28.666 -82 -45.999 -122c-5.33301 -11.333 -10.5 -23 -15.5 -35s-10.833 -23 -17.5 -33c-2.66699 -4.66699 -6.33398 -7 -11.001 -7c-3.33301 0 -7.16602 1.66699 -11.499 5s-6.5 6.66602 -6.5 9.99902
c0 0.666992 0.833008 4.83398 2.5 12.501s2.83398 11.834 3.50098 12.501c9.33301 41.333 20.5 81.833 33.5 121.5l39.5 119.5c10.667 36 20.667 72 30 108c4 15.333 7.66699 30.833 11 46.5s5 31.167 5 46.5c0 2.66699 -0.166992 5 -0.5 7s-0.5 4 -0.5 6
c-16 -3.33301 -33.5 -13.166 -52.5 -29.499s-37.833 -35 -56.5 -56s-36.334 -42 -53.001 -63s-30.667 -37.833 -42 -50.5c-1.33301 -1.33301 -2.33301 -2 -3 -2c-2 -4 -3.83301 -8 -5.5 -12s-3.5 -7.66699 -5.5 -11l-43.5 -89c-13.667 -29.333 -26.834 -59.333 -39.501 -90
c-7.33301 -16.667 -13.833 -33.5 -19.5 -50.5s-11.834 -33.833 -18.501 -50.5c-2 -5.33301 -5.66699 -8 -11 -8c-3.33301 0 -7.16602 1.66699 -11.499 5s-6.5 6.33301 -6.5 9c0 0.666992 0.5 2.83398 1.5 6.50098s2 7.83398 3 12.501s2 9 3 13s1.5 6.66699 1.5 8
c11.333 44 25.166 87.333 41.499 130s34.5 84.667 54.5 126l27 58.5c8.66699 19.667 18 39.167 28 58.5l14 28c5.33301 10.667 11.166 21.167 17.499 31.5s12.833 20.333 19.5 30s13 17.5 19 23.5c2.66699 2.66699 5.66699 4 9 4c2.66699 0 6.33398 -1.83301 11.001 -5.5
s7 -7.16699 7 -10.5c0 -2 -1.16699 -6.33301 -3.5 -13l-7.5 -22c-2.66699 -8 -5.5 -15.5 -8.5 -22.5s-4.83301 -11.833 -5.5 -14.5l27 31c10.667 12 22.167 23.5 34.5 34.5s25.166 20.167 38.499 27.5s26.333 11 39 11c10 0 18.167 -2 24.5 -6s11 -9.16699 14 -15.5
s5 -13.5 6 -21.5s1.5 -16 1.5 -24c0 -13.333 -1 -26.666 -3 -39.999s-4.66699 -26.666 -8 -39.999c12.667 12.667 28 27.167 46 43.5s37.333 31.666 58 45.999s41.5 26.333 62.5 36s40.5 14.5 58.5 14.5c10.667 0 20.5 -4.33301 29.5 -13s13.5 -18.334 13.5 -29.001
c0 -12.667 -0.666992 -25 -2 -37s-4 -24 -8 -36c-8 -27.333 -17.333 -54.5 -28 -81.5l-32 -80.5c-10.667 -26.667 -20.834 -53.334 -30.501 -80.001s-17.834 -54 -24.501 -82l-4 -20c-1.33301 -6.66699 -2 -13.334 -2 -20.001c0 -7.33301 0.666992 -13.5 2 -18.5
s6.33301 -7.5 15 -7.5c11.333 0 25 3.66699 41 11s31.833 15.5 47.5 24.5s29.334 17.167 41.001 24.5s18.834 11 21.501 11c4 0 7.5 -1.66699 10.5 -5s4.5 -7 4.5 -11z" />
    <glyph glyph-name="n" unicode="n" horiz-adv-x="463" 
d="M504 67c0 -4 -1.66406 -7.00586 -4.99707 -9.00586c-7.33301 -6 -16 -12.667 -26 -20s-20.667 -14.5 -32 -21.5s-22.5 -13.5 -33.5 -19.5s-20.833 -10.667 -29.5 -14c-15.333 -6.66699 -29.666 -10 -42.999 -10c-20 0 -34.5 7.16699 -43.5 21.5
s-13.5 30.166 -13.5 47.499c0 20.667 3.33301 44.167 10 70.5s14.667 53.166 24 80.499s19.166 54.166 29.499 80.499l26.5 69.5c7.33301 19.333 14 38.833 20 58.5s10 40.167 12 61.5c-12 -1.33301 -28.333 -8 -49 -20s-42.167 -25.833 -64.5 -41.5l-63.5 -46.5
c-20 -15.333 -35.667 -27 -47 -35l-36 -72c-16 -31.333 -31.167 -62.5 -45.5 -93.5s-28.166 -62.5 -41.499 -94.5c-6 -15.333 -11.667 -30.666 -17 -45.999s-11.333 -30.666 -18 -45.999c-2 -5.33301 -5.66699 -8 -11 -8c-2.66699 0 -6.16699 1.66699 -10.5 5
s-6.5 6.33301 -6.5 9c0 0.666992 0.5 2.83398 1.5 6.50098s2 7.83398 3 12.501s2 9 3 13s1.5 6.66699 1.5 8c11.333 44 25.166 87.333 41.499 130s34.5 84.667 54.5 126l27 58.5l27 58.5l14.5 27l18 32.5c6.33301 11 12.833 21.333 19.5 31s13 17.167 19 22.5
c2.66699 2.66699 5.66699 4 9 4c2.66699 0 6.33398 -1.83301 11.001 -5.5s7 -7.16699 7 -10.5c0 -2 -1.16699 -6.66699 -3.5 -14s-5.16602 -15.166 -8.49902 -23.499l-9.5 -24c-3 -7.66699 -4.83301 -12.834 -5.5 -15.501c11.333 10.667 24.5 22.334 39.5 35.001
s31 24.334 48 35.001s34.5 19.5 52.5 26.5s35 10.5 51 10.5c9.33301 0 18.166 -4.16699 26.499 -12.5s13.166 -17.166 14.499 -26.499c1.33301 -6.66699 2 -11.667 2 -15c0 -11.333 -2.16699 -25.166 -6.5 -41.499s-8.5 -30.166 -12.5 -41.499
c-6.66699 -19.333 -16.334 -44.833 -29.001 -76.5l-38 -97.5c-12.667 -33.333 -23.667 -65.333 -33 -96s-14 -54.667 -14 -72c0 -7.33301 0.666992 -13.5 2 -18.5s6.33301 -7.5 15 -7.5c12 0 26.167 3.66699 42.5 11s32.166 15.5 47.499 24.5s28.666 17.167 39.999 24.5
s18.333 11 21 11c4 0 7.5 -1.83301 10.5 -5.5s4.5 -7.5 4.5 -11.5z" />
    <glyph glyph-name="o" unicode="o" horiz-adv-x="445" 
d="M445 360c0 -25.333 -2.83789 -53.0029 -8.50488 -83.0029s-14.167 -60 -25.5 -90s-25.166 -59.167 -41.499 -87.5s-35 -53.5 -56 -75.5s-44.333 -39.5 -70 -52.5s-53.167 -19.5 -82.5 -19.5c-22 0 -41 5.83301 -57 17.5s-29.5 26.5 -40.5 44.5s-19.167 37.5 -24.5 58.5
s-8 40.833 -8 59.5c0 22 3 43.667 9 65c18.667 61.333 48.667 116 90 164s91.666 84 150.999 108c1.33301 0.666992 3 1 5 1c4.66699 0 8.16699 -1.66699 10.5 -5s3.5 -7 3.5 -11c0 -4.66699 -2.66699 -8.66699 -8 -12l-28 -15.5c-9.33301 -5 -18.666 -11.167 -27.999 -18.5
c-36.667 -26.667 -68 -59.667 -94 -99s-45.667 -80.666 -59 -123.999c-4.66699 -14 -7 -29.667 -7 -47c0 -14 2 -29 6 -45s10 -30.833 18 -44.5s18.167 -25 30.5 -34s26.833 -13.5 43.5 -13.5c10.667 0 20.834 2 30.501 6s18.834 9 27.501 15c25.333 18 48 41.333 68 70
s37 59.5 51 92.5s24.667 66.667 32 101s11 66.833 11 97.5v12c-1.33301 17.333 -7.16602 32 -17.499 44s-23.166 21.667 -38.499 29c-4.66699 2 -9.16699 3.66699 -13.5 5s-8.5 3 -12.5 5c-6.66699 2.66699 -10 7.33398 -10 14.001c0 4.66699 1.33301 8.66699 4 12
s6.33398 4.66602 11.001 3.99902h1c14.667 -1.33301 29.167 -4.66602 43.5 -9.99902s27.166 -12.666 38.499 -21.999s20.833 -20.333 28.5 -33s12.5 -27 14.5 -43c1.33301 -6.66699 2 -13.167 2 -19.5v-20.5z" />
    <glyph glyph-name="p" unicode="p" horiz-adv-x="418" 
d="M418 355c0 -42.667 -7.49512 -83.8311 -22.4951 -123.498s-34.167 -77.5 -57.5 -113.5c-11.333 -16.667 -23.5 -32.834 -36.5 -48.501s-27.333 -29.5 -43 -41.5s-32.667 -21.667 -51 -29s-38.166 -11 -59.499 -11c-2.66699 0 -6.83398 0.166992 -12.501 0.5
s-9.5 0.833008 -11.5 1.5c-10.667 2.66699 -20.334 8.33398 -29.001 17.001s-15 18 -19 28l-31 -80.5c-12.667 -32.333 -27.334 -66.5 -44.001 -102.5s-35.167 -72.167 -55.5 -108.5s-42 -69 -65 -98s-47.333 -52.5 -73 -70.5s-51.834 -27 -78.501 -27
c-18.667 0 -35.334 3.5 -50.001 10.5s-27.834 16.333 -39.501 28s-22.167 24.667 -31.5 39s-18 28.833 -26 43.5c-1.33301 2.66699 -2 4.66699 -2 6c0 4 1.83301 7.5 5.5 10.5s7.16699 4.5 10.5 4.5c4.66699 0 8.33398 -2 11.001 -6
c3.33301 -5.33301 6.66602 -10.333 9.99902 -15s6.66602 -9.66699 9.99902 -15c11.333 -16 25 -31.333 41 -46s34.667 -22 56 -22c19.333 0 38.5 7 57.5 21s37.5 32.333 55.5 55s35 47.834 51 75.501s30.667 55.167 44 82.5s25.166 53.166 35.499 77.499l24.5 58.5
c23.333 59.333 44 119 62 179s35 121 51 183l15.5 61l15.5 61c2.66699 8.66699 4.83398 17.5 6.50098 26.5s4.16699 17.833 7.5 26.5c2.66699 6.66699 7.33398 10 14.001 10c4.66699 0 8.66699 -1.16699 12 -3.5s5 -5.83301 5 -10.5c0 -7.33301 -0.333008 -15.333 -1 -24
s-1.66699 -17.667 -3 -27l7 3.5c2 1 4 2.16699 6 3.5c18 9.33301 35.167 17.166 51.5 23.499s34.5 11.166 54.5 14.499c3.33301 0.666992 6.5 1.16699 9.5 1.5s6.16699 0.5 9.5 0.5c12.667 0 24.667 -2.5 36 -7.5s21.5 -11.667 30.5 -20s16.5 -18 22.5 -29
s10 -22.5 12 -34.5c0.666992 -6.66699 1.16699 -13.167 1.5 -19.5s0.5 -12.833 0.5 -19.5zM373.005 363.003c0 22.667 -4.66309 42.165 -13.9961 58.498s-26.666 24.5 -51.999 24.5c-12.667 0 -26.334 -2.16699 -41.001 -6.5s-28.334 -9.16602 -41.001 -14.499
s-23.834 -10.333 -33.501 -15s-15.834 -7 -18.501 -7c-4 -27.333 -8.83301 -54.666 -14.5 -81.999s-11.167 -51 -16.5 -71c-2.66699 -11.333 -5.83398 -22.833 -9.50098 -34.5s-6.5 -23.167 -8.5 -34.5c-2 -10.667 -3.33301 -23.667 -4 -39s-1 -28.666 -1 -39.999v-15.5
c0 -6.33301 0.5 -12.5 1.5 -18.5s2.66699 -11.333 5 -16s6.16602 -7.66699 11.499 -9c2 -0.666992 4.16699 -1 6.5 -1h6.5c14.667 0 29.167 3.33301 43.5 10s27.833 15 40.5 25s24.334 21.167 35.001 33.5s19.667 24.166 27 35.499c20.667 32 38.667 66.667 54 104
s23 75 23 113z" />
    <glyph glyph-name="q" unicode="q" horiz-adv-x="421" 
d="M513 -329c0 -3.33301 -1.33691 -6.33203 -4.00391 -8.99902c-11.333 -11.333 -25.5 -24 -42.5 -38s-35 -27 -54 -39s-38.167 -22 -57.5 -30s-37.333 -12 -54 -12c-24 0 -42.833 6.33301 -56.5 19s-24 28.167 -31 46.5s-11.5 38.166 -13.5 59.499s-3 41 -3 59
c0 24.667 1.83301 52 5.5 82s8.5 60.333 14.5 91s12.667 60.667 20 90l21 81c-3.33301 -3.33301 -6.33301 -6.5 -9 -9.5s-5.66699 -6.16699 -9 -9.5l-29.5 -29c-9.66699 -9.33301 -20 -17.5 -31 -24.5s-22.667 -12.667 -35 -17s-26.166 -6.5 -41.499 -6.5
c-10.667 0 -20 2.66699 -28 8s-14.833 12 -20.5 20s-10.167 16.833 -13.5 26.5s-5.66602 18.834 -6.99902 27.501c-2 12 -3 24.667 -3 38c0 41.333 7.5 84.833 22.5 130.5s36.167 87.667 63.5 126s59.833 70 97.5 95s79.5 37.5 125.5 37.5h14c6 0 11.833 -0.5 17.5 -1.5
s10.5 -2.83301 14.5 -5.5s6 -6.33398 6 -11.001c0 -3.33301 -1.33301 -6.66602 -4 -9.99902s-6 -5 -10 -5c-4.66699 0 -9.16699 0.333008 -13.5 1s-8.83301 1 -13.5 1c-27.333 0 -53 -5.33301 -77 -16s-46 -25 -66 -43s-38 -39 -54 -63s-29.5 -49.167 -40.5 -75.5
s-19.333 -53 -25 -80s-8.5 -52.5 -8.5 -76.5c0 -5.33301 0.166992 -11.833 0.5 -19.5s1.33301 -15.334 3 -23.001s4.33398 -14.5 8.00098 -20.5s8.83398 -9.66699 15.501 -11c18 2.66699 35.5 10.5 52.5 23.5s33 28 48 45s28.667 34.667 41 53l32.5 49.5
c16.667 27.333 31.667 54.833 45 82.5l40 84.5c6 13.333 11.667 27 17 41s11.666 27.667 18.999 41c3.33301 4.66699 7 7 11 7l6 11.5c2.66699 5 5.5 9.83301 8.5 14.5s6.16699 8.83398 9.5 12.501s6.66602 5.5 9.99902 5.5c4 0 7.83301 -1.5 11.5 -4.5s5.5 -6.5 5.5 -10.5
c0 -2.66699 -0.333008 -4.33398 -1 -5.00098l-101 -260c-33.333 -86 -60.666 -174.667 -81.999 -266c-9.33301 -39.333 -17.666 -78.833 -24.999 -118.5s-11 -79.5 -11 -119.5c0 -13.333 0.5 -27 1.5 -41s3.16699 -27.667 6.5 -41c7.33301 -30.667 26 -46 56 -46
c16 0 34.333 5.33301 55 16s40.5 22.5 59.5 35.5s35.5 24.833 49.5 35.5s22.333 16 25 16c4.66699 0 8.5 -1.66699 11.5 -5s4.5 -7 4.5 -11z" />
    <glyph glyph-name="r" unicode="r" horiz-adv-x="355" 
d="M422 400c0 -5.33301 -0.336914 -10.333 -1.00391 -15s-1.66699 -9.66699 -3 -15s-5 -8 -11 -8c-2.66699 0 -6.5 1.16699 -11.5 3.5s-7.5 4.83301 -7.5 7.5l1 9c0 4.66699 -0.5 10.334 -1.5 17.001s-2.66699 13.167 -5 19.5s-5.5 11.666 -9.5 15.999s-9.33301 6.5 -16 6.5
c-16 0 -33 -4.83301 -51 -14.5s-33.333 -19.167 -46 -28.5c-5.33301 -4 -12.666 -10 -21.999 -18l-29 -26c-10 -9.33301 -19.167 -18.333 -27.5 -27s-14.166 -15.667 -17.499 -21c-2 -2.66699 -4.5 -7.5 -7.5 -14.5s-6 -14.5 -9 -22.5l-9 -23c-3 -7.33301 -5.5 -13 -7.5 -17
l-38.5 -96c-12.333 -32 -23.833 -64.333 -34.5 -97c-5.33301 -15.333 -10.166 -31.166 -14.499 -47.499s-9.16602 -32.166 -14.499 -47.499c-2.66699 -5.33301 -6 -8 -10 -8c-2.66699 0 -6.5 1.5 -11.5 4.5s-7.5 5.83301 -7.5 8.5c0 7.33301 1.16699 15.666 3.5 24.999
s4.16602 17.666 5.49902 24.999c8.66699 43.333 19.334 86 32.001 128s27.334 83.333 44.001 124l21.5 57l26.5 67.5c9.33301 23 19.166 44.667 29.499 65s20.833 36.5 31.5 48.5c2.66699 2.66699 5.66699 4 9 4c2.66699 0 6.5 -1.5 11.5 -4.5s7.5 -6.16699 7.5 -9.5
c0 -2 -0.666992 -5.5 -2 -10.5s-2.66602 -10.333 -3.99902 -16s-2.83301 -11 -4.5 -16l-3.5 -10.5c21.333 16 43.666 30.333 66.999 43s49 19 77 19c12 0 22.333 -2.5 31 -7.5s16 -11.5 22 -19.5s10.333 -17 13 -27s4 -20.333 4 -31z" />
    <glyph glyph-name="s" unicode="s" horiz-adv-x="369" 
d="M461 480c0 -8.66699 -4.00391 -13.6592 -12.0039 -14.9922c-3.33301 -1.33301 -6.5 -1.83301 -9.5 -1.5s-6.16699 0.166016 -9.5 -0.500977c-8 -0.666992 -15.833 -1.66699 -23.5 -3l-23.5 -4c-36 -7.33301 -71.167 -19.166 -105.5 -35.499
s-64.166 -37.833 -89.499 -64.5c-7.33301 -8 -13.166 -16.5 -17.499 -25.5s-6.5 -19.167 -6.5 -30.5c0 -7.33301 4 -13 12 -17s17.833 -8 29.5 -12l38 -13c13.667 -4.66699 26.334 -11.334 38.001 -20.001s21.5 -19.834 29.5 -33.501s12 -31.167 12 -52.5
c0 -24.667 -4.66699 -48.334 -14 -71.001s-22.333 -42.834 -39 -60.501s-36 -31.667 -58 -42s-45.333 -15.5 -70 -15.5c-23.333 0 -43.833 5 -61.5 15s-32.5 23 -44.5 39s-21 34.167 -27 54.5s-9 41.166 -9 62.499c0 4 0.166992 9.16699 0.5 15.5s1 12.5 2 18.5
s2.83301 11.333 5.5 16s6.66699 7 12 7c3.33301 0 6.83301 -1.33301 10.5 -4s5.5 -6 5.5 -10c0 -15.333 1.83301 -32.333 5.5 -51s9.5 -36 17.5 -52s18.667 -29.5 32 -40.5s29.666 -16.5 48.999 -16.5c17.333 0 34 3.83301 50 11.5s30.167 17.834 42.5 30.501
s22 27.167 29 43.5s10.5 33.166 10.5 50.499v10c0 11.333 -3.83301 20.666 -11.5 27.999s-17.167 13.5 -28.5 18.5s-23.666 9.83301 -36.999 14.5s-25.666 10.167 -36.999 16.5s-20.833 14.166 -28.5 23.499s-11.5 21.666 -11.5 36.999c0 16 3.5 31.333 10.5 46
s16.167 27.667 27.5 39c39.333 38 84.5 65.5 135.5 82.5s103.5 25.5 157.5 25.5c4 0 7 -1.5 9 -4.5s3 -6.16699 3 -9.5z" />
    <glyph glyph-name="t" unicode="t" horiz-adv-x="331" 
d="M352 655c0 -1.33301 -0.166992 -2.33301 -0.5 -3s-0.5 -1.33398 -0.5 -2.00098l-64 -136.5c-22 -45 -41.667 -91.5 -59 -139.5c7.33301 0 14.333 0.166992 21 0.5s13.667 0.5 21 0.5c3.33301 0 7.16602 0.166992 11.499 0.5s8.33301 0 12 -1s6.83398 -2.66699 9.50098 -5
s4 -6.16602 4 -11.499c0 -6.66699 -2.66699 -11 -8 -13c-4.66699 -1.33301 -10.834 -2.83301 -18.501 -4.5s-15.667 -3.16699 -24 -4.5s-16.333 -2.5 -24 -3.5l-19.5 -2.5c-6 -17.333 -11.667 -36.5 -17 -57.5s-10 -42.667 -14 -65s-7.33301 -44.333 -10 -66
s-4 -41.5 -4 -59.5c0 -4.66699 0.166992 -11.834 0.5 -21.501s1.33301 -19.167 3 -28.5s4.33398 -17.666 8.00098 -24.999s8.83398 -11 15.501 -11c9.33301 0 20 4.66699 32 14s23.833 20.166 35.5 32.499s22.667 24.666 33 36.999s18.833 21.833 25.5 28.5
c2.66699 2.66699 5.66699 4 9 4c4 0 7.83301 -1.66699 11.5 -5s5.5 -7 5.5 -11c0 -2 -1 -4.33301 -3 -7l-28.5 -39.5c-11.667 -15.667 -24.334 -30.667 -38.001 -45s-28 -26.5 -43 -36.5s-29.5 -15 -43.5 -15c-15.333 0 -27.666 5.33301 -36.999 16s-16.5 23.5 -21.5 38.5
s-8.33301 30.667 -10 47s-2.5 30.166 -2.5 41.499c0 16 1.16699 34 3.5 54s5.16602 40.333 8.49902 61s7.33301 40.834 12 60.501l13 53.5c-5.33301 0 -10.5 -0.166992 -15.5 -0.5s-10.167 -0.5 -15.5 -0.5c-14 0 -28.333 0.333008 -43 1s-29 2.16699 -43 4.5
s-27.667 6.33301 -41 12s-25.333 13.5 -36 23.5c-2.66699 2 -4 5 -4 9c0 1.33301 2 4.83301 6 10.5s6.66699 8.5 8 8.5c24.667 0 49 -2.66699 73 -8s48.333 -8.66602 73 -9.99902c8 -0.666992 16.167 -1 24.5 -1h25.5h3c7.33301 22.667 16.333 47.334 27 74.001
s22.667 53 36 79s27.5 51.167 42.5 75.5s30.5 45.5 46.5 63.5c4 2.66699 7.33301 4 10 4c4 0 8 -1.5 12 -4.5s6 -6.5 6 -10.5z" />
    <glyph glyph-name="u" unicode="u" horiz-adv-x="488" 
d="M529 99c0 -2.66699 -1.3291 -5.33203 -3.99609 -7.99902l-38 -45c-12 -14.667 -24.833 -28.334 -38.5 -41.001s-28.667 -23.667 -45 -33s-34.833 -16.333 -55.5 -21c-30.667 14 -46 37.667 -46 71c0 7.33301 0.666992 14.833 2 22.5s1.66602 15.5 0.999023 23.5
c-9.33301 -10 -20.833 -21.167 -34.5 -33.5s-28.334 -24.166 -44.001 -35.499s-31.5 -20.833 -47.5 -28.5s-31 -11.5 -45 -11.5c-18.667 0 -34 3.83301 -46 11.5s-21.5 17.667 -28.5 30s-11.833 26.333 -14.5 42s-4 31.167 -4 46.5c0 16 1 31.667 3 47
c3.33301 32 9 62.833 17 92.5s17.667 59.167 29 88.5l27 61.5l28 60.5c3.33301 6.66699 6.66602 14.167 9.99902 22.5s7 15.166 11 20.499c3.33301 4.66699 7.33301 7 12 7c3.33301 0 7 -1.66699 11 -5s6 -6.66602 6 -9.99902c0 -4.66699 -0.833008 -11.167 -2.5 -19.5
s-3.66699 -17 -6 -26l-7 -26c-2.33301 -8.33301 -4.5 -14.833 -6.5 -19.5c-7.33301 -24 -15.833 -47.833 -25.5 -71.5s-18.667 -47.667 -27 -72s-15.333 -48.833 -21 -73.5s-8.5 -49.667 -8.5 -75c0 -7.33301 0.333008 -15.833 1 -25.5s2.33398 -19 5.00098 -28
s6.83398 -16.667 12.501 -23s13.5 -9.5 23.5 -9.5c13.333 0 28.5 4.5 45.5 13.5s34 19.667 51 32s33.167 25.166 48.5 38.499l37 33c6 28.667 14.167 60.834 24.5 96.501s22.5 71.5 36.5 107.5s29.333 70.167 46 102.5s34.667 59.5 54 81.5
c3.33301 3.33301 6.66602 5 9.99902 5c4 0 8 -1.66699 12 -5s6 -7.33301 6 -12c-0.666992 -0.666992 -1 -1.33398 -1 -2.00098c-12.667 -35.333 -27.834 -73.5 -45.501 -114.5s-34.5 -82.667 -50.5 -125s-29.667 -84.5 -41 -126.5s-17 -82 -17 -120
c0 -2.66699 0.166992 -5.33398 0.5 -8.00098s1.83301 -4.66699 4.5 -6c15.333 2.66699 31.5 10.334 48.5 23.001s33 26.167 48 40.5l39.5 38.5c11.333 11.333 18.666 17 21.999 17c4 0 7.83301 -1.66699 11.5 -5s5.5 -7 5.5 -11z" />
    <glyph glyph-name="v" unicode="v" horiz-adv-x="381" 
d="M544 637c0 -28 -5.83398 -56.499 -17.501 -85.499s-26.167 -57.333 -43.5 -85s-36.333 -54 -57 -79s-40 -47.167 -58 -66.5l-86.5 -91.5c-29 -29.667 -57.5 -60.5 -85.5 -92.5l-58 -70.5c-18.667 -23.667 -36.667 -48.167 -54 -73.5l-17.5 -28.5l-17.5 -28.5
c-2.66699 -4 -6 -6 -10 -6c-2.66699 0 -6.5 1.66699 -11.5 5s-7.5 6.33301 -7.5 9c0 5.33301 0.666992 11 2 17s2.66602 11.667 3.99902 17c6.66699 36 15.167 71.167 25.5 105.5s19.5 69.5 27.5 105.5l21 98c6.66699 32.667 12.334 65.667 17.001 99l4 32.5l4 33.5
c0.666992 4.66699 0.833984 9.33398 0.500977 14.001s0.166992 9.33398 1.5 14.001c0.666992 3.33301 2.5 6 5.5 8s6.16699 3 9.5 3s6.5 -1 9.5 -3s4.83301 -4.66699 5.5 -8c1.33301 -8 1.83301 -16.5 1.5 -25.5s-0.5 -17.5 -0.5 -25.5c0 -52 -4 -102.833 -12 -152.5
s-17.667 -99.5 -29 -149.5c13.333 17.333 27.5 34.333 42.5 51l45.5 49l54 54.5l64 65.5l65.5 72.5c21.667 25 41 50.333 58 76s30.667 51 41 76s15.5 49.167 15.5 72.5c0 27.333 -8 51.666 -24 72.999c-11.333 15.333 -25.333 28 -42 38s-33.667 18.667 -51 26
c-3.33301 1.33301 -7.33301 2.66602 -12 3.99902s-8.66699 3 -12 5c-5.33301 3.33301 -8 7.33301 -8 12c0 3.33301 1.5 7 4.5 11s6.5 6 10.5 6l2 -1c22.667 -6 44.5 -14 65.5 -24s39.5 -22.333 55.5 -37s28.667 -31.834 38 -51.501s14 -42.5 14 -68.5z" />
    <glyph glyph-name="w" unicode="w" horiz-adv-x="658" 
d="M832 629c0 -18 -2.66406 -35.9961 -7.99707 -53.9961c-12 -40.667 -30.5 -79.834 -55.5 -117.501s-52.833 -74.334 -83.5 -110.001s-62.334 -70 -95.001 -103s-63 -65.167 -91 -96.5c-26.667 -30 -52 -60.667 -76 -92s-46.333 -64.333 -67 -99l-6 -10
c-2 -3.33301 -5.33301 -5 -10 -5c-2.66699 0 -6.33398 1.66699 -11.001 5s-7 6.33301 -7 9c0 10 1.5 21.667 4.5 35l7.5 34c6 28 13 55.667 21 83s14.667 55 20 83c7.33301 33.333 14 66.333 20 99s11 66 15 100c-18.667 -30 -38.667 -58.833 -60 -86.5l-64 -83.5
l-79.5 -101c-27 -33.333 -54.833 -66 -83.5 -98l-30 -33l-31 -32c-2 -2 -4.66699 -3 -8 -3s-8 2.16699 -14 6.5s-9 8.16602 -9 11.499c0 18.667 1.5 37.667 4.5 57s6.66699 39 11 59s8.83301 39.667 13.5 59s8.66699 38.333 12 57l19.5 93
c6.33301 30.667 13.166 61.667 20.499 93c3.33301 14.667 6.5 29.5 9.5 44.5s6.83301 29.5 11.5 43.5c2 5.33301 6 8 12 8c2.66699 0 6.33398 -1.5 11.001 -4.5s7 -5.83301 7 -8.5c0 -4.66699 -0.5 -10.5 -1.5 -17.5l-3 -22c-1 -7.66699 -2.16699 -15.167 -3.5 -22.5
s-2.33301 -13.666 -3 -18.999c-4 -33.333 -8.66699 -66.333 -14 -99l-16 -98c-4.66699 -25.333 -9 -50.5 -13 -75.5s-9.66699 -49.833 -17 -74.5l77.5 102.5l76.5 103.5l81.5 114.5c26.333 38.333 56.5 74.166 90.5 107.499c2.66699 6.66699 7.66699 10 15 10
c3.33301 0 6.5 -1 9.5 -3s4.5 -4.66699 4.5 -8c0.666992 0 1 0.166992 1 0.5s0.333008 0.5 1 0.5s1.16699 -0.833008 1.5 -2.5s0.5 -3.16699 0.5 -4.5s-0.333008 -2.66602 -1 -3.99902l-2 -4c0.666992 -7.33301 1 -14.833 1 -22.5v-23.5c0 -47.333 -3.33301 -94 -10 -140
s-14.667 -92.333 -24 -139c13.333 17.333 27.166 34.166 41.499 50.499s29.166 32.166 44.499 47.499l52.5 53l62.5 64c21.333 22.667 42.333 46.167 63 70.5s39.334 49 56.001 74s30 49.833 40 74.5s15 48 15 70c0 27.333 -7.66699 51 -23 71
c-10.667 13.333 -23.5 24.666 -38.5 33.999s-30.167 17.666 -45.5 24.999c-5.33301 2 -10.5 3.83301 -15.5 5.5s-9.5 3.5 -13.5 5.5c-6 2.66699 -9 7 -9 13c0 3.33301 1.66699 6.83301 5 10.5s6.66602 5.5 9.99902 5.5h2c22 -6 43.333 -13.833 64 -23.5
s38.834 -21.667 54.501 -36s28.167 -31.166 37.5 -50.499s14 -41.666 14 -66.999z" />
    <glyph glyph-name="x" unicode="x" horiz-adv-x="382" 
d="M469 120c0 -1.33301 -0.662109 -4 -1.99512 -8c-8.66699 -14 -19.667 -30.5 -33 -49.5s-28 -37 -44 -54s-32.5 -31.333 -49.5 -43s-33.5 -17.5 -49.5 -17.5c-13.333 0 -26 3.16699 -38 9.5s-22 15.5 -30 27.5c-9.33301 13.333 -17.5 28.666 -24.5 45.999
s-13 35.333 -18 54s-9.33301 37.334 -13 56.001s-6.83398 36.667 -9.50098 54c-34 -47.333 -65.333 -96.166 -94 -146.499s-58.334 -99.833 -89.001 -148.5c-30.667 -50 -63.334 -97.667 -98.001 -143s-75 -86 -121 -122c-18 -14 -37.667 -25.667 -59 -35s-43 -14 -65 -14
c-24 0 -45.667 5.83301 -65 17.5s-36.833 27 -52.5 46s-29.334 40.333 -41.001 64s-21.834 47.167 -30.501 70.5c-0.666992 1.33301 -1 3.33301 -1 6c0 4.66699 1.5 8.5 4.5 11.5s6.16699 4.5 9.5 4.5c6 0 10 -2.66699 12 -8c3.33301 -6.66699 6.33301 -13.334 9 -20.001
s5.66699 -13.334 9 -20.001c11.333 -23.333 24.666 -45.5 39.999 -66.5s33 -37.167 53 -48.5c15.333 -8.66699 31.666 -13 48.999 -13c19.333 0 38 4.33301 56 13s34.667 19.334 50 32.001c34.667 29.333 66.5 61.833 95.5 97.5s56.167 73.5 81.5 113.5
c26 40 50.833 80.833 74.5 122.5l71.5 124.5c14 23.333 28.5 46.333 43.5 69s30.5 44.667 46.5 66l-10 96.5c-3.33301 32.333 -5 64.5 -5 96.5c0 4 2 7.66699 6 11s7.33301 5 10 5c6 0 10 -3 12 -9c7.33301 -20.667 13.333 -44.834 18 -72.501s8.66699 -52.834 12 -75.501
c34.667 38.667 72.167 71.834 112.5 99.501s83.833 46.834 130.5 57.501l2 1c4 0 7.5 -1.83301 10.5 -5.5s4.5 -7.83398 4.5 -12.501c0 -6.66699 -3 -11.667 -9 -15c-4.66699 -2.66699 -9.33398 -5 -14.001 -7s-9 -4 -13 -6c-42.667 -21.333 -81.667 -47.833 -117 -79.5
s-68 -66.167 -98 -103.5c0.666992 -7.33301 1.83398 -16.666 3.50098 -27.999l5.5 -37c2 -13.333 4.33301 -27.166 7 -41.499s5.66699 -28.5 9 -42.5c7.33301 -28.667 16.5 -53.167 27.5 -73.5s24.5 -30.5 40.5 -30.5c3.33301 0 6.83301 0.666992 10.5 2l10.5 4
c13.333 6.66699 25.833 15 37.5 25s22.834 21 33.501 33c11.333 11.333 21.833 23.5 31.5 36.5s19.834 25.5 30.501 37.5c2.66699 2.66699 5.33398 4 8.00098 4c3.33301 0 6.66602 -1.83301 9.99902 -5.5s5 -7.83398 5 -12.501z" />
    <glyph glyph-name="y" unicode="y" horiz-adv-x="443" 
d="M499 470c0 -2.66699 -0.328125 -4.6582 -0.995117 -5.99121c-25.333 -68 -52.333 -134.5 -81 -199.5s-55.667 -131.5 -81 -199.5c-12.667 -32.667 -23.834 -65.334 -33.501 -98.001l-28.5 -100c-2 -7.33301 -4.16699 -14.166 -6.5 -20.499l-7.5 -20.5
c-8 -24.667 -16.333 -48.834 -25 -72.501s-18.667 -46.834 -30 -69.501s-24.333 -44.167 -39 -64.5s-31.334 -38 -50.001 -53s-39 -27 -61 -36s-46 -13.5 -72 -13.5c-27.333 0 -52.833 4.83301 -76.5 14.5s-45.5 22.667 -65.5 39s-37.833 35.666 -53.5 57.999
s-29.5 46.5 -41.5 72.5c-1.33301 2.66699 -2 5 -2 7c-0.666992 5.33301 0.833008 9.16602 4.5 11.499s7.5 3.5 11.5 3.5c2.66699 0 5 -1 7 -3s3.66699 -4 5 -6c4.66699 -7.33301 8.83398 -15.166 12.501 -23.499s8.16699 -16.166 13.5 -23.499c10 -14 21.5 -27.5 34.5 -40.5
s27.333 -24.333 43 -34s32.167 -17.334 49.5 -23.001s35 -8.5 53 -8.5c27.333 0 52.666 6.66699 75.999 20c33.333 20 61 47.667 83 83s41 74.333 57 117c15.333 41.333 28.5 83.5 39.5 126.5s22.167 83.167 33.5 120.5c-8 -7.33301 -17.667 -15.333 -29 -24
s-23 -16.834 -35 -24.501s-24.167 -14.167 -36.5 -19.5s-23.5 -8 -33.5 -8c-19.333 0 -36.833 6.33301 -52.5 19s-25.5 29.667 -29.5 51c-3.33301 13.333 -5.33301 25.666 -6 36.999c-1.33301 20.667 -0.5 42.5 2.5 65.5s7.33301 46 13 69s12.167 45.333 19.5 67
s15 41.5 23 59.5c16.667 38.667 34.667 76.667 54 114c4 7.33301 7.66699 15 11 23s7.33301 15.667 12 23c2.66699 4 6.66699 6 12 6c3.33301 0 7 -1.83301 11 -5.5s6.33301 -7.5 7 -11.5l-3 -15c-6 -28 -13.833 -55.333 -23.5 -82s-19.834 -52.667 -30.501 -78l-22.5 -56.5
c-7.66699 -19.667 -14.334 -39.5 -20.001 -59.5s-10.167 -40.167 -13.5 -60.5s-4.33301 -40.5 -3 -60.5c0.666992 -6 1.5 -12.333 2.5 -19s2.83301 -12.834 5.5 -18.501s6 -10.334 10 -14.001s9.33301 -5.5 16 -5.5c11.333 0 24.666 3.83301 39.999 11.5
s30.666 16.667 45.999 27s29.833 21.166 43.5 32.499s24.834 21 33.501 29c17.333 48 36 94.833 56 140.5s41.667 90.5 65 134.5l28 53.5c9.33301 18.333 19.333 35.833 30 52.5c2.66699 4.66699 6.66699 7 12 7c4.66699 0 8.5 -1.83301 11.5 -5.5
s4.83301 -7.83398 5.5 -12.501z" />
    <glyph glyph-name="z" unicode="z" horiz-adv-x="377" 
d="M781 -57c-8 -43.333 -24.165 -77.501 -48.498 -102.501s-59.5 -38.833 -105.5 -41.5c-23.333 -1.33301 -47.333 0.166992 -72 4.5s-49.334 10.166 -74.001 17.499s-49 15.5 -73 24.5l-69 26.5l-96.5 39c-32.333 13.333 -65.5 21.666 -99.5 24.999
c-10.667 1.33301 -21 2.16602 -31 2.49902s-20 0.166016 -30 -0.500977c-4.66699 -0.666992 -9 -1 -13 -1s-8.33301 -0.333008 -13 -1c-12.667 -1.33301 -25.167 -3.16602 -37.5 -5.49902s-24.5 -5.16602 -36.5 -8.49902
c-5.33301 -1.33301 -11.166 -3.16602 -17.499 -5.49902s-11.833 -3.83301 -16.5 -4.5c-4 0 -8 1.66699 -12 5s-6.33301 7 -7 11c-1.33301 6 0.333984 10.333 5.00098 13c38.667 54 79.667 106.5 123 157.5s88 100.5 134 148.5l81 83.5c26.667 27.667 54.667 54.5 84 80.5
c-14.667 -3.33301 -30.334 -6.16602 -47.001 -8.49902s-32.667 -3.83301 -48 -4.5c-11.333 -0.666992 -23.666 -0.833984 -36.999 -0.500977s-26.833 1.5 -40.5 3.5s-27 5 -40 9s-24.5 9.33301 -34.5 16c-4 2.66699 -6 5.33398 -6 8.00098
c-0.666992 3.33301 0.333008 7.33301 3 12s6 7 10 7h2c32.667 -7.33301 65.667 -10.666 99 -9.99902c11.333 1.33301 22.166 2.5 32.499 3.5s20.833 2.16699 31.5 3.5c19.333 2.66699 38.166 6.33398 56.499 11.001s37.166 7.66699 56.499 9
c3.33301 0.666992 8.66602 1 15.999 1s12.666 -1 15.999 -3c0.666992 2 2.66699 3 6 3c4 0 8 -1.5 12 -4.5s6.33301 -6.83301 7 -11.5c0.666992 -2 0.333984 -4.66699 -0.999023 -8c-14 -22 -30.333 -43.333 -49 -64s-38 -41 -58 -61l-61 -58.5l-59 -56.5l-110.5 -115
l-107.5 -118c28 10 57.667 16 89 18c24.667 1.33301 47.834 -0.166992 69.501 -4.5s42.834 -10 63.501 -17s41.334 -15.167 62.001 -24.5s42.334 -18.333 65.001 -27c38.667 -15.333 77.667 -30 117 -44s79.333 -24.333 120 -31c13.333 -2 25.333 -2.66699 36 -2
c4 0 7.33301 0.333008 10 1c23.333 2.66699 44.166 10 62.499 22s32.166 28.667 41.499 50c2.66699 6 4.66699 12 6 18s3 11.667 5 17c1.33301 5.33301 4.66602 8 9.99902 8c4 0 7.83301 -1.33301 11.5 -4s6.16699 -6.33398 7.5 -11.001z" />
    <glyph glyph-name="braceleft" unicode="{" horiz-adv-x="251" 
d="M395 734c0 -2.66699 -0.829102 -5.66992 -2.49609 -9.00293s-3.83398 -5.66602 -6.50098 -6.99902c-12.667 -6.66699 -24.5 -14.834 -35.5 -24.501s-20.5 -20.5 -28.5 -32.5c-2.66699 -4.66699 -5.33398 -11.5 -8.00098 -20.5s-4.66699 -16.167 -6 -21.5
c-2.66699 -8.66699 -5 -17.167 -7 -25.5l-6 -25.5c-5.33301 -21.333 -9.83301 -43.166 -13.5 -65.499s-10.834 -43.166 -21.501 -62.499c-7.33301 -13.333 -17.833 -24.5 -31.5 -33.5s-27.5 -16.167 -41.5 -21.5c23.333 -16.667 35 -39.334 35 -68.001
c0 -8 -2 -17.167 -6 -27.5s-8.66699 -20.833 -14 -31.5s-11.166 -21.167 -17.499 -31.5s-11.5 -19.166 -15.5 -26.499l-29.5 -54c-9.66699 -18 -18.167 -37 -25.5 -57c-3.33301 -8 -6.5 -17.167 -9.5 -27.5s-4.5 -19.833 -4.5 -28.5s1.83301 -13.834 5.5 -15.501
s9.16699 -2.5 16.5 -2.5c2.66699 0 5 -2 7 -6s3 -7 3 -9c0 -3.33301 -0.833008 -6.33301 -2.5 -9s-4.16699 -4.66699 -7.5 -6h1c-2 -0.666992 -5.33301 -1 -10 -1c-13.333 0 -25.333 4.66699 -36 14s-16 20.666 -16 33.999c0 34.667 6.66699 68 20 100s28 63 44 93
c2.66699 4.66699 6.16699 11.167 10.5 19.5l13 26c4.33301 9 8.16602 17.667 11.499 26s5.66602 15.166 6.99902 20.499v3c0 8.66699 -3.66699 18.334 -11 29.001s-14.666 18.334 -21.999 23.001c-2.66699 1.33301 -4.5 2.16602 -5.5 2.49902s-2.16699 1.83301 -3.5 4.5
c-2 2.66699 -3 6 -3 10c0 2 0.5 4 1.5 6s2.83301 3.33301 5.5 4l-1 2c0 2 1.83301 3.16699 5.5 3.5s6.16699 0.5 7.5 0.5l22 9c8 3.33301 15.833 7.33301 23.5 12s14.5 9.83398 20.5 15.501s10.667 11.834 14 18.501c3.33301 8.66699 5.83301 17.834 7.5 27.501
s3.16699 19.167 4.5 28.5c2 10 4.33301 23.333 7 40s6 33.667 10 51s8.16699 33.833 12.5 49.5s8.83301 27.167 13.5 34.5s10.5 14.5 17.5 21.5s14.833 13.167 23.5 18.5s17.667 9.66602 27 12.999s18.333 5 27 5c5.33301 0 10.666 -0.666992 15.999 -2
s8 -5.66602 8 -12.999z" />
    <glyph glyph-name="bar" unicode="|" horiz-adv-x="276" 
d="M327 734c0 -25.333 -2.66699 -53.333 -8 -84s-12 -61.667 -20 -93s-16.833 -62 -26.5 -92l-27.5 -82c-16.667 -48 -34.834 -95 -54.501 -141s-41.167 -92 -64.5 -138l-27.5 -56c-9.66699 -20 -19.5 -37.667 -29.5 -53c-3.33301 -4 -7 -6 -11 -6s-7.83301 1.5 -11.5 4.5
s-5.5 6.83301 -5.5 11.5v2l27.5 63l27.5 63l52.5 132c17 44 33.167 89 48.5 135c12 37.333 22.833 75 32.5 113s19.834 76 30.501 114l16.5 57c5.66699 19.333 12.5 38 20.5 56c2 5.33301 6.33301 8 13 8c3.33301 0 7 -1.5 11 -4.5s6 -6.16699 6 -9.5z" />
    <glyph glyph-name="braceright" unicode="}" horiz-adv-x="284" 
d="M335 677c0 -9.33301 -1.66699 -18.8291 -5 -28.4961s-7.16602 -19.5 -11.499 -29.5s-9 -19.833 -14 -29.5s-9.16699 -18.834 -12.5 -27.501c-3.33301 -8 -8 -17.167 -14 -27.5s-11.667 -21 -17 -32s-10 -21.667 -14 -32s-6 -19.5 -6 -27.5
c0 -10 2.83301 -17.167 8.5 -21.5s11.667 -7.83301 18 -10.5s12.333 -5 18 -7s8.5 -5.33301 8.5 -10c0 -1.33301 -0.666992 -4 -2 -8c0.666992 -0.666992 1 -2 1 -4c0 -5.33301 -2 -9.33301 -6 -12l-44.5 -26c-12.333 -7.33301 -25.833 -18.333 -40.5 -33
c-4 -4 -7.5 -10 -10.5 -18s-5.5 -16.5 -7.5 -25.5s-3.66699 -18 -5 -27s-2.33301 -16.5 -3 -22.5c-3.33301 -24 -7 -47.667 -11 -71s-10.667 -46.333 -20 -69c-4.66699 -11.333 -10.167 -23 -16.5 -35s-14 -22.667 -23 -32s-19 -17 -30 -23s-23.5 -9 -37.5 -9
c-5.33301 0 -9.66602 1.16699 -12.999 3.5s-5 6.16602 -5 11.499c0 3.33301 1 6.5 3 9.5s4.33301 4.83301 7 5.5c3.33301 1.33301 6.5 2.16602 9.5 2.49902s6.16699 1.16602 9.5 2.49902c15.333 6 27 17 35 33s14.667 31.333 20 46c6.66699 21.333 11.167 43 13.5 65
s5.16602 44 8.49902 66c1.33301 10 2.33301 19.833 3 29.5s1.66699 19.5 3 29.5c4 28 15.167 51.333 33.5 70s40.166 32 65.499 40c-23.333 13.333 -35 32.666 -35 57.999c0 11.333 4.5 27.5 13.5 48.5l29 66.5l29 67.5c9 21.667 13.5 39.167 13.5 52.5
c0 8.66699 -1.5 15.334 -4.5 20.001s-6.33301 8.5 -10 11.5s-7 6 -10 9s-4.5 7.5 -4.5 13.5c0 9.33301 5.33301 14 16 14c21.333 0 37.833 -8 49.5 -24s17.5 -33.667 17.5 -53z" />
    <glyph glyph-name="asciitilde" unicode="~" horiz-adv-x="700" 
d="M741 399c0 -2.66699 -1.33398 -5.33301 -4.00098 -8c-15.333 -17.333 -36 -31.166 -62 -41.499s-50.667 -15.5 -74 -15.5c-27.333 0 -53.166 5.16699 -77.499 15.5s-48.333 21.833 -72 34.5s-47.667 24.167 -72 34.5s-49.833 15.5 -76.5 15.5
c-30.667 0 -59.667 -5.5 -87 -16.5s-54.333 -23.5 -81 -37.5c-1.33301 -0.666992 -3.33301 -1 -6 -1c-4 0 -7.66699 2 -11 6s-5 7.66699 -5 11c0 2 0.666992 4.33301 2 7c10 14 22.167 26.333 36.5 37s29.833 19.667 46.5 27s33.667 12.833 51 16.5s34.666 5.5 51.999 5.5
c21.333 0 40.833 -2.5 58.5 -7.5s36.167 -12.5 55.5 -22.5l39.5 -21l39.5 -21c18 -10 37 -19.5 57 -28.5s40.667 -13.5 62 -13.5c20.667 0 39.334 3.66699 56.001 11s33 16.666 49 27.999c2.66699 1.33301 5 2 7 2c4 0 7.66699 -1.83301 11 -5.5s5 -7.5 5 -11.5z" />
    <glyph glyph-name="uni00A0" unicode="&#xa0;" horiz-adv-x="297" 
 />
    <glyph glyph-name="exclamdown" unicode="&#xa1;" horiz-adv-x="236" 
d="M256 741c0 -11.333 -1.00098 -20.667 -3.00098 -28s-10 -11 -24 -11c-6.66699 0 -13 2.33301 -19 7s-9 10.667 -9 18c0 5.33301 2 10 6 14v1c-0.666992 2 -1 4.66699 -1 8c4.66699 3.33301 7.83398 7 9.50098 11s6.16699 6 13.5 6c6 0 12 -2.66699 18 -8s9 -11.333 9 -18
zM235.999 540.999c0 -36 -3.16699 -71.501 -9.5 -106.501l-19.5 -105.5l-22.5 -114l-22.5 -114c-2.66699 -12.667 -5.16699 -25.167 -7.5 -37.5s-4.5 -25.166 -6.5 -38.499c-1.33301 -5.33301 -2.33301 -10.833 -3 -16.5s-1.66699 -11.167 -3 -16.5
c-1.33301 -6 -5.66602 -9 -12.999 -9c-3.33301 0 -6.83301 1.16699 -10.5 3.5s-5.5 5.16602 -5.5 8.49902c0 13.333 0.5 26.5 1.5 39.5s2.16699 25.833 3.5 38.5c4.66699 44.667 10.5 89 17.5 133l21.5 132c5.33301 32 10 64 14 96l12 96l2.5 21
c1 8.66699 2.16699 17.5 3.5 26.5s2.66602 17.5 3.99902 25.5s2.66602 14.333 3.99902 19c2.66699 7.33301 8.33398 11 17.001 11c7.33301 0 12 -3.33301 14 -10c3.33301 -12.667 5.5 -26.167 6.5 -40.5s1.5 -28.166 1.5 -41.499zM222.999 751.998l-1 2v-3
c0.666992 0 1 0.333008 1 1z" />
    <glyph glyph-name="cent" unicode="&#xa2;" horiz-adv-x="331" 
d="M372 530c0 -6 -2.66797 -10.6689 -8.00098 -14.002c-3.33301 -1.33301 -6.5 -2.66602 -9.5 -3.99902s-6.16699 -2.66602 -9.5 -3.99902c-18.667 -8.66699 -35.334 -17.667 -50.001 -27l-28.5 -101.5l-28.5 -101.5c-8 -28 -15.5 -56 -22.5 -84l-20.5 -85
c10.667 2 21.167 6.33301 31.5 13s20 14.5 29 23.5s17.5 18.333 25.5 28s15 18.5 21 26.5c3.33301 4 6.33301 8.16699 9 12.5s5.66699 8.16602 9 11.499c2 3.33301 5 5 9 5s7.83301 -1.5 11.5 -4.5s5.5 -6.5 5.5 -10.5c0 -1.33301 -1.33301 -4.5 -4 -9.5
s-5.66699 -10.167 -9 -15.5l-10 -15.5l-7 -10.5c-16 -24.667 -34.167 -46.334 -54.5 -65.001s-45.833 -29.667 -76.5 -33c-2.66699 -9.33301 -5.16699 -21 -7.5 -35s-5.16602 -25 -8.49902 -33c-3.33301 -6.66699 -8 -10 -14 -10c-4.66699 0 -8 1.16699 -10 3.5
s-3.33301 5.16602 -4 8.49902s-1 6.83301 -1 10.5v10.5c0 18.667 1 37 3 55c-23.333 14 -39.333 32.833 -48 56.5s-13 48.167 -13 73.5c0 32 4.33301 63.833 13 95.5s21 61.5 37 89.5s35.5 53.5 58.5 76.5s49.167 41.5 78.5 55.5l10 35l10 35l4 15.5
c1.33301 5 3 10.167 5 15.5s6 8 12 8c2.66699 0 5.83398 -1.33301 9.50098 -4s5.5 -5.66699 5.5 -9s-0.666992 -8.66602 -2 -15.999s-3 -15.166 -5 -23.499l-6 -24c-2 -7.66699 -3.33301 -13.5 -4 -17.5c8 2.66699 16.333 4.83398 25 6.50098s17 2.5 25 2.5
c4 0 7.33301 -1.83301 10 -5.5s4 -7.16699 4 -10.5zM243.999 440.998c-33.333 -30.667 -60.333 -66.333 -81 -107s-31 -83.667 -31 -129c0 -13.333 1.33301 -27 4 -41s8 -26.333 16 -37c5.33301 28 12 55.333 20 82l25 81c7.33301 25.333 15 50.5 23 75.5z" />
    <glyph glyph-name="sterling" unicode="&#xa3;" horiz-adv-x="466" 
d="M497 109c0 -3.33301 -1 -6.00195 -3 -8.00195c-11.333 -13.333 -24.166 -24.166 -38.499 -32.499s-29.833 -15.166 -46.5 -20.499s-33.667 -9 -51 -11s-34 -3 -50 -3c-13.333 0 -26.333 0.666992 -39 2l-39 4c-33.333 4.66699 -66.333 7.83398 -99 9.50098
s-66 2.5 -100 2.5c-4 -5.33301 -8 -8 -12 -8s-8 2.16699 -12 6.5s-5.33301 8.83301 -4 13.5c-2 2 -3 4.33301 -3 7c0 5.33301 2.5 9.33301 7.5 12s9.83301 4.66699 14.5 6c23.333 32 43.833 66 61.5 102s34.5 72.333 50.5 109c-3.33301 -0.666992 -6.16602 -1 -8.49902 -1
h-7.5c-5.33301 0 -11.166 0.333008 -17.499 1s-12.333 2.16699 -18 4.5s-10.5 5.5 -14.5 9.5s-6 9 -6 15c0 6.66699 4 11.834 12 15.501s17.167 6.16699 27.5 7.5s20.666 2 30.999 2h22.5h3l32 68.5c12.667 27 27.5 52.667 44.5 77s36 45.166 57 62.499s43.833 26 68.5 26
c28 0 50 -9.16699 66 -27.5s24 -41.166 24 -68.499c0 -4 -0.666992 -9.33301 -2 -16s-3.33301 -13.334 -6 -20.001s-5.83398 -12.5 -9.50098 -17.5s-7.83398 -7.5 -12.501 -7.5s-8.5 2.16699 -11.5 6.5s-4.5 8.5 -4.5 12.5c0 3.33301 0.666992 7.16602 2 11.499
s2 8.83301 2 13.5c0 12.667 -3.83301 25.667 -11.5 39s-18.5 20 -32.5 20c-2.66699 0 -5.16699 -0.333008 -7.5 -1s-4.5 -1.33398 -6.5 -2.00098c-15.333 -5.33301 -29.833 -15 -43.5 -29s-26.334 -29.5 -38.001 -46.5s-22.334 -34.5 -32.001 -52.5s-17.834 -34 -24.501 -48
c11.333 -0.666992 22.166 -1.16699 32.499 -1.5s20.833 -0.833008 31.5 -1.5c2 -2 4.16699 -4.5 6.5 -7.5s3.5 -6.16699 3.5 -9.5c0 -6 -2.66699 -10.333 -8 -13c-5.33301 -2 -12 -3.83301 -20 -5.5s-16.167 -3.16699 -24.5 -4.5s-16.333 -2.5 -24 -3.5
s-14.5 -1.83301 -20.5 -2.5l-53 -104.5c-18 -34.333 -38.667 -67.166 -62 -98.499c6 0.666992 12 1.16699 18 1.5s12 0.5 18 0.5c18.667 0 37.5 -1.16699 56.5 -3.5s37.833 -5 56.5 -8s37.334 -5.66699 56.001 -8s37.667 -3.5 57 -3.5c25.333 0 49.833 3 73.5 9
s45.834 17.333 66.501 34c0.666992 0 1.33398 0.166992 2.00098 0.5s1.33398 0.5 2.00098 0.5c3.33301 0 7 -1.83301 11 -5.5s6 -7.5 6 -11.5z" />
    <glyph glyph-name="currency" unicode="&#xa4;" horiz-adv-x="431" 
d="M462 105c0 -4.66699 -2.00195 -8.83398 -6.00195 -12.501s-8 -5.5 -12 -5.5h-3c-7.33301 3.33301 -15.166 8.16602 -23.499 14.499s-16.5 13.333 -24.5 21l-23 23l-19 20.5c-17.333 -17.333 -36.666 -32.166 -57.999 -44.499s-44.333 -18.5 -69 -18.5
c-18 0 -34 3.33301 -48 10l-30.5 -48.5c-10.333 -17 -21.166 -32.833 -32.499 -47.5c-2 -3.33301 -5.33301 -5 -10 -5c-3.33301 0 -7.16602 1.5 -11.499 4.5s-6.5 6.16699 -6.5 9.5c0 1.33301 0.5 3.83301 1.5 7.5s1.5 6.16699 1.5 7.5
c5.33301 19.333 12.166 38.333 20.499 57s17.5 36.667 27.5 54c-14.667 24 -22 49.333 -22 76c0 14 2.33301 28.167 7 42.5s11 28.333 19 42s16.833 26.667 26.5 39s19.5 23.166 29.5 32.499l-37.5 55.5l-37.5 54.5c-5.33301 8 -12 17 -20 27s-14 18.667 -18 26l-1 3
c0 4 1.83301 8 5.5 12s7.5 6 11.5 6s12.333 -7.16699 25 -21.5l41.5 -48.5c15 -18 28.833 -35.333 41.5 -52l25 -33l15.5 9.5c7 4.33301 14.5 8.66602 22.5 12.999s15.667 8 23 11s12.666 4.5 15.999 4.5c4 0 7.5 -2 10.5 -6s4.5 -7.66699 4.5 -11
c0 -4.66699 -2.66699 -8.66699 -8 -12c-6 -3.33301 -12.333 -6.5 -19 -9.5s-13.334 -6.5 -20.001 -10.5c-25.333 -16.667 -48 -37.167 -68 -61.5s-34.667 -50.833 -44 -79.5c-3.33301 -10 -5 -20 -5 -30c0 -9.33301 1.5 -18.666 4.5 -27.999s7.33301 -17.833 13 -25.5
s12.667 -14 21 -19s17.833 -7.5 28.5 -7.5c7.33301 0 13.833 1.33301 19.5 4l18.5 9c28 16 50.167 36.5 66.5 61.5s29.166 52.5 38.499 82.5c4 12.667 7.5 25.834 10.5 39.501s4.5 27.167 4.5 40.5s-3.33301 23.333 -10 30s-14.167 12 -22.5 16l-22.5 10.5
c-6.66699 3 -10 7.5 -10 13.5c0 3.33301 1.33301 7 4 11s5.66699 6 9 6c4.66699 0 9.33398 -0.333008 14.001 -1s9.33398 -1.66699 14.001 -3l24.5 34.5l24.5 35.5l10 16c3.33301 5.33301 7 10.333 11 15c2 3.33301 5 5 9 5s8 -1.66699 12 -5s6 -7 6 -11
c0 -2 -2.66699 -8 -8 -18s-11.5 -21 -18.5 -33l-20 -34.5c-6.33301 -11 -10.5 -17.833 -12.5 -20.5c15.333 -10 25.5 -22.167 30.5 -36.5s7.5 -30.166 7.5 -47.499c0 -13.333 -1.33301 -27 -4 -41s-6.5 -28 -11.5 -42s-10.667 -27.667 -17 -41s-12.833 -25.333 -19.5 -36
l16.5 -21l26 -34l24 -33c7 -10 10.5 -16 10.5 -18z" />
    <glyph glyph-name="yen" unicode="&#xa5;" horiz-adv-x="474" 
d="M556 615c0 -2.66699 -1.00098 -5.00293 -3.00098 -7.00293c-20 -30 -37.5 -59.5 -52.5 -88.5s-28.5 -58.167 -40.5 -87.5s-23 -59.5 -33 -90.5s-19.667 -63.5 -29 -97.5c24 0 48.667 -1 74 -3c2 -2 4.16699 -4.66699 6.5 -8s3.5 -6.33301 3.5 -9
c0 -6 -2.66699 -10.333 -8 -13c-5.33301 -2 -11.833 -3.83301 -19.5 -5.5s-15.5 -3.16699 -23.5 -4.5s-15.833 -2.5 -23.5 -3.5s-14.5 -1.83301 -20.5 -2.5h11c24 0 48.667 -1 74 -3c2 -2 4.16699 -4.5 6.5 -7.5s3.5 -6.16699 3.5 -9.5c0 -6 -2.66699 -10.333 -8 -13
c-6 -2 -13.667 -4 -23 -6s-19 -3.83301 -29 -5.5s-19.667 -3 -29 -4l-24 -2.5c-7.33301 -20 -16 -38.667 -26 -56s-21.833 -32.166 -35.5 -44.499s-29.5 -22.166 -47.5 -29.499s-38.333 -11 -61 -11c-18 0 -35.333 2.5 -52 7.5s-31.334 12.5 -44.001 22.5
s-22.834 22.333 -30.501 37s-11.5 31.667 -11.5 51c0 20 3.66699 39.833 11 59.5s17 38.167 29 55.5s26 33.166 42 47.499s32.667 25.5 50 33.5c1.33301 0.666992 3 1 5 1c2.66699 0 4.66699 -0.333008 6 -1v3c0 18 2.33301 39.333 7 64s10.834 49.667 18.501 75
s16.167 49.833 25.5 73.5s18 43.5 26 59.5c-5.33301 -2 -10.166 -4.16699 -14.499 -6.5l-13.5 -7.5c-13.333 -8 -26.666 -17.167 -39.999 -27.5s-23.333 -22.833 -30 -37.5c-1.33301 -3.33301 -2.16602 -6.16602 -2.49902 -8.49902s-1.16602 -4.83301 -2.49902 -7.5
c-2 -5.33301 -6 -8 -12 -8c-5.33301 0 -9.66602 1.66699 -12.999 5s-5 7.66602 -5 12.999c0 24.667 8.16699 46.667 24.5 66s34.166 35.333 53.499 48c16 10.667 32.167 20.334 48.5 29.001s34.166 14.334 53.499 17.001c2 2 4.66699 3 8 3c4 0 8 -1.5 12 -4.5
s6 -6.83301 6 -11.5c0 -2.66699 -2.83301 -12.5 -8.5 -29.5l-19.5 -56l-21 -58.5c-6.66699 -18.667 -11 -31 -13 -37c-12 -31.333 -22 -64 -30 -98c-2 -10 -3.83301 -20.167 -5.5 -30.5s-2.5 -20.5 -2.5 -30.5c0 -5.33301 0.5 -12.166 1.5 -20.499s5.16699 -12.5 12.5 -12.5
c3.33301 0 6.5 0.666992 9.5 2s6.16699 2.66602 9.5 3.99902c16 8 31 19.167 45 33.5s26.667 28.5 38 42.5c1.33301 2 3.16602 4.5 5.49902 7.5s4.16602 5.5 5.49902 7.5c4.66699 10 8.66699 20.333 12 31s7 21 11 31c14.667 34.667 32.334 68.667 53.001 102s45 62 73 86
c4 2.66699 7 4 9 4c4 0 7.83301 -1.66699 11.5 -5s5.5 -7.33301 5.5 -12zM353.999 283.997c-8 -8 -17.667 -16.333 -29 -25s-23 -15 -35 -19c10 2 20.167 3 30.5 3h22.5zM311.999 138.997c-4.66699 0 -10.166 0.501953 -16.499 1.50195s-12.166 2.5 -17.499 4.5s-10 5 -14 9
s-6 9 -6 15c0 7.33301 3.83301 12.5 11.5 15.5s14.167 5.16699 19.5 6.5c-7.33301 2 -14.333 4.66699 -21 8s-10 9.66602 -10 18.999c0 4.66699 1.66699 8.5 5 11.5s7.66602 5.16699 12.999 6.5h-10c-19.333 0 -33.333 5.16699 -42 15.5s-14.334 23.166 -17.001 38.499
l-15.5 -10c-5 -3.33301 -10.167 -7 -15.5 -11c-9.33301 -8 -18.5 -17.5 -27.5 -28.5s-16.833 -22.5 -23.5 -34.5s-12 -24.5 -16 -37.5s-6 -25.833 -6 -38.5c0 -28.667 8.83301 -49 26.5 -61s39.5 -18 65.5 -18c31.333 0 55.833 8.16699 73.5 24.5s32.167 37.5 43.5 63.5z
" />
    <glyph glyph-name="brokenbar" unicode="&#xa6;" horiz-adv-x="257" 
d="M329 714c0 -14.667 -2.83496 -35.1641 -8.50195 -61.4971s-12.334 -53.5 -20.001 -81.5s-15.834 -54.833 -24.501 -80.5s-16 -44.834 -22 -57.501c-2.66699 -4.66699 -6 -7 -10 -7c-2 0 -5.66699 2 -11 6s-8 6.66699 -8 8c0 7.33301 1 15.5 3 24.5s3.66699 17.167 5 24.5
c3.33301 19.333 7 38.833 11 58.5l12 58.5c2.66699 11.333 4.83398 22.666 6.50098 33.999s3.83398 22.666 6.50098 33.999c0.666992 4 2.33398 10 5.00098 18s5.66699 16.167 9 24.5s7.16602 15.666 11.499 21.999s8.83301 9.5 13.5 9.5
c2.66699 0 6.33398 -1.33301 11.001 -4s7.33398 -5 8.00098 -7c1.33301 -3.33301 2 -7.16602 2 -11.499v-11.5zM201.998 287.003c0 -11.333 -2.16797 -23.832 -6.50098 -37.499s-8.5 -25.834 -12.5 -36.501l-16 -33l-16 -33l-38.5 -78.5
c-13.667 -27 -28.5 -52.167 -44.5 -75.5c-2 -3.33301 -5 -5 -9 -5c-1.33301 0 -4.66602 2.16699 -9.99902 6.5s-8 7.5 -8 9.5c0 1.33301 2 7.5 6 18.5l15 40l20 50.5l21 52l18 44l11 26c1.33301 3.33301 4 8.66602 8 15.999s8.5 14.833 13.5 22.5s10.167 14.334 15.5 20.001
s10 8.5 14 8.5c2 0 5.66699 -2 11 -6s8 -7 8 -9z" />
    <glyph glyph-name="section" unicode="&#xa7;" horiz-adv-x="415" 
d="M559 748c0 -4.66699 -2.33398 -8.33691 -7.00098 -11.0039c-6.66699 -4.66699 -14.834 -8.66699 -24.501 -12s-19.667 -6.16602 -30 -8.49902s-20.666 -4.33301 -30.999 -6s-19.5 -2.83398 -27.5 -3.50098c-17.333 -2 -34.666 -3.5 -51.999 -4.5
s-34.333 -4.16699 -51 -9.5c-11.333 -3.33301 -20.5 -8.66602 -27.5 -15.999s-10.5 -17.333 -10.5 -30c0 -11.333 4.16699 -22 12.5 -32s18.5 -20 30.5 -30s25.333 -20.333 40 -31s28 -22.167 40 -34.5s22.167 -25.666 30.5 -39.999s12.5 -30.166 12.5 -47.499
c0 -19.333 -4.66699 -37.833 -14 -55.5s-20.666 -33.167 -33.999 -46.5c-20.667 -21.333 -44.5 -37.333 -71.5 -48s-55.167 -15.334 -84.5 -14.001l31.5 -26c11 -9.33301 21 -19.333 30 -30s16.5 -22.167 22.5 -34.5s9 -25.833 9 -40.5
c0 -17.333 -4.5 -34.166 -13.5 -50.499s-19.167 -31.166 -30.5 -44.499c-19.333 -22 -42.166 -39.333 -68.499 -52s-54.166 -19 -83.499 -19c-20.667 0 -41 3.33301 -61 10s-37.833 16.334 -53.5 29.001s-28.334 28 -38.001 46s-14.5 38.333 -14.5 61c0 18 4 38 12 60
s18 40 30 54c3.33301 3.33301 6.66602 5 9.99902 5c4 0 7.66699 -1.66699 11 -5s5 -7 5 -11c0 -1.33301 -1.66699 -5 -5 -11s-7 -13.5 -11 -22.5s-7.66699 -19 -11 -30s-5 -22.167 -5 -33.5c0 -16.667 3.66699 -31.667 11 -45s16.833 -24.5 28.5 -33.5s25 -16 40 -21
s30.167 -7.5 45.5 -7.5c25.333 0 47.833 5 67.5 15s37.5 24.333 53.5 43c7.33301 9.33301 14.166 19 20.499 29s9.5 21.333 9.5 34c0 9.33301 -2 17.5 -6 24.5s-9.33301 13.833 -16 20.5c-15.333 15.333 -31.5 29.666 -48.5 42.999l-51.5 40
c-15.333 11.333 -27.333 25.166 -36 41.499s-13 34.166 -13 53.499c0 10 2 20.833 6 32.5s9.66699 21.167 17 28.5c3.33301 2.66699 6.5 5 9.5 7s6.16699 4 9.5 6c20 11.333 40.167 19 60.5 23s41.833 6 64.5 6h56c8 0 16 0.166992 24 0.5s16 1.16602 24 2.49902
c-11.333 14.667 -25.833 28.5 -43.5 41.5s-35 26.5 -52 40.5s-31.667 29 -44 45s-18.5 34.667 -18.5 56c0 10.667 2 21.334 6 32.001s9.5 20.334 16.5 29.001s15.167 16.167 24.5 22.5s19.333 10.833 30 13.5c19.333 4.66699 38.5 7.5 57.5 8.5s38.167 1.5 57.5 1.5
c18 0.666992 35.5 1.83398 52.5 3.50098s34.5 3.83398 52.5 6.50098h2c4.66699 0 8.5 -1.83301 11.5 -5.5s4.5 -7.83398 4.5 -12.501zM415.999 429.997l0.00488281 3.99902c-19.333 -7.33301 -39.166 -12.333 -59.499 -15s-40.5 -4.66699 -60.5 -6
c-8.66699 -1.33301 -19.334 -2.66602 -32.001 -3.99902s-24.834 -3.83301 -36.501 -7.5s-21.667 -9.16699 -30 -16.5s-12.5 -17 -12.5 -29c0 -8 2.16699 -15.5 6.5 -22.5s9.16602 -13.167 14.499 -18.5c16 -6.66699 34.333 -10 55 -10c23.333 0 45.666 4.83301 66.999 14.5
s39.666 23.167 54.999 40.5c8 9.33301 15.667 20 23 32s10.666 24.667 9.99902 38z" />
    <glyph glyph-name="dieresis" unicode="&#xa8;" 
d="M668 660c0 -2.66699 -0.666992 -4.99902 -2 -6.99902s-2.66602 -4.33301 -3.99902 -7l-1 -1c1.33301 -4 2 -6.66699 2 -8c-4.66699 -3.33301 -7.83398 -7 -9.50098 -11s-6.16699 -6 -13.5 -6c-6.66699 0 -13 2.66699 -19 8s-9 11.333 -9 18
c0 11.333 1.16699 20.666 3.5 27.999s10.5 11 24.5 11c6 0 12.167 -2.33301 18.5 -7s9.5 -10.667 9.5 -18zM580 660.001c0 -4 -1.66699 -8.66602 -5 -13.999h-1v-1c0.666992 -2 1 -4.66699 1 -8c-4 -3.33301 -7 -7 -9 -11s-6.66699 -6 -14 -6c-6 0 -12 2.66699 -18 8
s-9 11.333 -9 18c0 11.333 1 20.666 3 27.999s10 11 24 11c6.66699 0 13 -2.33301 19 -7s9 -10.667 9 -18z" />
    <glyph glyph-name="copyright" unicode="&#xa9;" horiz-adv-x="576" 
d="M617 412c0 -45.333 -6.83691 -89.333 -20.5039 -132s-33.667 -80.667 -60 -114s-58.666 -60.166 -96.999 -80.499s-82.166 -30.5 -131.499 -30.5c-38.667 0 -76 7 -112 21c-19.333 8 -36.666 18.667 -51.999 32s-28.333 28.666 -39 45.999s-18.834 36 -24.501 56
s-8.5 40.333 -8.5 61c0 40 6.5 78.5 19.5 115.5s31 71.167 54 102.5s50.167 59 81.5 83s65 43.667 101 59c1.33301 0.666992 3.33301 1 6 1c8 5.33301 19.167 8.83301 33.5 10.5s24.5 2.5 30.5 2.5c30 0 58.333 -6.66699 85 -20s49.834 -31 69.501 -53
s35.334 -47 47.001 -75s17.5 -56.333 17.5 -85zM561.996 410c0 24.667 -4.83301 48.833 -14.5 72.5s-22.834 44.667 -39.501 63s-36.167 33.166 -58.5 44.499s-46.166 17 -71.499 17c-6 0 -12 -0.666992 -18 -2s-12 -1.66602 -18 -0.999023h-1l-2 -1
c-11.333 -7.33301 -22.833 -13.833 -34.5 -19.5s-23.167 -12.834 -34.5 -21.501c-22 -16 -42.333 -34.333 -61 -55s-35 -43 -49 -67s-24.833 -49.333 -32.5 -76s-11.5 -54 -11.5 -82v-3c0.666992 -57.333 18.5 -100.666 53.5 -129.999s80.167 -44 135.5 -44
c42.667 0 80 8.66699 112 26s58.667 40.166 80 68.499s37.5 60.833 48.5 97.5s16.5 74.334 16.5 113.001zM457.996 531.999c0 -6 -2.66602 -10.002 -7.99902 -12.002c-8 -4 -16 -7.66699 -24 -11s-16 -7.33301 -24 -12c-32 -19.333 -60 -44.166 -84 -74.499
s-40.667 -63.833 -50 -100.5c-4.66699 -16.667 -7 -35.334 -7 -56.001c0 -5.33301 0.5 -12.5 1.5 -21.5s3 -17.667 6 -26s7 -15.5 12 -21.5s11.5 -9 19.5 -9c12.667 0 24.334 3.33301 35.001 10s20.5 15 29.5 25s17.333 20.5 25 31.5s15.167 20.5 22.5 28.5
c3.33301 3.33301 6.66602 5 9.99902 5s6.66602 -1.5 9.99902 -4.5s5 -6.16699 5 -9.5c0 -2 -0.666992 -4.33301 -2 -7l-26.5 -41c-9 -14 -19.167 -26.667 -30.5 -38s-24 -20.5 -38 -27.5s-30 -10.5 -48 -10.5h-5c-25.333 10.667 -43.166 26.334 -53.499 47.001
s-15.5 43.667 -15.5 69c0 21.333 2.66699 43.333 8 66c4.66699 22 12 43.5 22 64.5s22.167 40.5 36.5 58.5s30.5 34 48.5 48s38 25 60 33c7.33301 3.33301 15.666 6 24.999 8s18.333 3 27 3c3.33301 0 6.33301 -1.66699 9 -5s4 -6.66602 4 -9.99902z" />
    <glyph glyph-name="ordfeminine" unicode="&#xaa;" horiz-adv-x="227" 
d="M329 462c-3.33301 -8 -7.66895 -17.4951 -13.002 -28.4951s-11.5 -21.5 -18.5 -31.5s-14.833 -18.5 -23.5 -25.5s-18 -10.5 -28 -10.5c-6.66699 0 -14 2.5 -22 7.5s-12 11.167 -12 18.5c-20 -14 -43.667 -22.667 -71 -26c-11.333 4.66699 -20.666 11 -27.999 19
s-11 18.667 -11 32c0 20 5.16699 39.667 15.5 59s21.833 36.666 34.5 51.999c15.333 19.333 34.333 36.666 57 51.999s45.667 26.666 69 33.999l2 1c2.66699 0 5.83398 -2.33301 9.50098 -7s5.5 -8.33398 5.5 -11.001c0 -4.66699 -2 -8 -6 -10l-7 -4
c3.33301 -1.33301 6.5 -3.5 9.5 -6.5s4.5 -5.5 4.5 -7.5c0 -4 -0.666992 -9.5 -2 -16.5s-2.83301 -14.167 -4.5 -21.5s-3.5 -14.333 -5.5 -21l-5 -17c-1.33301 -3.33301 -2.66602 -7 -3.99902 -11l-4 -12c-1.33301 -6 -2.33301 -12.167 -3 -18.5s-1.66699 -12.833 -3 -19.5
v1c7.33301 7.33301 14.166 14.666 20.499 21.999l19.5 22c1.33301 1.33301 3 2 5 2c4 0 8.16699 -1.66699 12.5 -5s6.5 -7.33301 6.5 -12zM261.997 570.005c-14.667 -9.33301 -28 -19.1689 -40 -29.502s-23.667 -23.5 -35 -39.5
c-7.33301 -11.333 -14.833 -24.166 -22.5 -38.499s-11.5 -28.166 -11.5 -41.499c0 -2 -1.33301 -3.66699 -4 -5c14.667 4 27.667 12.5 39 25.5s21.5 27.5 30.5 43.5s17 31.833 24 47.5s13.5 28.167 19.5 37.5z" />
    <glyph glyph-name="guillemotleft" unicode="&#xab;" horiz-adv-x="309" 
d="M370 459c-8.66699 -13.333 -18.6689 -25.3359 -30.002 -36.0029l-34.5 -31c-11.667 -10 -22.834 -20.167 -33.501 -30.5s-19.667 -21.166 -27 -32.499c1.33301 -11.333 6.83301 -24.166 16.5 -38.499s20.834 -28.666 33.501 -42.999l38.5 -42l31.5 -33.5l1 -3
c0 -4.66699 -1.83301 -9 -5.5 -13s-7.5 -6 -11.5 -6c-2 0 -7.66699 3.5 -17 10.5s-19.333 15 -30 24l-30 26c-9.33301 8.33301 -15 13.833 -17 16.5c-6 6.66699 -12.167 13 -18.5 19s-12.166 12.667 -17.499 20c-7.33301 9.33301 -13.166 19 -17.499 29s-6.5 21 -6.5 33
c0 3.33301 0.166992 6.33301 0.5 9s0.833008 5.66699 1.5 9c17.333 30 39.333 57 66 81s56 42 88 54h2c5.33301 0 9.5 -2.5 12.5 -7.5s4.5 -9.83301 4.5 -14.5zM246.998 466.997c-9.33301 -13.333 -19.668 -25.5029 -31.001 -36.5029l-34 -31.5l-33 -30
c-10.667 -10 -19.667 -20.667 -27 -32c1.33301 -11.333 6.83301 -24.166 16.5 -38.499s20.834 -28.833 33.501 -43.5l38 -42l31 -33c1.33301 -1.33301 2 -2.66602 2 -3.99902c0 -4 -1.83301 -8.16699 -5.5 -12.5s-7.83398 -6.5 -12.501 -6.5c-2 0 -7.66699 3.5 -17 10.5
s-19.333 15 -30 24l-30 26c-9.33301 8.33301 -15 13.833 -17 16.5c-5.33301 7.33301 -11.333 14 -18 20s-12.667 12.667 -18 20c-15.333 18.667 -23 39 -23 61v9.5c0 3 0.333008 6.16699 1 9.5c17.333 30 39.333 56.833 66 80.5s56.334 41.834 89.001 54.501h2
c5.33301 0 9.5 -2.5 12.5 -7.5s4.5 -9.83301 4.5 -14.5z" />
    <glyph glyph-name="logicalnot" unicode="&#xac;" horiz-adv-x="603" 
d="M592 273c0 -8.66699 -0.329102 -18.3291 -0.996094 -28.9961s-1.5 -21.5 -2.5 -32.5s-2.33301 -21.667 -4 -32s-3.5 -19.5 -5.5 -27.5c-2 -6 -6 -9 -12 -9c-2 0 -5.33301 1.33301 -10 4s-7.33398 5 -8.00098 7s-1.33398 9.16699 -2.00098 21.5s-1.33398 26 -2.00098 41
l-2 43.5c-0.666992 14 -1.33398 23.333 -2.00098 28c-1.33301 14 -3 28 -5 42s-3.66699 28 -5 42c-36 -3.33301 -72 -5.83301 -108 -7.5s-72.333 -2.83398 -109 -3.50098c-15.333 0 -30.333 -0.333008 -45 -1s-29.334 -1 -44.001 -1
c-7.33301 0 -16.166 0.166992 -26.499 0.5s-21 1.16602 -32 2.49902s-21.5 3 -31.5 5s-18 4.66699 -24 8c-6 2.66699 -9 7.66699 -9 15c0 2.66699 0.833008 5.5 2.5 8.5s4.16699 5.16699 7.5 6.5c6 2 13.333 3.66699 22 5s17.667 2.16602 27 2.49902l27.5 1
c9 0.333008 16.833 0.5 23.5 0.5c17.333 0 34.333 -0.333008 51 -1s33.667 -1 51 -1c36.667 -0.666992 73.167 -1.5 109.5 -2.5s72.833 -2.5 109.5 -4.5c1.33301 2 3.33301 4 6 6s5.66699 3 9 3h1c0.666992 0 1 -0.166992 1 -0.5s0.333008 -0.5 1 -0.5
c12 -8.66699 20.833 -18.334 26.5 -29.001s9.5 -22.167 11.5 -34.5s3 -25 3 -38v-38.5z" />
    <glyph glyph-name="sfthyphen" unicode="&#xad;" horiz-adv-x="503" 
d="M564 392c0 -3.33301 -1.00098 -6.5 -3.00098 -9.5s-4.66699 -4.83301 -8 -5.5c-4 -1.33301 -9 -2.16602 -15 -2.49902s-12.333 -0.833008 -19 -1.5s-13.167 -1.16699 -19.5 -1.5s-11.5 -0.5 -15.5 -0.5c-28.667 -2 -57.167 -3.5 -85.5 -4.5s-56.5 -1.83301 -84.5 -2.5
c-15.333 0 -30.333 -0.333008 -45 -1s-29.667 -1 -45 -1c-7.33301 0 -16.166 0.166992 -26.499 0.5s-21 1.16602 -32 2.49902s-21.333 3 -31 5s-17.834 4.66699 -24.501 8c-2.66699 1.33301 -4.66699 3.5 -6 6.5s-2 5.83301 -2 8.5s0.833008 5.5 2.5 8.5
s3.83398 5.16699 6.50098 6.5c5.33301 2 12.5 3.66699 21.5 5s18.333 2.16602 28 2.49902l28.5 1c9.33301 0.333008 17 0.5 23 0.5c17.333 0 34.333 -0.333008 51 -1s33.667 -1 51 -1c28 0 56.167 -0.5 84.5 -1.5s56.5 -2.16699 84.5 -3.5
c9.33301 0 21.333 -0.166992 36 -0.5s26 -1.16602 34 -2.49902c7.33301 -2.66699 11 -7.66699 11 -15z" />
    <glyph glyph-name="registered" unicode="&#xae;" horiz-adv-x="597" 
d="M627 424c0 -45.333 -6.83496 -89.332 -20.502 -131.999s-33.667 -80.667 -60 -114s-58.666 -60.166 -96.999 -80.499s-81.833 -30.5 -130.5 -30.5c-19.333 0 -38.5 1.66699 -57.5 5s-37.167 8.66602 -54.5 15.999c-20 8 -37.667 18.667 -53 32s-28.333 28.666 -39 45.999
s-18.834 36 -24.501 56s-8.5 40.333 -8.5 61c0 40 6.5 78.5 19.5 115.5s31 71.167 54 102.5s50.167 59 81.5 83s65.333 43.667 102 59c0.666992 0.666992 2.33398 1 5.00098 1c4 2.66699 9 5 15 7s12.167 3.5 18.5 4.5s12.333 1.66699 18 2s10.167 0.5 13.5 0.5
c30 0 58.167 -6.83301 84.5 -20.5s49.333 -31.5 69 -53.5s35.334 -47 47.001 -75s17.5 -56.333 17.5 -85zM473.998 499.001c0 6 -2.5 9.99902 -7.5 11.999s-9.83301 3 -14.5 3c-14 0 -29.167 -4.5 -45.5 -13.5s-29.833 -17.5 -40.5 -25.5l-11.5 -31.5l-11.5 -32.5
c22.667 6 45.5 14.5 68.5 25.5s41.5 26.167 55.5 45.5c1.33301 2.66699 2.83301 5.33398 4.5 8.00098s2.5 5.66699 2.5 9zM571.998 423c0 24.667 -4.83496 48.834 -14.502 72.501s-22.834 44.667 -39.501 63s-36.167 33.166 -58.5 44.499s-46.166 17 -71.499 17
c-6 0 -12 -0.666992 -18 -2s-11.667 -2 -17 -2h-2h-2c-11.333 -7.33301 -22.833 -14 -34.5 -20s-23.167 -13 -34.5 -21c-22 -16 -42.333 -34.5 -61 -55.5s-35 -43.5 -49 -67.5s-24.833 -49.167 -32.5 -75.5s-11.5 -53.5 -11.5 -81.5v-3
c0.666992 -15.333 2.33398 -29.833 5.00098 -43.5s6.66699 -26.167 12 -37.5c2 4.66699 5 7.33398 9 8.00098c5.33301 1.33301 10.666 2.5 15.999 3.5s10.666 2.83301 15.999 5.5c13.333 6.66699 25 15.5 35 26.5s18.833 23.167 26.5 36.5s14.5 27 20.5 41
s11.333 27.667 16 41c7.33301 19.333 13.833 38.833 19.5 58.5s12.834 38.834 21.501 57.501c-8.66699 -3.33301 -16.334 -7.33301 -23.001 -12c-11.333 -7.33301 -22.833 -15.333 -34.5 -24s-20.5 -19.667 -26.5 -33
c-1.33301 -3.33301 -2.16602 -6.16602 -2.49902 -8.49902s-1.16602 -5.16602 -2.49902 -8.49902c-2.66699 -4.66699 -6.66699 -7 -12 -7c-2.66699 0 -5.66699 1.33301 -9 4s-5.33301 5.33398 -6 8.00098v-2v5c-0.666992 11.333 1 22 5 32s9.33301 19.333 16 28
s14.334 16.667 23.001 24s17.334 13.666 26.001 18.999l20.5 12.5c8.33301 5 16.833 9.66699 25.5 14s17.334 8.16602 26.001 11.499s16 5 22 5c4 0 8 -1.83301 12 -5.5s6 -7.16699 6 -10.5c0 -0.666992 -0.666992 -2.5 -2 -5.5s-2 -5.16699 -2 -6.5
c10 6.66699 21.167 12.5 33.5 17.5s24.833 7.5 37.5 7.5c15.333 0 29.166 -4.66699 41.499 -14s18.5 -22.333 18.5 -39c0 -15.333 -4.5 -30 -13.5 -44s-20.167 -26.5 -33.5 -37.5s-27.833 -20.167 -43.5 -27.5s-30.167 -12.333 -43.5 -15
c9.33301 -11.333 16.666 -24.333 21.999 -39c2 -6 4.33301 -15 7 -27s5.66699 -24.333 9 -37s7 -24 11 -34s8.66699 -16 14 -18c2 -0.666992 5 -1 9 -1c6 0 12.333 1.16699 19 3.5s13 4.66602 19 6.99902s11.333 4.66602 16 6.99902s7.66699 3.5 9 3.5c3.33301 0 6 -1 8 -3
c15.333 26.667 27 55.667 35 87s12 63.666 12 96.999zM494.996 197l-1.99707 -1c-6.66699 -3.33301 -13.667 -6.16602 -21 -8.49902s-15 -3.5 -23 -3.5c-20.667 0 -35.834 7.5 -45.501 22.5s-17.667 32.833 -24 53.5l-19.5 62c-6.66699 20.667 -17.334 37 -32.001 49
c-7.33301 -19.333 -16 -39.5 -26 -60.5s-21.833 -40.333 -35.5 -58s-29.834 -32.334 -48.501 -44.001s-40 -17.5 -64 -17.5c16 -24.667 37.833 -43.167 65.5 -55.5s59.5 -18.5 95.5 -18.5c38.667 0 73 7.16699 103 21.5s55.667 33.833 77 58.5z" />
    <glyph glyph-name="macron" unicode="&#xaf;" 
d="M708 679c0 -2 -0.666992 -4.33301 -2 -7s-3.33301 -4.33398 -6 -5.00098c-17.333 -5.33301 -35.5 -9.5 -54.5 -12.5s-37.833 -5.16699 -56.5 -6.5c-8 -0.666992 -16 -1.5 -24 -2.5s-16.333 -1.5 -25 -1.5c-4.66699 0 -10.167 0.333008 -16.5 1s-12.333 2.16699 -18 4.5
s-10.5 5.5 -14.5 9.5s-6 9 -6 15c0 6.66699 4 11.834 12 15.501s17.167 6.16699 27.5 7.5s20.5 2 30.5 2h22h43c26 0 52 -1 78 -3c2.66699 -2 5 -4.5 7 -7.5s3 -6.16699 3 -9.5z" />
    <glyph glyph-name="degree" unicode="&#xb0;" horiz-adv-x="187" 
d="M299 551c0 -21.333 -4.50098 -40.668 -13.501 -58.001s-23.167 -30.666 -42.5 -39.999c-11.333 -6 -22.666 -9 -33.999 -9c-9.33301 0 -18.5 1.5 -27.5 4.5s-17.167 7.5 -24.5 13.5s-13.166 13 -17.499 21s-6.5 17 -6.5 27v6c0.666992 19.333 6 36.5 16 51.5
s23.333 27.167 40 36.5c1.33301 0.666992 4.16602 2 8.49902 4s7.5 3.33301 9.5 4c3.33301 2.66699 7.5 4.5 12.5 5.5s9.16699 1.5 12.5 1.5c18 0 33.667 -7 47 -21s20 -29.667 20 -47zM243.999 544.998c0 11.333 -2.5 19.5 -7.5 24.5s-12.167 9.16699 -21.5 12.5
c-10 -7.33301 -18.667 -15.833 -26 -25.5s-11 -21.167 -11 -34.5c0 -18 8.66699 -27 26 -27c13.333 0 23.333 5.33301 30 16s10 22 10 34z" />
    <glyph glyph-name="plusminus" unicode="&#xb1;" horiz-adv-x="533" 
d="M564 392c0 -3.33301 -0.833984 -6.49902 -2.50098 -9.49902s-4.16699 -4.83301 -7.5 -5.5c-7.33301 -2 -16.833 -3.16699 -28.5 -3.5s-21.167 -0.833008 -28.5 -1.5l-69 -4c-22.667 -1.33301 -45.667 -2.33301 -69 -3c0 -14 0.333008 -28 1 -42s1 -28 1 -42
c0 -7.33301 -0.166992 -16.166 -0.5 -26.499s-1.16602 -20.833 -2.49902 -31.5s-3 -21 -5 -31s-4.66699 -18.333 -8 -25c-1.33301 -2.66699 -3.5 -4.66699 -6.5 -6s-5.83301 -2 -8.5 -2s-5.5 0.666992 -8.5 2s-5.16699 3.66602 -6.5 6.99902
c-2 5.33301 -3.66699 12.5 -5 21.5s-2.33301 18.333 -3 28s-1.16699 19 -1.5 28s-0.5 16.5 -0.5 22.5c0 16 0.333008 32 1 48l2 48c-14 -0.666992 -28 -1.16699 -42 -1.5s-27.667 -0.5 -41 -0.5c-7.33301 0 -16.333 0.166992 -27 0.5s-21.334 1.16602 -32.001 2.49902
s-21 3 -31 5s-18 4.66699 -24 8c-6 2.66699 -9 7.66699 -9 15c0 2.66699 0.833008 5.5 2.5 8.5s4.16699 5.16699 7.5 6.5c4.66699 2 11.5 3.66699 20.5 5s18.333 2.16602 28 2.49902l28.5 1c9.33301 0.333008 17 0.5 23 0.5c16 0 32 -0.166992 48 -0.5s32 -0.833008 48 -1.5
l2 69c0.666992 22.667 1.66699 45.667 3 69c0.666992 7.33301 1 17 1 29s0.666992 21.333 2 28c1.33301 3.33301 3.33301 5.83301 6 7.5s5.66699 2.5 9 2.5s6.33301 -0.833008 9 -2.5s4.66699 -4.16699 6 -7.5c2 -7.33301 3.16699 -16.666 3.5 -27.999s0.833008 -21 1.5 -29
c1.33301 -23.333 2.5 -46.333 3.5 -69s2.16699 -45.667 3.5 -69l69.5 -2c23 -0.666992 46.167 -1.66699 69.5 -3c7.33301 -0.666992 16.833 -1 28.5 -1s20.834 -0.666992 27.501 -2c3.33301 -1.33301 6 -3.33301 8 -6s3 -5.66699 3 -9zM513.999 65.001
c0 -3.33301 -0.831055 -6.49707 -2.49805 -9.49707s-4.16699 -4.83301 -7.5 -5.5c-8 -2 -19.333 -3.33301 -34 -4s-26.667 -1.33398 -36 -2.00098c-28 -2 -56.167 -3.5 -84.5 -4.5s-56.833 -1.83301 -85.5 -2.5c-15.333 0 -30.333 -0.333008 -45 -1s-29.334 -1 -44.001 -1
c-7.33301 0 -16.166 0.166992 -26.499 0.5s-21 1.16602 -32 2.49902s-21.333 3 -31 5s-17.834 4.66699 -24.501 8c-2.66699 1.33301 -4.83398 3.5 -6.50098 6.5s-2.5 5.83301 -2.5 8.5s0.833008 5.5 2.5 8.5s4.16699 5.16699 7.5 6.5c5.33301 2 12.333 3.66699 21 5
s17.834 2.16602 27.501 2.49902l28.5 1c9.33301 0.333008 17 0.5 23 0.5c17.333 0 34.333 -0.333008 51 -1s33.667 -1 51 -1c28.667 0 57 -0.5 85 -1.5s56.333 -2.16699 85 -3.5h16.5c6.33301 0 12.666 -0.166992 18.999 -0.5l18.5 -1c6 -0.333008 11 -0.833008 15 -1.5
c7.33301 -2.66699 11 -7.66699 11 -15z" />
    <glyph glyph-name="twosuperior" unicode="&#xb2;" horiz-adv-x="355" 
d="M437 470c0 -2.66699 -0.338867 -4.66406 -1.00586 -5.99707c-7.33301 -14.667 -19.166 -25.834 -35.499 -33.501s-32.5 -11.5 -48.5 -11.5c-12.667 0 -25.834 2 -39.501 6s-26.667 8.5 -39 13.5l-33.5 14c-10 4.33301 -17.667 6.5 -23 6.5
c-7.33301 0 -13.833 -2.33301 -19.5 -7s-11.167 -9.66699 -16.5 -15h-10l-3 -3l-35 29l7 8v-4l5 6h-4c11.333 11.333 22.333 23 33 35l33 36c13.333 14 27.5 27.167 42.5 39.5l45.5 37.5c6 4.66699 13.167 11 21.5 19s16.333 16.5 24 25.5s14.167 18.167 19.5 27.5
s8 18 8 26c0 8.66699 -3.66699 14.334 -11 17.001s-14.666 4 -21.999 4c-12.667 0 -25.5 -2.66699 -38.5 -8s-23.833 -12.666 -32.5 -21.999c-2 -2.66699 -3.66699 -5.33398 -5 -8.00098l-4 -8c-4 -4 -7.66699 -6 -11 -6c-2.66699 0 -6.16699 1.66699 -10.5 5
s-6.5 6.66602 -6.5 9.99902c0 2.66699 0.333008 4.33398 1 5.00098c7.33301 15.333 17.833 28.666 31.5 39.999s28.5 19.666 44.5 24.999c4 1.33301 8 2.33301 12 3s8 1.66699 12 3c3.33301 0.666992 6.5 1.33398 9.5 2.00098s6.16699 1 9.5 1c8.66699 0 17 -2 25 -6
s15 -9.33301 21 -16s10.667 -14.334 14 -23.001s5 -17.334 5 -26.001c0 -6.66699 -0.666992 -12.167 -2 -16.5s-3.66602 -9.16602 -6.99902 -14.499c-12 -22 -24.167 -40.167 -36.5 -54.5s-25.166 -27.333 -38.499 -39l-41 -35c-14 -11.667 -28.333 -25.834 -43 -42.501
c9.33301 -3.33301 19.333 -7.33301 30 -12l32 -14c10.667 -4.66699 21.334 -8.66699 32.001 -12s20.667 -5 30 -5c14.667 0 25.834 3.33301 33.501 10s13.834 10 18.501 10c4 0 7.83301 -1.66699 11.5 -5s5.5 -7 5.5 -11z" />
    <glyph glyph-name="threesuperior" unicode="&#xb3;" horiz-adv-x="314" 
d="M416 571c0 -20 -4 -39.665 -12 -58.998s-19 -36.833 -33 -52.5s-30.167 -28.334 -48.5 -38.001s-37.833 -14.5 -58.5 -14.5c-16 0 -30.833 3.16699 -44.5 9.5s-26 14.666 -37 24.999s-20.667 22.166 -29 35.499s-14.833 27 -19.5 41l-1 2
c0 3.33301 2.33301 6.83301 7 10.5s8.33398 5.5 11.001 5.5c3.33301 0 6.66602 -2 9.99902 -6c6 -8 12.167 -16.667 18.5 -26s13.333 -17.666 21 -24.999s16.167 -13.5 25.5 -18.5s19.666 -7.5 30.999 -7.5c14 0 27.333 3.33301 40 10s23.834 15.5 33.501 26.5
s17.334 23.333 23.001 37s8.5 27.167 8.5 40.5c0 11.333 -3.16699 22 -9.5 32s-16.166 15 -29.499 15c-2.66699 0 -5.16699 -0.166992 -7.5 -0.5s-4.83301 -0.5 -7.5 -0.5h-10c-2 0.666992 -4.5 3.66699 -7.5 9s-4.5 9 -4.5 11c0 4 1.33301 7 4 9l19 13
c8 5.33301 16 11.166 24 17.499s14.833 13 20.5 20s8.5 13.5 8.5 19.5v6.5c0 1.66699 -1.66699 2.5 -5 2.5c-20 0 -37.667 -2.83301 -53 -8.5s-30 -15.5 -44 -29.5c-0.666992 -0.666992 -1.33398 -1 -2.00098 -1s-1.33398 -0.333008 -2.00098 -1
c-4 0 -8.16699 1.83301 -12.5 5.5s-6.5 7.83398 -6.5 12.501v3c6 12.667 16.667 24.5 32 35.5s29.666 18.833 42.999 23.5c14 5.33301 27.667 8 41 8c16.667 0 30.834 -5 42.501 -15s17.5 -23.667 17.5 -41c0 -27.333 -10 -51 -30 -71c12 -8 20.5 -18.5 25.5 -31.5
s7.5 -26.167 7.5 -39.5z" />
    <glyph glyph-name="acute" unicode="&#xb4;" 
d="M670 690c-6 -14.667 -15 -26.0049 -27 -34.0049c-4.66699 -3.33301 -9.33398 -6.16602 -14.001 -8.49902s-9.66699 -5.16602 -15 -8.49902c-22 -14.667 -46.333 -28 -73 -40c-4 0 -8 2.16699 -12 6.5s-6 8.5 -6 12.5c0 0.666992 0.166992 1.33398 0.5 2.00098
s0.5 1.33398 0.5 2.00098c12 14.667 25.333 28.5 40 41.5s29.667 25.167 45 36.5c10.667 7.33301 22.334 11 35.001 11c6.66699 0 12.5 -1.66699 17.5 -5s7.83301 -8.66602 8.5 -15.999z" />
    <glyph glyph-name="mu" unicode="&#xb5;" horiz-adv-x="364" 
d="M425 506c0 -5.33301 -0.666016 -11.335 -1.99902 -18.002s-2.66602 -12.667 -3.99902 -18c-6 -34 -13.667 -67.333 -23 -100s-22.666 -64 -39.999 -94c-6.66699 -11.333 -14.334 -23.666 -23.001 -36.999s-18.334 -25.5 -29.001 -36.5s-22.334 -20.167 -35.001 -27.5
s-26.334 -11 -41.001 -11c-20 0 -36.667 6.16699 -50 18.5s-24 26.833 -32 43.5c-5.33301 -19.333 -10.166 -38.833 -14.499 -58.5s-8.16602 -39.5 -11.499 -59.5c0 -3.33301 -0.333008 -7.83301 -1 -13.5s-1.33398 -11.667 -2.00098 -18s-1.33398 -12.166 -2.00098 -17.499
s-1 -8.66602 -1 -9.99902c-1.33301 -3.33301 -3.66602 -6 -6.99902 -8s-6.66602 -3 -9.99902 -3c-4.66699 0 -8.16699 2 -10.5 6s-3.83301 8.5 -4.5 13.5s-0.833984 10.167 -0.500977 15.5s0.5 9.66602 0.5 12.999c0 39.333 3.33301 78.166 10 116.499s14.667 76.5 24 114.5
l12 55.5c4 18.333 8.66699 36.5 14 54.5c2 8 4.83301 16.833 8.5 26.5s7.83398 19.334 12.501 29.001s9.66699 19 15 28s10.666 16.5 15.999 22.5c2.66699 2.66699 5.66699 4 9 4c2 0 5.66699 -2 11 -6s8 -7 8 -9c0 -3.33301 -0.5 -6.83301 -1.5 -10.5
s-1.83301 -7.16699 -2.5 -10.5c-7.33301 -34 -15.833 -67 -25.5 -99s-18.834 -64.333 -27.501 -97c-1.33301 -4.66699 -2.5 -9.16699 -3.5 -13.5l-3.5 -14.5c2.66699 -5.33301 6.33398 -12 11.001 -20s9.83398 -15.667 15.501 -23s11.667 -13.666 18 -18.999
s13.166 -8 20.499 -8c5.33301 0 9 0.666992 11 2c8.66699 3.33301 16.834 8.5 24.501 15.5s14.667 14.833 21 23.5s12.333 17.5 18 26.5s10.5 17.5 14.5 25.5c9.33301 16.667 16.666 34.5 21.999 53.5l16 57c5.33301 19 11.5 37.5 18.5 55.5s16.5 34.667 28.5 50
c2 3.33301 5 5 9 5c2.66699 0 6.5 -1.83301 11.5 -5.5s7.5 -6.83398 7.5 -9.50098z" />
    <glyph glyph-name="paragraph" unicode="&#xb6;" horiz-adv-x="491" 
d="M583 560c0 -4.66699 -6.33594 -11.6719 -19.0029 -21.0049s-27 -18.666 -43 -27.999l-46.5 -26l-30.5 -16c-16 -54.667 -30.833 -111.834 -44.5 -171.501s-20.5 -118.167 -20.5 -175.5c0 -9.33301 0.333008 -20.166 1 -32.499s2.66699 -24.166 6 -35.499
s8.5 -21 15.5 -29s17.167 -12 30.5 -12c11.333 0 24.333 3.16699 39 9.5s28.834 13.5 42.501 21.5l35.5 21.5c10 6.33301 16 9.5 18 9.5c4.66699 0 8.5 -1.83301 11.5 -5.5s4.5 -7.16699 4.5 -10.5c0 -2.66699 -1.33301 -6 -4 -10c-8 -7.33301 -18.333 -15.333 -31 -24
s-26.167 -16.834 -40.5 -24.501s-28.5 -14.167 -42.5 -19.5s-26.333 -8 -37 -8c-12.667 0 -24.334 2.66699 -35.001 8s-20 12.5 -28 21.5s-14.333 19.167 -19 30.5s-7.66699 23 -9 35l-4 37c-1.33301 12 -2 24.333 -2 37c0 50.667 5.33301 101.5 16 152.5
s22.334 101.167 35.001 150.5c-8 -3.33301 -16 -6.16602 -24 -8.49902s-16 -4.16602 -24 -5.49902c-13.333 -48.667 -26 -98 -38 -148s-18 -100.333 -18 -151c0 -18.667 1.5 -36.5 4.5 -53.5s7.16699 -34.167 12.5 -51.5v-2c0 -4.66699 -1.83301 -8.66699 -5.5 -12
s-7.5 -5 -11.5 -5s-7.66699 2.33301 -11 7c-5.33301 8.66699 -9.66602 19.334 -12.999 32.001s-6.33301 25.834 -9 39.501s-4.5 27.167 -5.5 40.5s-1.5 25.333 -1.5 36c0 44 4.83301 87.5 14.5 130.5l28.5 128.5c-4 -0.666992 -7.83301 -1 -11.5 -1h-10.5
c-7.33301 0 -14.5 0.333008 -21.5 1s-14.167 1.66699 -21.5 3c-24.667 4.66699 -44.667 16.5 -60 35.5s-23 40.833 -23 65.5c0 6.66699 1 13.667 3 21c7.33301 42 23.5 77.5 48.5 106.5s56.5 51.833 94.5 68.5c17.333 8 35.333 14.333 54 19s37.334 7.33398 56.001 8.00098
c1.33301 2.66699 3.5 6.66699 6.5 12l9.5 16.5c3.33301 5.66699 6.66602 10.5 9.99902 14.5s6.66602 6 9.99902 6s7.16602 -1.66699 11.499 -5s6.5 -6.66602 6.5 -9.99902c0 -0.666992 -0.5 -2.83398 -1.5 -6.50098s-2 -7.66699 -3 -12s-2.16699 -8.5 -3.5 -12.5
s-2 -6.33301 -2 -7c16 -4 30.667 -10.667 44 -20l16 34c6 12.667 12.333 23.667 19 33c2.66699 4 6.33398 6 11.001 6s8.83398 -1.33301 12.501 -4s5.5 -6.66699 5.5 -12c0 -2 -1.83301 -9 -5.5 -21l-14 -45l-18.5 -58l-19 -59.5l-16 -50.5
c-4.66699 -14.667 -7.66699 -24.334 -9 -29.001c18 8 35.333 16.667 52 26s33.334 19.333 50.001 30c2.66699 1.33301 5 2 7 2c4 0 7.5 -1.83301 10.5 -5.5s4.5 -7.5 4.5 -11.5zM461.997 691.995c-14 5.33301 -28.001 7.99902 -42.001 7.99902l-35.5 -109.5
c-12.333 -36.333 -24.166 -73.166 -35.499 -110.499l23 6.5c8 2.33301 15.667 4.83301 23 7.5c9.33301 34 19.333 67.5 30 100.5s23 65.5 37 97.5zM362.996 693.994c-20 -5.33301 -40.501 -12.834 -61.501 -22.501s-40.333 -21.667 -58 -36s-32 -31 -43 -50
s-16.5 -40.167 -16.5 -63.5c0 -11.333 2.83301 -20.5 8.5 -27.5s12.834 -12.5 21.501 -16.5s18 -6.66699 28 -8s19.333 -2 28 -2h11.5c3.66699 0 7.16699 0.333008 10.5 1c10 38 20.5 75.833 31.5 113.5s24.167 74.834 39.5 111.501z" />
    <glyph glyph-name="periodcentered" unicode="&#xb7;" horiz-adv-x="178" 
d="M178 329c0 -5.33301 -1.99902 -9.99902 -5.99902 -13.999v-1c0.666992 -2 1 -4.66699 1 -8c-4.66699 -3.33301 -7.83398 -7 -9.50098 -11s-6.16699 -6 -13.5 -6c-6 0 -12 2.66699 -18 8s-9 11.333 -9 18c0 11.333 1 20.666 3 27.999s10 11 24 11
c6.66699 0 13 -2.33301 19 -7s9 -10.667 9 -18z" />
    <glyph glyph-name="cedilla" unicode="&#xb8;" 
d="M462 -147c-3.33301 -12.667 -8.66797 -24 -16.001 -34s-16.166 -18.667 -26.499 -26s-21.333 -13.833 -33 -19.5s-23.167 -10.167 -34.5 -13.5c-0.666992 0 -2.66699 -0.5 -6 -1.5l-10 -3c-3.33301 -1 -6.33301 -1.83301 -9 -2.5l-5 -1
c-3.33301 0 -6.33301 2.16699 -9 6.5s-3.33398 8.16602 -2.00098 11.499c1.33301 4.66699 4 8 8 10c6.66699 2.66699 15 6.33398 25 11.001s19.833 9.83398 29.5 15.501s18.334 12.167 26.001 19.5s12.5 15 14.5 23c2 10 0 19.333 -6 28s-12.667 15.667 -20 21
c-9.33301 6.66699 -20 11 -32 13s-24.667 2.33301 -38 1c-3.33301 1.33301 -7.83301 4.66602 -13.5 9.99902l-12.5 12l1 6c3.33301 12.667 8.16602 28.334 14.499 47.001s13.833 34 22.5 46c1.33301 2 3.83301 3.83301 7.5 5.5s6.83398 2.5 9.50098 2.5
c2 0 4.5 -0.833008 7.5 -2.5s4.83301 -3.83398 5.5 -6.50098c0.666992 -10 0.166992 -20.667 -1.5 -32s-3.16699 -22 -4.5 -32c14 -1.33301 28.167 -5 42.5 -11s27 -14 38 -24s19.333 -21.833 25 -35.5s6.5 -28.5 2.5 -44.5z" />
    <glyph glyph-name="onesuperior" unicode="&#xb9;" horiz-adv-x="150" 
d="M284 753c0 -5.33301 -1.66797 -10.666 -5.00098 -15.999c-1.33301 -21.333 -5.33301 -41.666 -12 -60.999s-13 -39 -19 -59l-42 -126c3.33301 -2.66699 6.5 -6 9.5 -10s4.5 -8 4.5 -12c0 -5.33301 -2.5 -10.5 -7.5 -15.5s-9.83301 -8.16699 -14.5 -9.5
c-5.33301 -1.33301 -10.666 -2.16602 -15.999 -2.49902s-10.666 -0.5 -15.999 -0.5c-2.66699 0 -6.5 0.166992 -11.5 0.5s-9.83301 1.16602 -14.5 2.49902s-8.66699 3 -12 5s-5 5 -5 9c0 2.66699 0.666992 5.66699 2 9s2.66602 6.33301 3.99902 9
c7.33301 3.33301 14.333 6.16602 21 8.49902l21 7.5c3.33301 23.333 7.33301 46.666 12 69.999s10 46.333 16 69l9.5 39c3 12.667 6.83301 25.334 11.5 38.001h-5c-1.33301 -0.666992 -2.83301 -0.833984 -4.5 -0.500977s-3.16699 0.5 -4.5 0.5
c-1.33301 2 -3.33301 5.33301 -6 10s-4 8 -4 10c5.33301 8 11.5 14.833 18.5 20.5s12.5 11.5 16.5 17.5c3.33301 4 6.83301 6.66699 10.5 8s8.16699 2 13.5 2h8l18 -11c2 -4 3 -8 3 -12z" />
    <glyph glyph-name="ordmasculine" unicode="&#xba;" horiz-adv-x="187" 
d="M309 545c0 -8.66699 -0.666016 -17.167 -1.99902 -25.5s-3 -16.5 -5 -24.5c-7.33301 -26 -17 -48.667 -29 -68s-29 -36.666 -51 -51.999c-14 -10 -29 -15 -45 -15c-12.667 0 -23.667 2.66699 -33 8s-17.166 12.166 -23.499 20.499s-11 18 -14 29s-4.5 22.167 -4.5 33.5
c0 16 3.5 32.167 10.5 48.5s16.167 31.5 27.5 45.5s24.166 26.5 38.499 37.5s28.833 18.833 43.5 23.5l2 1c0.666992 0 1.16699 -0.166992 1.5 -0.5s0.833008 -0.5 1.5 -0.5c0 2.66699 1.33301 6.16699 4 10.5s5.66699 6.5 9 6.5c15.333 0 29.666 -5 42.999 -15
s21.333 -22.667 24 -38c1.33301 -4.66699 2 -9 2 -13v-12zM259.001 559c0 10.667 -2.33203 18.001 -6.99902 22.001s-9.66699 7.66699 -15 11c0.666992 -0.666992 1 -1.66699 1 -3c0 -4.66699 -2 -8 -6 -10c-20.667 -12.667 -38.167 -27.667 -52.5 -45
s-24.166 -38 -29.499 -62c-1.33301 -6.66699 -2 -12.334 -2 -17.001c0 -4 0.5 -8.5 1.5 -13.5s2.66699 -10 5 -15s5.16602 -9.16699 8.49902 -12.5s7.66602 -5 12.999 -5c3.33301 0 6.5 0.833008 9.5 2.5l9.5 5.5c15.333 11.333 27 25 35 41s14.333 33 19 51
c2 8 4.16699 16.167 6.5 24.5s3.5 16.833 3.5 25.5z" />
    <glyph glyph-name="guillemotright" unicode="&#xbb;" horiz-adv-x="319" 
d="M360 335c0 -22 -7.66895 -42.333 -23.002 -61c-6 -7.33301 -12.167 -14 -18.5 -20s-12.166 -12.667 -17.499 -20c-2 -2.66699 -7.66699 -8.16699 -17 -16.5l-30 -26c-10.667 -9 -20.667 -17 -30 -24s-15 -10.5 -17 -10.5c-4.66699 0 -8.83398 2.16699 -12.501 6.5
s-5.5 8.5 -5.5 12.5c0 0.666992 0.166992 1.33398 0.5 2.00098s0.5 1.33398 0.5 2.00098l31.5 33c13 13.333 25.833 27.333 38.5 42s23.834 29.167 33.501 43.5s15.167 27.166 16.5 38.499c-7.33301 11.333 -16.333 22.166 -27 32.499l-33 30.5l-34 31
c-11.333 10.667 -21.333 22.334 -30 35.001c0 0.666992 -0.166992 1.16699 -0.5 1.5s-0.5 0.833008 -0.5 1.5c0 4 1.66699 8.33301 5 13s7.33301 7 12 7h2c32.667 -12.667 62.334 -30.834 89.001 -54.501s48.667 -50.5 66 -80.5c0.666992 -3.33301 1 -6.5 1 -9.5v-9.5z
M236.998 331c0 -12 -2.17188 -23.001 -6.50488 -33.001s-10.166 -19.667 -17.499 -29c-5.33301 -6.66699 -11.166 -13.167 -17.499 -19.5s-12.5 -12.833 -18.5 -19.5c-2 -2.66699 -7.66699 -8.16699 -17 -16.5l-30 -26c-10.667 -9 -20.667 -17 -30 -24s-15 -10.5 -17 -10.5
c-4.66699 0 -8.66699 2 -12 6s-5 8.33301 -5 13v2c0 0.666992 0.166992 1 0.5 1s0.5 0.333008 0.5 1l31.5 33l38.5 41.5c12.667 14.333 23.834 28.666 33.501 42.999s15.167 27.166 16.5 38.499c-7.33301 12 -16.333 23 -27 33l-33.5 30l-34.5 31
c-11.333 10.667 -21.333 22.334 -30 35.001c0 0.666992 -0.166992 1.33398 -0.5 2.00098s-0.5 1.33398 -0.5 2.00098c0 4 1.83301 8.33301 5.5 13s7.83398 7 12.501 7c0.666992 -0.666992 1.33398 -1 2.00098 -1c32 -12 61.333 -30 88 -54s48.667 -50.667 66 -80
c0.666992 -3.33301 1.16699 -6.5 1.5 -9.5s0.5 -6.16699 0.5 -9.5z" />
    <glyph glyph-name="onequarter" unicode="&#xbc;" horiz-adv-x="653" 
d="M275 753c0 -5.33301 -1.66699 -10.666 -5 -15.999c-1.33301 -21.333 -5.33301 -41.666 -12 -60.999s-13 -39 -19 -59l-42 -126c3.33301 -2.66699 6.5 -6 9.5 -10s4.5 -8 4.5 -12c0 -5.33301 -2.5 -10.5 -7.5 -15.5s-9.83301 -8.16699 -14.5 -9.5
s-9.83398 -2.16602 -15.501 -2.49902s-11.167 -0.5 -16.5 -0.5c-2.66699 0 -6.5 0.166992 -11.5 0.5s-9.83301 1.16602 -14.5 2.49902s-8.66699 3 -12 5s-5 5 -5 9c0 2.66699 0.666992 5.66699 2 9s2.66602 6.33301 3.99902 9c7.33301 3.33301 14.333 6.16602 21 8.49902
l21 7.5c3.33301 23.333 7.33301 46.666 12 69.999s10 46.333 16 69l9.5 39c3 12.667 6.83301 25.334 11.5 38.001h-5c-1.33301 -0.666992 -2.66602 -0.833984 -3.99902 -0.500977s-2.66602 0.5 -3.99902 0.5l-6.5 10c-3 4.66699 -4.5 8 -4.5 10
c5.33301 8 11.5 14.833 18.5 20.5s12.5 11.5 16.5 17.5c3.33301 4 6.83301 6.66699 10.5 8s8.16699 2 13.5 2h8l18 -11c2 -4 3 -8 3 -12zM653 186c-7.33301 -15.333 -17.8359 -28.3311 -31.5029 -38.998s-28.5 -18.334 -44.5 -23.001l-11 -34
c-4 -12 -8.33301 -24.333 -13 -37l-14 -36.5c-4.66699 -11.667 -9.33398 -22.5 -14.001 -32.5c-2.66699 -4.66699 -6 -7 -10 -7c-2 0 -5.66699 2 -11 6s-8 7 -8 9c0 5.33301 0.833008 11 2.5 17s3.16699 11.667 4.5 17c3.33301 16.667 6.83301 33 10.5 49l11.5 48
c-15.333 4 -30.666 6 -45.999 6c-9.33301 0 -18.833 -0.666992 -28.5 -2s-19.167 -2 -28.5 -2c-3.33301 0 -7.33301 2 -12 6s-7 7.66699 -7 11c0 7.33301 3 17 9 29s11.333 21 16 27l16 23l16 22c26 36 49.667 73.333 71 112h1c0.666992 0 1.33398 0.333008 2.00098 1
c0.666992 0 1.66699 0.333008 3 1c2 0 5.83301 -2 11.5 -6s8.5 -7 8.5 -9c0 -0.666992 -0.666992 -3.5 -2 -8.5s-2 -8.16699 -2 -9.5c-11.333 -37.333 -28 -73.666 -50 -108.999l-9.5 -15.5l-9.5 -15.5c9.33301 -0.666992 18.5 -2.33398 27.5 -5.00098s18.167 -5 27.5 -7
c7.33301 25.333 16.5 49.5 27.5 72.5s27.167 42.5 48.5 58.5c0.666992 0 1.33398 0.166992 2.00098 0.5s1.33398 0.5 2.00098 0.5c4 0 8.33301 -1.66699 13 -5s7 -7.33301 7 -12c0 -5.33301 -1.83301 -12.833 -5.5 -22.5s-7.83398 -20 -12.501 -31s-9.5 -21.5 -14.5 -31.5
s-8.5 -18 -10.5 -24c6.66699 3.33301 12.667 7 18 11s10.666 8.66699 15.999 14c0.666992 0 1.33398 0.166992 2.00098 0.5s1.33398 0.5 2.00098 0.5c4 0 8.16699 -1.83301 12.5 -5.5s6.5 -7.83398 6.5 -12.501zM546.997 710.002
c0 -0.666992 -0.666992 -2.83203 -2 -6.49902s-2.66602 -7.66699 -3.99902 -12s-2.83301 -8.33301 -4.5 -12s-2.5 -5.83398 -2.5 -6.50098c-22 -57.333 -48.167 -112.166 -78.5 -164.499l-94.5 -156.5c-62.667 -98.667 -131.334 -194.334 -206.001 -287.001l-38.5 -47
l-39.5 -47c-2.66699 -2.66699 -5.66699 -4 -9 -4c-4 0 -7.83301 1.5 -11.5 4.5s-5.5 6.83301 -5.5 11.5c0 1.33301 0.666992 3.33301 2 6l44.5 62.5l44.5 61.5l90 132l86 134c23.333 38 45.666 76.667 66.999 116l66 117l32.5 56c11 19.333 22.833 37 35.5 53
c2 4 5.33301 6 10 6s8.83398 -1.66699 12.501 -5s5.5 -7.33301 5.5 -12z" />
    </font>
</defs>
</svg>
